G04 #@! TF.GenerationSoftware,KiCad,Pcbnew,(5.1.9)-1*
G04 #@! TF.CreationDate,2025-04-23T10:34:27-07:00*
G04 #@! TF.ProjectId,mounted_cap_sense,6d6f756e-7465-4645-9f63-61705f73656e,rev?*
G04 #@! TF.SameCoordinates,Original*
G04 #@! TF.FileFunction,Copper,L1,Top*
G04 #@! TF.FilePolarity,Positive*
%FSLAX46Y46*%
G04 Gerber Fmt 4.6, Leading zero omitted, Abs format (unit mm)*
G04 Created by KiCad (PCBNEW (5.1.9)-1) date 2025-04-23 10:34:27*
%MOMM*%
%LPD*%
G01*
G04 APERTURE LIST*
G04 #@! TA.AperFunction,SMDPad,CuDef*
%ADD10C,0.100000*%
G04 #@! TD*
G04 #@! TA.AperFunction,SMDPad,CuDef*
%ADD11R,1.000000X1.800000*%
G04 #@! TD*
G04 #@! TA.AperFunction,ComponentPad*
%ADD12C,7.000000*%
G04 #@! TD*
G04 #@! TA.AperFunction,ViaPad*
%ADD13C,0.800000*%
G04 #@! TD*
G04 #@! TA.AperFunction,Conductor*
%ADD14C,0.250000*%
G04 #@! TD*
G04 APERTURE END LIST*
G04 #@! TA.AperFunction,SMDPad,CuDef*
D10*
G36*
X110962982Y-81634443D02*
G01*
X110501042Y-81825784D01*
X110137493Y-80948099D01*
X106719139Y-82364028D01*
X108326409Y-86244322D01*
X111744763Y-84828393D01*
X111381214Y-83950707D01*
X111843154Y-83759366D01*
X112455447Y-85237573D01*
X108113213Y-87036185D01*
X106008455Y-81954848D01*
X110350688Y-80156235D01*
X110962982Y-81634443D01*
G37*
G04 #@! TD.AperFunction*
G04 #@! TA.AperFunction,SMDPad,CuDef*
G36*
X111317246Y-83273649D02*
G01*
X110934563Y-82349769D01*
X112597546Y-81660939D01*
X112980229Y-82584819D01*
X111317246Y-83273649D01*
G37*
G04 #@! TD.AperFunction*
G04 #@! TA.AperFunction,SMDPad,CuDef*
G36*
X111817385Y-68702847D02*
G01*
X111355445Y-68511506D01*
X111718994Y-67633820D01*
X108300640Y-66217891D01*
X106693370Y-70098185D01*
X110111724Y-71514114D01*
X110475273Y-70636429D01*
X110937213Y-70827770D01*
X110324919Y-72305978D01*
X105982686Y-70507365D01*
X108087444Y-65426028D01*
X112429678Y-67224640D01*
X111817385Y-68702847D01*
G37*
G04 #@! TD.AperFunction*
G04 #@! TA.AperFunction,SMDPad,CuDef*
G36*
X110908794Y-70112444D02*
G01*
X111291477Y-69188564D01*
X112954460Y-69877394D01*
X112571777Y-70801274D01*
X110908794Y-70112444D01*
G37*
G04 #@! TD.AperFunction*
G04 #@! TA.AperFunction,SMDPad,CuDef*
G36*
X121565557Y-60162982D02*
G01*
X121374216Y-59701042D01*
X122251901Y-59337493D01*
X120835972Y-55919139D01*
X116955678Y-57526409D01*
X118371607Y-60944763D01*
X119249293Y-60581214D01*
X119440634Y-61043154D01*
X117962427Y-61655447D01*
X116163815Y-57313213D01*
X121245152Y-55208455D01*
X123043765Y-59550688D01*
X121565557Y-60162982D01*
G37*
G04 #@! TD.AperFunction*
G04 #@! TA.AperFunction,SMDPad,CuDef*
G36*
X119926351Y-60517246D02*
G01*
X120850231Y-60134563D01*
X121539061Y-61797546D01*
X120615181Y-62180229D01*
X119926351Y-60517246D01*
G37*
G04 #@! TD.AperFunction*
G04 #@! TA.AperFunction,SMDPad,CuDef*
G36*
X134497153Y-61017385D02*
G01*
X134688494Y-60555445D01*
X135566180Y-60918994D01*
X136982109Y-57500640D01*
X133101815Y-55893370D01*
X131685886Y-59311724D01*
X132563571Y-59675273D01*
X132372230Y-60137213D01*
X130894022Y-59524919D01*
X132692635Y-55182686D01*
X137773972Y-57287444D01*
X135975360Y-61629678D01*
X134497153Y-61017385D01*
G37*
G04 #@! TD.AperFunction*
G04 #@! TA.AperFunction,SMDPad,CuDef*
G36*
X133087556Y-60108794D02*
G01*
X134011436Y-60491477D01*
X133322606Y-62154460D01*
X132398726Y-61771777D01*
X133087556Y-60108794D01*
G37*
G04 #@! TD.AperFunction*
G04 #@! TA.AperFunction,SMDPad,CuDef*
G36*
X143037018Y-70765557D02*
G01*
X143498958Y-70574216D01*
X143862507Y-71451901D01*
X147280861Y-70035972D01*
X145673591Y-66155678D01*
X142255237Y-67571607D01*
X142618786Y-68449293D01*
X142156846Y-68640634D01*
X141544553Y-67162427D01*
X145886787Y-65363815D01*
X147991545Y-70445152D01*
X143649312Y-72243765D01*
X143037018Y-70765557D01*
G37*
G04 #@! TD.AperFunction*
G04 #@! TA.AperFunction,SMDPad,CuDef*
G36*
X142682754Y-69126351D02*
G01*
X143065437Y-70050231D01*
X141402454Y-70739061D01*
X141019771Y-69815181D01*
X142682754Y-69126351D01*
G37*
G04 #@! TD.AperFunction*
G04 #@! TA.AperFunction,SMDPad,CuDef*
G36*
X142182615Y-83697153D02*
G01*
X142644555Y-83888494D01*
X142281006Y-84766180D01*
X145699360Y-86182109D01*
X147306630Y-82301815D01*
X143888276Y-80885886D01*
X143524727Y-81763571D01*
X143062787Y-81572230D01*
X143675081Y-80094022D01*
X148017314Y-81892635D01*
X145912556Y-86973972D01*
X141570322Y-85175360D01*
X142182615Y-83697153D01*
G37*
G04 #@! TD.AperFunction*
G04 #@! TA.AperFunction,SMDPad,CuDef*
G36*
X143091206Y-82287556D02*
G01*
X142708523Y-83211436D01*
X141045540Y-82522606D01*
X141428223Y-81598726D01*
X143091206Y-82287556D01*
G37*
G04 #@! TD.AperFunction*
G04 #@! TA.AperFunction,SMDPad,CuDef*
G36*
X132434443Y-92237018D02*
G01*
X132625784Y-92698958D01*
X131748099Y-93062507D01*
X133164028Y-96480861D01*
X137044322Y-94873591D01*
X135628393Y-91455237D01*
X134750707Y-91818786D01*
X134559366Y-91356846D01*
X136037573Y-90744553D01*
X137836185Y-95086787D01*
X132754848Y-97191545D01*
X130956235Y-92849312D01*
X132434443Y-92237018D01*
G37*
G04 #@! TD.AperFunction*
G04 #@! TA.AperFunction,SMDPad,CuDef*
G36*
X134073649Y-91882754D02*
G01*
X133149769Y-92265437D01*
X132460939Y-90602454D01*
X133384819Y-90219771D01*
X134073649Y-91882754D01*
G37*
G04 #@! TD.AperFunction*
G04 #@! TA.AperFunction,SMDPad,CuDef*
G36*
X125900800Y-52423000D02*
G01*
X125900800Y-52923000D01*
X124950800Y-52923000D01*
X124950800Y-56623000D01*
X129150800Y-56623000D01*
X129150800Y-52923000D01*
X128200800Y-52923000D01*
X128200800Y-52423000D01*
X129800800Y-52423000D01*
X129800800Y-57123000D01*
X124300800Y-57123000D01*
X124300800Y-52423000D01*
X125900800Y-52423000D01*
G37*
G04 #@! TD.AperFunction*
D11*
X127050800Y-51823000D03*
G04 #@! TA.AperFunction,SMDPad,CuDef*
D10*
G36*
X119502847Y-91382615D02*
G01*
X119311506Y-91844555D01*
X118433820Y-91481006D01*
X117017891Y-94899360D01*
X120898185Y-96506630D01*
X122314114Y-93088276D01*
X121436429Y-92724727D01*
X121627770Y-92262787D01*
X123105978Y-92875081D01*
X121307365Y-97217314D01*
X116226028Y-95112556D01*
X118024640Y-90770322D01*
X119502847Y-91382615D01*
G37*
G04 #@! TD.AperFunction*
G04 #@! TA.AperFunction,SMDPad,CuDef*
G36*
X120912444Y-92291206D02*
G01*
X119988564Y-91908523D01*
X120677394Y-90245540D01*
X121601274Y-90628223D01*
X120912444Y-92291206D01*
G37*
G04 #@! TD.AperFunction*
D12*
X148844000Y-98044000D03*
X105156000Y-98044000D03*
X148844000Y-54356000D03*
X105156000Y-54356000D03*
D13*
X127050800Y-54940200D03*
X119634000Y-94234000D03*
X134543415Y-94160512D03*
X145034000Y-83566000D03*
X144960512Y-68656585D03*
X134366000Y-58166000D03*
X119456585Y-58239488D03*
X108966000Y-68834000D03*
X109039488Y-83743415D03*
D14*
X127050800Y-54940200D02*
X127050800Y-52664400D01*
X119634000Y-92964000D02*
X119634000Y-94234000D01*
X120794919Y-91803081D02*
X119634000Y-92964000D01*
X120794919Y-91268373D02*
X120794919Y-91803081D01*
X133645390Y-91620699D02*
X133645390Y-93262486D01*
X142603081Y-82405081D02*
X143764000Y-83566000D01*
X142420699Y-69554610D02*
X144062486Y-69554610D01*
X133205081Y-60596919D02*
X134366000Y-59436000D01*
X120354610Y-60779301D02*
X120354610Y-59137514D01*
X111396919Y-69994919D02*
X110236000Y-68834000D01*
X111579301Y-82845390D02*
X109937514Y-82845390D01*
X133645390Y-93262487D02*
X134543416Y-94160513D01*
X143764000Y-83566000D02*
X145034000Y-83566000D01*
X144062487Y-69554610D02*
X144960513Y-68656584D01*
X134366000Y-59436000D02*
X134366000Y-58166000D01*
X120354610Y-59137513D02*
X119456584Y-58239487D01*
X110236000Y-68834000D02*
X108966000Y-68834000D01*
X109937513Y-82845390D02*
X109039487Y-83743416D01*
X148844000Y-98044000D02*
X148844000Y-100147790D01*
X148844000Y-54356000D02*
X150114000Y-54356000D01*
X148844000Y-84074000D02*
X148844000Y-68580000D01*
X119126000Y-98044000D02*
X134620000Y-98044000D01*
X105156000Y-68326000D02*
X105156000Y-83820000D01*
X116745530Y-54356000D02*
X118742752Y-56353222D01*
X105156000Y-54356000D02*
X116745530Y-54356000D01*
X126381022Y-56353222D02*
X127050800Y-57023000D01*
X118742752Y-56353222D02*
X126381022Y-56353222D01*
X127746347Y-56327453D02*
X127050800Y-57023000D01*
X135195035Y-56327453D02*
X127746347Y-56327453D01*
X137166488Y-54356000D02*
X135195035Y-56327453D01*
X148844000Y-54356000D02*
X137166488Y-54356000D01*
X148841752Y-67942752D02*
X148844000Y-67945000D01*
X146846778Y-67942752D02*
X148841752Y-67942752D01*
X148844000Y-67945000D02*
X148844000Y-54356000D01*
X148844000Y-68580000D02*
X148844000Y-67945000D01*
X148809435Y-84395035D02*
X148844000Y-84429600D01*
X146872547Y-84395035D02*
X148809435Y-84395035D01*
X148844000Y-84429600D02*
X148844000Y-84074000D01*
X148844000Y-98044000D02*
X148844000Y-84429600D01*
X135257248Y-98041752D02*
X135255000Y-98044000D01*
X135257248Y-96046778D02*
X135257248Y-98041752D01*
X135255000Y-98044000D02*
X148844000Y-98044000D01*
X134620000Y-98044000D02*
X135255000Y-98044000D01*
X118804965Y-98009435D02*
X118770400Y-98044000D01*
X118804965Y-96072547D02*
X118804965Y-98009435D01*
X118770400Y-98044000D02*
X119126000Y-98044000D01*
X105156000Y-98044000D02*
X118770400Y-98044000D01*
X105204552Y-84457248D02*
X105156000Y-84505800D01*
X107153222Y-84457248D02*
X105204552Y-84457248D01*
X105156000Y-84505800D02*
X105156000Y-98044000D01*
X105156000Y-83820000D02*
X105156000Y-84505800D01*
X105197635Y-68004965D02*
X105156000Y-68046600D01*
X107127453Y-68004965D02*
X105197635Y-68004965D01*
X105156000Y-68046600D02*
X105156000Y-68326000D01*
X105156000Y-54356000D02*
X105156000Y-68046600D01*
M02*
