G04 #@! TF.GenerationSoftware,KiCad,Pcbnew,9.0.0-9.0.0-2~ubuntu22.04.1*
G04 #@! TF.CreationDate,2025-04-23T13:27:44-07:00*
G04 #@! TF.ProjectId,mounted_cap_sense,6d6f756e-7465-4645-9f63-61705f73656e,rev?*
G04 #@! TF.SameCoordinates,Original*
G04 #@! TF.FileFunction,Copper,L1,Top*
G04 #@! TF.FilePolarity,Positive*
%FSLAX46Y46*%
G04 Gerber Fmt 4.6, Leading zero omitted, Abs format (unit mm)*
G04 Created by KiCad (PCBNEW 9.0.0-9.0.0-2~ubuntu22.04.1) date 2025-04-23 13:27:44*
%MOMM*%
%LPD*%
G01*
G04 APERTURE LIST*
G04 Aperture macros list*
%AMRotRect*
0 Rectangle, with rotation*
0 The origin of the aperture is its center*
0 $1 length*
0 $2 width*
0 $3 Rotation angle, in degrees counterclockwise*
0 Add horizontal line*
21,1,$1,$2,0,0,$3*%
%AMFreePoly0*
4,1,13,4.600000,1.150000,4.100000,1.150000,4.100000,2.100000,0.400000,2.099999,0.400000,-2.100000,4.100000,-2.100000,4.100000,-1.150000,4.600000,-1.150000,4.600000,-2.750000,-0.100000,-2.750000,-0.100000,2.750000,4.600000,2.750001,4.600000,1.150000,4.600000,1.150000,$1*%
G04 Aperture macros list end*
G04 #@! TA.AperFunction,SMDPad,CuDef*
%ADD10FreePoly0,22.500000*%
G04 #@! TD*
G04 #@! TA.AperFunction,SMDPad,CuDef*
%ADD11RotRect,1.800000X1.000000X22.500000*%
G04 #@! TD*
G04 #@! TA.AperFunction,SMDPad,CuDef*
%ADD12FreePoly0,337.500000*%
G04 #@! TD*
G04 #@! TA.AperFunction,SMDPad,CuDef*
%ADD13RotRect,1.800000X1.000000X337.500000*%
G04 #@! TD*
G04 #@! TA.AperFunction,SMDPad,CuDef*
%ADD14FreePoly0,292.500000*%
G04 #@! TD*
G04 #@! TA.AperFunction,SMDPad,CuDef*
%ADD15RotRect,1.800000X1.000000X292.500000*%
G04 #@! TD*
G04 #@! TA.AperFunction,SMDPad,CuDef*
%ADD16FreePoly0,247.500000*%
G04 #@! TD*
G04 #@! TA.AperFunction,SMDPad,CuDef*
%ADD17RotRect,1.800000X1.000000X247.500000*%
G04 #@! TD*
G04 #@! TA.AperFunction,SMDPad,CuDef*
%ADD18FreePoly0,202.500000*%
G04 #@! TD*
G04 #@! TA.AperFunction,SMDPad,CuDef*
%ADD19RotRect,1.800000X1.000000X202.500000*%
G04 #@! TD*
G04 #@! TA.AperFunction,SMDPad,CuDef*
%ADD20FreePoly0,157.500000*%
G04 #@! TD*
G04 #@! TA.AperFunction,SMDPad,CuDef*
%ADD21RotRect,1.800000X1.000000X157.500000*%
G04 #@! TD*
G04 #@! TA.AperFunction,SMDPad,CuDef*
%ADD22FreePoly0,112.500000*%
G04 #@! TD*
G04 #@! TA.AperFunction,SMDPad,CuDef*
%ADD23RotRect,1.800000X1.000000X112.500000*%
G04 #@! TD*
G04 #@! TA.AperFunction,SMDPad,CuDef*
%ADD24FreePoly0,90.000000*%
G04 #@! TD*
G04 #@! TA.AperFunction,SMDPad,CuDef*
%ADD25R,1.000000X1.800000*%
G04 #@! TD*
G04 #@! TA.AperFunction,SMDPad,CuDef*
%ADD26FreePoly0,67.500000*%
G04 #@! TD*
G04 #@! TA.AperFunction,SMDPad,CuDef*
%ADD27RotRect,1.800000X1.000000X67.500000*%
G04 #@! TD*
G04 #@! TA.AperFunction,ComponentPad*
%ADD28C,7.000000*%
G04 #@! TD*
G04 #@! TA.AperFunction,ViaPad*
%ADD29C,0.800000*%
G04 #@! TD*
G04 #@! TA.AperFunction,Conductor*
%ADD30C,0.250000*%
G04 #@! TD*
G04 APERTURE END LIST*
D10*
X107153222Y-84457248D03*
D11*
X111957396Y-82467294D03*
D12*
X107127453Y-68004965D03*
D13*
X111931627Y-69994919D03*
D14*
X118742752Y-56353222D03*
D15*
X120732706Y-61157396D03*
D16*
X135195035Y-56327453D03*
D17*
X133205081Y-61131627D03*
D18*
X146846778Y-67942752D03*
D19*
X142042604Y-69932706D03*
D20*
X146872547Y-84395035D03*
D21*
X142068373Y-82405081D03*
D22*
X135257248Y-96046778D03*
D23*
X133267294Y-91242604D03*
D24*
X127050800Y-57023000D03*
D25*
X127050800Y-51823000D03*
D26*
X118804965Y-96072547D03*
D27*
X120794919Y-91268373D03*
D28*
X148844000Y-98044000D03*
X105156000Y-98044000D03*
X148844000Y-54356000D03*
X105156000Y-54356000D03*
D29*
X127050800Y-54940200D03*
X119634000Y-94234000D03*
X134543415Y-94160512D03*
X145034000Y-83566000D03*
X144960512Y-68656585D03*
X134366000Y-58166000D03*
X119456585Y-58239488D03*
X108966000Y-68834000D03*
X109039488Y-83743415D03*
D30*
X127050800Y-54940200D02*
X127050800Y-52664400D01*
X119634000Y-92964000D02*
X119634000Y-94234000D01*
X120794919Y-91803081D02*
X119634000Y-92964000D01*
X120794919Y-91268373D02*
X120794919Y-91803081D01*
X133645390Y-91620699D02*
X133645390Y-93262486D01*
X142603081Y-82405081D02*
X143764000Y-83566000D01*
X142420699Y-69554610D02*
X144062486Y-69554610D01*
X133205081Y-60596919D02*
X134366000Y-59436000D01*
X120354610Y-60779301D02*
X120354610Y-59137514D01*
X111396919Y-69994919D02*
X110236000Y-68834000D01*
X111579301Y-82845390D02*
X109937514Y-82845390D01*
X133645390Y-93262487D02*
X134543416Y-94160513D01*
X143764000Y-83566000D02*
X145034000Y-83566000D01*
X144062487Y-69554610D02*
X144960513Y-68656584D01*
X134366000Y-59436000D02*
X134366000Y-58166000D01*
X120354610Y-59137513D02*
X119456584Y-58239487D01*
X110236000Y-68834000D02*
X108966000Y-68834000D01*
X109937513Y-82845390D02*
X109039487Y-83743416D01*
X148844000Y-98044000D02*
X148844000Y-100147790D01*
X148844000Y-54356000D02*
X150114000Y-54356000D01*
X148844000Y-84074000D02*
X148844000Y-68580000D01*
X119126000Y-98044000D02*
X134620000Y-98044000D01*
X105156000Y-68326000D02*
X105156000Y-83820000D01*
X116745530Y-54356000D02*
X118742752Y-56353222D01*
X105156000Y-54356000D02*
X116745530Y-54356000D01*
X126381022Y-56353222D02*
X127050800Y-57023000D01*
X118742752Y-56353222D02*
X126381022Y-56353222D01*
X127746347Y-56327453D02*
X127050800Y-57023000D01*
X135195035Y-56327453D02*
X127746347Y-56327453D01*
X137166488Y-54356000D02*
X135195035Y-56327453D01*
X148844000Y-54356000D02*
X137166488Y-54356000D01*
X148841752Y-67942752D02*
X148844000Y-67945000D01*
X146846778Y-67942752D02*
X148841752Y-67942752D01*
X148844000Y-67945000D02*
X148844000Y-54356000D01*
X148844000Y-68580000D02*
X148844000Y-67945000D01*
X148809435Y-84395035D02*
X148844000Y-84429600D01*
X146872547Y-84395035D02*
X148809435Y-84395035D01*
X148844000Y-84429600D02*
X148844000Y-84074000D01*
X148844000Y-98044000D02*
X148844000Y-84429600D01*
X135257248Y-98041752D02*
X135255000Y-98044000D01*
X135257248Y-96046778D02*
X135257248Y-98041752D01*
X135255000Y-98044000D02*
X148844000Y-98044000D01*
X134620000Y-98044000D02*
X135255000Y-98044000D01*
X118804965Y-98009435D02*
X118770400Y-98044000D01*
X118804965Y-96072547D02*
X118804965Y-98009435D01*
X118770400Y-98044000D02*
X119126000Y-98044000D01*
X105156000Y-98044000D02*
X118770400Y-98044000D01*
X105204552Y-84457248D02*
X105156000Y-84505800D01*
X107153222Y-84457248D02*
X105204552Y-84457248D01*
X105156000Y-84505800D02*
X105156000Y-98044000D01*
X105156000Y-83820000D02*
X105156000Y-84505800D01*
X105197635Y-68004965D02*
X105156000Y-68046600D01*
X107127453Y-68004965D02*
X105197635Y-68004965D01*
X105156000Y-68046600D02*
X105156000Y-68326000D01*
X105156000Y-54356000D02*
X105156000Y-68046600D01*
M02*
