G04 #@! TF.GenerationSoftware,KiCad,Pcbnew,9.0.0-9.0.0-2~ubuntu22.04.1*
G04 #@! TF.CreationDate,2025-04-23T13:27:45-07:00*
G04 #@! TF.ProjectId,mounted_cap_sense,6d6f756e-7465-4645-9f63-61705f73656e,rev?*
G04 #@! TF.SameCoordinates,Original*
G04 #@! TF.FileFunction,Copper,L2,Bot*
G04 #@! TF.FilePolarity,Positive*
%FSLAX46Y46*%
G04 Gerber Fmt 4.6, Leading zero omitted, Abs format (unit mm)*
G04 Created by KiCad (PCBNEW 9.0.0-9.0.0-2~ubuntu22.04.1) date 2025-04-23 13:27:45*
%MOMM*%
%LPD*%
G01*
G04 APERTURE LIST*
G04 #@! TA.AperFunction,Conductor*
%ADD10C,0.100000*%
G04 #@! TD*
G04 #@! TA.AperFunction,Conductor*
%ADD11C,0.000000*%
G04 #@! TD*
G04 #@! TA.AperFunction,NonConductor*
%ADD12C,0.500000*%
G04 #@! TD*
G04 #@! TA.AperFunction,ComponentPad*
%ADD13C,7.000000*%
G04 #@! TD*
G04 #@! TA.AperFunction,ViaPad*
%ADD14C,0.800000*%
G04 #@! TD*
G04 APERTURE END LIST*
D10*
X106551892Y-76499999D02*
X108452425Y-76499999D01*
X112328873Y-61953136D02*
X113672753Y-63297016D01*
X126700001Y-55751892D02*
X126700001Y-57652425D01*
X141246864Y-61528873D02*
X139902984Y-62872753D01*
X147448108Y-75900001D02*
X145547575Y-75900001D01*
X141671127Y-90446864D02*
X140327247Y-89102984D01*
X127299999Y-96648108D02*
X127299999Y-94747575D01*
X112328874Y-90446862D02*
X113672754Y-89102982D01*
X106551894Y-75900000D02*
X108452427Y-75900000D01*
X112753138Y-61528874D02*
X114097018Y-62872754D01*
X127300000Y-55751894D02*
X127300000Y-57652427D01*
X141671126Y-61953138D02*
X140327246Y-63297018D01*
X147448106Y-76500000D02*
X145547573Y-76500000D01*
X141246862Y-90871126D02*
X139902982Y-89527246D01*
X112325162Y-90443086D02*
G75*
G02*
X106551893Y-76499999I14368541J14116214D01*
G01*
X106551939Y-75894705D02*
G75*
G02*
X112328873Y-61953136I20141764J-178422D01*
G01*
X112756914Y-61525162D02*
G75*
G02*
X126700001Y-55751893I14116214J-14368541D01*
G01*
X127305295Y-55751939D02*
G75*
G02*
X141246864Y-61528873I-178422J-20141764D01*
G01*
X141674838Y-61956914D02*
G75*
G02*
X147448107Y-75900001I-14368541J-14116214D01*
G01*
X147448061Y-76505295D02*
G75*
G02*
X141671127Y-90446864I-20141764J178422D01*
G01*
X141243086Y-90874838D02*
G75*
G02*
X127299999Y-96648107I-14116214J14368541D01*
G01*
D11*
G04 #@! TA.AperFunction,Conductor*
G36*
X108444995Y-76507125D02*
G01*
X108493488Y-77572183D01*
X108685665Y-79237122D01*
X109175987Y-81361851D01*
X109923145Y-83488376D01*
X111144460Y-85884308D01*
X112241847Y-87441484D01*
X113658931Y-89102832D01*
X112315485Y-90435502D01*
X111140868Y-89135161D01*
X109788441Y-87290616D01*
X108825757Y-85666986D01*
X107688857Y-83042955D01*
X107110529Y-81078075D01*
X106645351Y-78342689D01*
X106557345Y-76505329D01*
X108444995Y-76507125D01*
G37*
G04 #@! TD.AperFunction*
G04 #@! TA.AperFunction,Conductor*
G36*
X113662460Y-63296800D02*
G01*
X112943640Y-64084200D01*
X111902240Y-65397380D01*
X110746540Y-67246500D01*
X109771180Y-69278500D01*
X108940600Y-71836280D01*
X108615480Y-73713340D01*
X108442760Y-75890120D01*
X106550460Y-75882500D01*
X106639360Y-74132440D01*
X106987340Y-71871840D01*
X107454700Y-70043040D01*
X108506260Y-67383660D01*
X109486700Y-65585340D01*
X111091980Y-63322200D01*
X112328960Y-61960760D01*
X113662460Y-63296800D01*
G37*
G04 #@! TD.AperFunction*
G04 #@! TA.AperFunction,Conductor*
G36*
X126692875Y-57644995D02*
G01*
X125627817Y-57693488D01*
X123962878Y-57885665D01*
X121838149Y-58375987D01*
X119711624Y-59123145D01*
X117315692Y-60344460D01*
X115758516Y-61441847D01*
X114097168Y-62858931D01*
X112764498Y-61515485D01*
X114064839Y-60340868D01*
X115909384Y-58988441D01*
X117533014Y-58025757D01*
X120157045Y-56888857D01*
X122121925Y-56310529D01*
X124857311Y-55845351D01*
X126694671Y-55757345D01*
X126692875Y-57644995D01*
G37*
G04 #@! TD.AperFunction*
G04 #@! TA.AperFunction,Conductor*
G36*
X129067560Y-55839360D02*
G01*
X131328160Y-56187340D01*
X133156960Y-56654700D01*
X135816340Y-57706260D01*
X137614660Y-58686700D01*
X139877800Y-60291980D01*
X141239240Y-61528960D01*
X139903200Y-62862460D01*
X139115800Y-62143640D01*
X137802620Y-61102240D01*
X135953500Y-59946540D01*
X133921500Y-58971180D01*
X131363720Y-58140600D01*
X129486660Y-57815480D01*
X127309880Y-57642760D01*
X127317500Y-55750460D01*
X129067560Y-55839360D01*
G37*
G04 #@! TD.AperFunction*
G04 #@! TA.AperFunction,Conductor*
G36*
X142859132Y-63264839D02*
G01*
X144211559Y-65109384D01*
X145174243Y-66733014D01*
X146311143Y-69357045D01*
X146889471Y-71321925D01*
X147354649Y-74057311D01*
X147442655Y-75894671D01*
X145555005Y-75892875D01*
X145506512Y-74827817D01*
X145314335Y-73162878D01*
X144824013Y-71038149D01*
X144076855Y-68911624D01*
X142855540Y-66515692D01*
X141758153Y-64958516D01*
X140341069Y-63297168D01*
X141684515Y-61964498D01*
X142859132Y-63264839D01*
G37*
G04 #@! TD.AperFunction*
G04 #@! TA.AperFunction,Conductor*
G36*
X147449540Y-76517500D02*
G01*
X147360640Y-78267560D01*
X147012660Y-80528160D01*
X146545300Y-82356960D01*
X145493740Y-85016340D01*
X144513300Y-86814660D01*
X142908020Y-89077800D01*
X141671040Y-90439240D01*
X140337540Y-89103200D01*
X141056360Y-88315800D01*
X142097760Y-87002620D01*
X143253460Y-85153500D01*
X144228820Y-83121500D01*
X145059400Y-80563720D01*
X145384520Y-78686660D01*
X145557240Y-76509880D01*
X147449540Y-76517500D01*
G37*
G04 #@! TD.AperFunction*
G04 #@! TA.AperFunction,Conductor*
G36*
X141235502Y-90884515D02*
G01*
X139935161Y-92059132D01*
X138090616Y-93411559D01*
X136466986Y-94374243D01*
X133842955Y-95511143D01*
X131878075Y-96089471D01*
X129142689Y-96554649D01*
X127305329Y-96642655D01*
X127307125Y-94755005D01*
X128372183Y-94706512D01*
X130037122Y-94514335D01*
X132161851Y-94024013D01*
X134288376Y-93276855D01*
X136684308Y-92055540D01*
X138241484Y-90958153D01*
X139902832Y-89541069D01*
X141235502Y-90884515D01*
G37*
G04 #@! TD.AperFunction*
D10*
X113662243Y-89092119D02*
G75*
G02*
X108452426Y-76499999I13337757J12892119D01*
G01*
X108452676Y-75884886D02*
G75*
G02*
X113672753Y-63297016I18547324J-315114D01*
G01*
X114107881Y-62862243D02*
G75*
G02*
X126700001Y-57652426I12892119J-13337757D01*
G01*
X127315114Y-57652676D02*
G75*
G02*
X139902984Y-62872753I-315114J-18547324D01*
G01*
X140337757Y-63307881D02*
G75*
G02*
X145547574Y-75900001I-13337757J-12892119D01*
G01*
X145547324Y-76515114D02*
G75*
G02*
X140327247Y-89102984I-18547324J315114D01*
G01*
X139892119Y-89537757D02*
G75*
G02*
X127299999Y-94747574I-12892119J13337757D01*
G01*
D11*
G04 #@! TA.AperFunction,Conductor*
G36*
X114884200Y-90256360D02*
G01*
X116197380Y-91297760D01*
X118046500Y-92453460D01*
X120078500Y-93428820D01*
X122636280Y-94259400D01*
X124513340Y-94584520D01*
X126690120Y-94757240D01*
X126682500Y-96649540D01*
X124932440Y-96560640D01*
X122671840Y-96212660D01*
X120843040Y-95745300D01*
X118183660Y-94693740D01*
X116385340Y-93713300D01*
X114122200Y-92108020D01*
X112760760Y-90871040D01*
X114096800Y-89537540D01*
X114884200Y-90256360D01*
G37*
G04 #@! TD.AperFunction*
D10*
X126700000Y-96648106D02*
X126700000Y-94747573D01*
X126684886Y-94747324D02*
G75*
G02*
X114097016Y-89527247I315114J18547324D01*
G01*
X112753136Y-90871127D02*
X114097016Y-89527247D01*
X126694705Y-96648061D02*
G75*
G02*
X112753136Y-90871127I178422J20141764D01*
G01*
D12*
X148250000Y-76200000D02*
G75*
G02*
X105750000Y-76200000I-21250000J0D01*
G01*
X105750000Y-76200000D02*
G75*
G02*
X148250000Y-76200000I21250000J0D01*
G01*
D13*
X148844000Y-98044000D03*
X105156000Y-98044000D03*
X148844000Y-54356000D03*
X105156000Y-54356000D03*
D14*
X127050800Y-54940200D03*
X119634000Y-94234000D03*
X134543415Y-94160512D03*
X145034000Y-83566000D03*
X144960512Y-68656585D03*
X134366000Y-58166000D03*
X119456585Y-58239488D03*
X108966000Y-68834000D03*
X109039488Y-83743415D03*
M02*
