%TF.GenerationSoftware,KiCad,Pcbnew,9.0.0-9.0.0-2~ubuntu22.04.1*%
%TF.CreationDate,2025-04-23T13:28:03-07:00*%
%TF.ProjectId,mounted_cap_sense,6d6f756e-7465-4645-9f63-61705f73656e,rev?*%
%TF.SameCoordinates,Original*%
%TF.FileFunction,Drillmap*%
%TF.FilePolarity,Positive*%
%FSLAX45Y45*%
G04 Gerber Fmt 4.5, Leading zero omitted, Abs format (unit mm)*
G04 Created by KiCad (PCBNEW 9.0.0-9.0.0-2~ubuntu22.04.1) date 2025-04-23 13:28:03*
%MOMM*%
%LPD*%
G01*
G04 APERTURE LIST*
%ADD10C,0.200000*%
%ADD11C,0.100000*%
%ADD12C,0.430000*%
G04 APERTURE END LIST*
D10*
X13900000Y-7620000D02*
G75*
G02*
X11500000Y-7620000I-1200000J0D01*
G01*
X11500000Y-7620000D02*
G75*
G02*
X13900000Y-7620000I1200000J0D01*
G01*
X10057500Y-5430881D02*
G75*
G02*
X10510881Y-4977500I453381J0D01*
G01*
X14889119Y-4977500D02*
X10510881Y-4977500D01*
X14889119Y-4977500D02*
G75*
G02*
X15342500Y-5430881I0J-453381D01*
G01*
X15342500Y-5430881D02*
X15342500Y-9809119D01*
X10510881Y-10262500D02*
G75*
G02*
X10057500Y-9809119I0J453381D01*
G01*
X14889119Y-10262500D02*
X10510881Y-10262500D01*
X10057500Y-5430881D02*
X10057500Y-9809119D01*
X15342500Y-9809119D02*
G75*
G02*
X14889119Y-10262500I-453381J0D01*
G01*
D11*
X10876600Y-6863400D02*
X10916600Y-6903400D01*
X10916600Y-6863400D02*
X10876600Y-6903400D01*
X10883949Y-8354341D02*
X10923949Y-8394342D01*
X10923949Y-8354341D02*
X10883949Y-8394342D01*
X11925658Y-5803949D02*
X11965658Y-5843949D01*
X11965658Y-5803949D02*
X11925658Y-5843949D01*
X11943400Y-9403400D02*
X11983400Y-9443400D01*
X11983400Y-9403400D02*
X11943400Y-9443400D01*
X12685080Y-5474020D02*
X12725080Y-5514020D01*
X12725080Y-5474020D02*
X12685080Y-5514020D01*
X13416600Y-5796600D02*
X13456600Y-5836600D01*
X13456600Y-5796600D02*
X13416600Y-5836600D01*
X13434341Y-9396051D02*
X13474341Y-9436051D01*
X13474341Y-9396051D02*
X13434341Y-9436051D01*
X14476051Y-6845658D02*
X14516051Y-6885658D01*
X14516051Y-6845658D02*
X14476051Y-6885658D01*
X14483400Y-8336600D02*
X14523400Y-8376600D01*
X14523400Y-8336600D02*
X14483400Y-8376600D01*
D12*
X10730600Y-5435600D02*
G75*
G02*
X10300600Y-5435600I-215000J0D01*
G01*
X10300600Y-5435600D02*
G75*
G02*
X10730600Y-5435600I215000J0D01*
G01*
X10730600Y-9804400D02*
G75*
G02*
X10300600Y-9804400I-215000J0D01*
G01*
X10300600Y-9804400D02*
G75*
G02*
X10730600Y-9804400I215000J0D01*
G01*
X15099400Y-5435600D02*
G75*
G02*
X14669400Y-5435600I-215000J0D01*
G01*
X14669400Y-5435600D02*
G75*
G02*
X15099400Y-5435600I215000J0D01*
G01*
X15099400Y-9804400D02*
G75*
G02*
X14669400Y-9804400I-215000J0D01*
G01*
X14669400Y-9804400D02*
G75*
G02*
X15099400Y-9804400I215000J0D01*
G01*
D10*
X10308277Y-10583984D02*
X10308277Y-10383984D01*
X10308277Y-10383984D02*
X10355896Y-10383984D01*
X10355896Y-10383984D02*
X10384467Y-10393508D01*
X10384467Y-10393508D02*
X10403515Y-10412555D01*
X10403515Y-10412555D02*
X10413039Y-10431603D01*
X10413039Y-10431603D02*
X10422563Y-10469698D01*
X10422563Y-10469698D02*
X10422563Y-10498270D01*
X10422563Y-10498270D02*
X10413039Y-10536365D01*
X10413039Y-10536365D02*
X10403515Y-10555412D01*
X10403515Y-10555412D02*
X10384467Y-10574460D01*
X10384467Y-10574460D02*
X10355896Y-10583984D01*
X10355896Y-10583984D02*
X10308277Y-10583984D01*
X10508277Y-10583984D02*
X10508277Y-10450650D01*
X10508277Y-10488746D02*
X10517801Y-10469698D01*
X10517801Y-10469698D02*
X10527324Y-10460174D01*
X10527324Y-10460174D02*
X10546372Y-10450650D01*
X10546372Y-10450650D02*
X10565420Y-10450650D01*
X10632086Y-10583984D02*
X10632086Y-10450650D01*
X10632086Y-10383984D02*
X10622563Y-10393508D01*
X10622563Y-10393508D02*
X10632086Y-10403031D01*
X10632086Y-10403031D02*
X10641610Y-10393508D01*
X10641610Y-10393508D02*
X10632086Y-10383984D01*
X10632086Y-10383984D02*
X10632086Y-10403031D01*
X10755896Y-10583984D02*
X10736848Y-10574460D01*
X10736848Y-10574460D02*
X10727324Y-10555412D01*
X10727324Y-10555412D02*
X10727324Y-10383984D01*
X10860658Y-10583984D02*
X10841610Y-10574460D01*
X10841610Y-10574460D02*
X10832086Y-10555412D01*
X10832086Y-10555412D02*
X10832086Y-10383984D01*
X11089229Y-10583984D02*
X11089229Y-10383984D01*
X11089229Y-10383984D02*
X11155896Y-10526841D01*
X11155896Y-10526841D02*
X11222562Y-10383984D01*
X11222562Y-10383984D02*
X11222562Y-10583984D01*
X11403515Y-10583984D02*
X11403515Y-10479222D01*
X11403515Y-10479222D02*
X11393991Y-10460174D01*
X11393991Y-10460174D02*
X11374943Y-10450650D01*
X11374943Y-10450650D02*
X11336848Y-10450650D01*
X11336848Y-10450650D02*
X11317801Y-10460174D01*
X11403515Y-10574460D02*
X11384467Y-10583984D01*
X11384467Y-10583984D02*
X11336848Y-10583984D01*
X11336848Y-10583984D02*
X11317801Y-10574460D01*
X11317801Y-10574460D02*
X11308277Y-10555412D01*
X11308277Y-10555412D02*
X11308277Y-10536365D01*
X11308277Y-10536365D02*
X11317801Y-10517317D01*
X11317801Y-10517317D02*
X11336848Y-10507793D01*
X11336848Y-10507793D02*
X11384467Y-10507793D01*
X11384467Y-10507793D02*
X11403515Y-10498270D01*
X11498753Y-10450650D02*
X11498753Y-10650650D01*
X11498753Y-10460174D02*
X11517801Y-10450650D01*
X11517801Y-10450650D02*
X11555896Y-10450650D01*
X11555896Y-10450650D02*
X11574943Y-10460174D01*
X11574943Y-10460174D02*
X11584467Y-10469698D01*
X11584467Y-10469698D02*
X11593991Y-10488746D01*
X11593991Y-10488746D02*
X11593991Y-10545889D01*
X11593991Y-10545889D02*
X11584467Y-10564936D01*
X11584467Y-10564936D02*
X11574943Y-10574460D01*
X11574943Y-10574460D02*
X11555896Y-10583984D01*
X11555896Y-10583984D02*
X11517801Y-10583984D01*
X11517801Y-10583984D02*
X11498753Y-10574460D01*
X11679705Y-10564936D02*
X11689229Y-10574460D01*
X11689229Y-10574460D02*
X11679705Y-10583984D01*
X11679705Y-10583984D02*
X11670182Y-10574460D01*
X11670182Y-10574460D02*
X11679705Y-10564936D01*
X11679705Y-10564936D02*
X11679705Y-10583984D01*
X11679705Y-10460174D02*
X11689229Y-10469698D01*
X11689229Y-10469698D02*
X11679705Y-10479222D01*
X11679705Y-10479222D02*
X11670182Y-10469698D01*
X11670182Y-10469698D02*
X11679705Y-10460174D01*
X11679705Y-10460174D02*
X11679705Y-10479222D01*
D11*
X10007500Y-10892500D02*
X10047500Y-10932500D01*
X10047500Y-10892500D02*
X10007500Y-10932500D01*
D10*
X10346372Y-10803984D02*
X10365420Y-10803984D01*
X10365420Y-10803984D02*
X10384467Y-10813508D01*
X10384467Y-10813508D02*
X10393991Y-10823031D01*
X10393991Y-10823031D02*
X10403515Y-10842079D01*
X10403515Y-10842079D02*
X10413039Y-10880174D01*
X10413039Y-10880174D02*
X10413039Y-10927793D01*
X10413039Y-10927793D02*
X10403515Y-10965889D01*
X10403515Y-10965889D02*
X10393991Y-10984936D01*
X10393991Y-10984936D02*
X10384467Y-10994460D01*
X10384467Y-10994460D02*
X10365420Y-11003984D01*
X10365420Y-11003984D02*
X10346372Y-11003984D01*
X10346372Y-11003984D02*
X10327324Y-10994460D01*
X10327324Y-10994460D02*
X10317801Y-10984936D01*
X10317801Y-10984936D02*
X10308277Y-10965889D01*
X10308277Y-10965889D02*
X10298753Y-10927793D01*
X10298753Y-10927793D02*
X10298753Y-10880174D01*
X10298753Y-10880174D02*
X10308277Y-10842079D01*
X10308277Y-10842079D02*
X10317801Y-10823031D01*
X10317801Y-10823031D02*
X10327324Y-10813508D01*
X10327324Y-10813508D02*
X10346372Y-10803984D01*
X10498753Y-10984936D02*
X10508277Y-10994460D01*
X10508277Y-10994460D02*
X10498753Y-11003984D01*
X10498753Y-11003984D02*
X10489229Y-10994460D01*
X10489229Y-10994460D02*
X10498753Y-10984936D01*
X10498753Y-10984936D02*
X10498753Y-11003984D01*
X10679705Y-10870650D02*
X10679705Y-11003984D01*
X10632086Y-10794460D02*
X10584467Y-10937317D01*
X10584467Y-10937317D02*
X10708277Y-10937317D01*
X10822563Y-10803984D02*
X10841610Y-10803984D01*
X10841610Y-10803984D02*
X10860658Y-10813508D01*
X10860658Y-10813508D02*
X10870182Y-10823031D01*
X10870182Y-10823031D02*
X10879705Y-10842079D01*
X10879705Y-10842079D02*
X10889229Y-10880174D01*
X10889229Y-10880174D02*
X10889229Y-10927793D01*
X10889229Y-10927793D02*
X10879705Y-10965889D01*
X10879705Y-10965889D02*
X10870182Y-10984936D01*
X10870182Y-10984936D02*
X10860658Y-10994460D01*
X10860658Y-10994460D02*
X10841610Y-11003984D01*
X10841610Y-11003984D02*
X10822563Y-11003984D01*
X10822563Y-11003984D02*
X10803515Y-10994460D01*
X10803515Y-10994460D02*
X10793991Y-10984936D01*
X10793991Y-10984936D02*
X10784467Y-10965889D01*
X10784467Y-10965889D02*
X10774944Y-10927793D01*
X10774944Y-10927793D02*
X10774944Y-10880174D01*
X10774944Y-10880174D02*
X10784467Y-10842079D01*
X10784467Y-10842079D02*
X10793991Y-10823031D01*
X10793991Y-10823031D02*
X10803515Y-10813508D01*
X10803515Y-10813508D02*
X10822563Y-10803984D01*
X11013039Y-10803984D02*
X11032086Y-10803984D01*
X11032086Y-10803984D02*
X11051134Y-10813508D01*
X11051134Y-10813508D02*
X11060658Y-10823031D01*
X11060658Y-10823031D02*
X11070182Y-10842079D01*
X11070182Y-10842079D02*
X11079705Y-10880174D01*
X11079705Y-10880174D02*
X11079705Y-10927793D01*
X11079705Y-10927793D02*
X11070182Y-10965889D01*
X11070182Y-10965889D02*
X11060658Y-10984936D01*
X11060658Y-10984936D02*
X11051134Y-10994460D01*
X11051134Y-10994460D02*
X11032086Y-11003984D01*
X11032086Y-11003984D02*
X11013039Y-11003984D01*
X11013039Y-11003984D02*
X10993991Y-10994460D01*
X10993991Y-10994460D02*
X10984467Y-10984936D01*
X10984467Y-10984936D02*
X10974944Y-10965889D01*
X10974944Y-10965889D02*
X10965420Y-10927793D01*
X10965420Y-10927793D02*
X10965420Y-10880174D01*
X10965420Y-10880174D02*
X10974944Y-10842079D01*
X10974944Y-10842079D02*
X10984467Y-10823031D01*
X10984467Y-10823031D02*
X10993991Y-10813508D01*
X10993991Y-10813508D02*
X11013039Y-10803984D01*
X11165420Y-11003984D02*
X11165420Y-10870650D01*
X11165420Y-10889698D02*
X11174944Y-10880174D01*
X11174944Y-10880174D02*
X11193991Y-10870650D01*
X11193991Y-10870650D02*
X11222563Y-10870650D01*
X11222563Y-10870650D02*
X11241610Y-10880174D01*
X11241610Y-10880174D02*
X11251134Y-10899222D01*
X11251134Y-10899222D02*
X11251134Y-11003984D01*
X11251134Y-10899222D02*
X11260658Y-10880174D01*
X11260658Y-10880174D02*
X11279705Y-10870650D01*
X11279705Y-10870650D02*
X11308277Y-10870650D01*
X11308277Y-10870650D02*
X11327324Y-10880174D01*
X11327324Y-10880174D02*
X11336848Y-10899222D01*
X11336848Y-10899222D02*
X11336848Y-11003984D01*
X11432086Y-11003984D02*
X11432086Y-10870650D01*
X11432086Y-10889698D02*
X11441610Y-10880174D01*
X11441610Y-10880174D02*
X11460658Y-10870650D01*
X11460658Y-10870650D02*
X11489229Y-10870650D01*
X11489229Y-10870650D02*
X11508277Y-10880174D01*
X11508277Y-10880174D02*
X11517801Y-10899222D01*
X11517801Y-10899222D02*
X11517801Y-11003984D01*
X11517801Y-10899222D02*
X11527324Y-10880174D01*
X11527324Y-10880174D02*
X11546372Y-10870650D01*
X11546372Y-10870650D02*
X11574943Y-10870650D01*
X11574943Y-10870650D02*
X11593991Y-10880174D01*
X11593991Y-10880174D02*
X11603515Y-10899222D01*
X11603515Y-10899222D02*
X11603515Y-11003984D01*
X11993991Y-10794460D02*
X11822563Y-11051603D01*
X12251134Y-10803984D02*
X12270182Y-10803984D01*
X12270182Y-10803984D02*
X12289229Y-10813508D01*
X12289229Y-10813508D02*
X12298753Y-10823031D01*
X12298753Y-10823031D02*
X12308277Y-10842079D01*
X12308277Y-10842079D02*
X12317801Y-10880174D01*
X12317801Y-10880174D02*
X12317801Y-10927793D01*
X12317801Y-10927793D02*
X12308277Y-10965889D01*
X12308277Y-10965889D02*
X12298753Y-10984936D01*
X12298753Y-10984936D02*
X12289229Y-10994460D01*
X12289229Y-10994460D02*
X12270182Y-11003984D01*
X12270182Y-11003984D02*
X12251134Y-11003984D01*
X12251134Y-11003984D02*
X12232086Y-10994460D01*
X12232086Y-10994460D02*
X12222563Y-10984936D01*
X12222563Y-10984936D02*
X12213039Y-10965889D01*
X12213039Y-10965889D02*
X12203515Y-10927793D01*
X12203515Y-10927793D02*
X12203515Y-10880174D01*
X12203515Y-10880174D02*
X12213039Y-10842079D01*
X12213039Y-10842079D02*
X12222563Y-10823031D01*
X12222563Y-10823031D02*
X12232086Y-10813508D01*
X12232086Y-10813508D02*
X12251134Y-10803984D01*
X12403515Y-10984936D02*
X12413039Y-10994460D01*
X12413039Y-10994460D02*
X12403515Y-11003984D01*
X12403515Y-11003984D02*
X12393991Y-10994460D01*
X12393991Y-10994460D02*
X12403515Y-10984936D01*
X12403515Y-10984936D02*
X12403515Y-11003984D01*
X12536848Y-10803984D02*
X12555896Y-10803984D01*
X12555896Y-10803984D02*
X12574944Y-10813508D01*
X12574944Y-10813508D02*
X12584467Y-10823031D01*
X12584467Y-10823031D02*
X12593991Y-10842079D01*
X12593991Y-10842079D02*
X12603515Y-10880174D01*
X12603515Y-10880174D02*
X12603515Y-10927793D01*
X12603515Y-10927793D02*
X12593991Y-10965889D01*
X12593991Y-10965889D02*
X12584467Y-10984936D01*
X12584467Y-10984936D02*
X12574944Y-10994460D01*
X12574944Y-10994460D02*
X12555896Y-11003984D01*
X12555896Y-11003984D02*
X12536848Y-11003984D01*
X12536848Y-11003984D02*
X12517801Y-10994460D01*
X12517801Y-10994460D02*
X12508277Y-10984936D01*
X12508277Y-10984936D02*
X12498753Y-10965889D01*
X12498753Y-10965889D02*
X12489229Y-10927793D01*
X12489229Y-10927793D02*
X12489229Y-10880174D01*
X12489229Y-10880174D02*
X12498753Y-10842079D01*
X12498753Y-10842079D02*
X12508277Y-10823031D01*
X12508277Y-10823031D02*
X12517801Y-10813508D01*
X12517801Y-10813508D02*
X12536848Y-10803984D01*
X12793991Y-11003984D02*
X12679706Y-11003984D01*
X12736848Y-11003984D02*
X12736848Y-10803984D01*
X12736848Y-10803984D02*
X12717801Y-10832555D01*
X12717801Y-10832555D02*
X12698753Y-10851603D01*
X12698753Y-10851603D02*
X12679706Y-10861127D01*
X12974944Y-10803984D02*
X12879706Y-10803984D01*
X12879706Y-10803984D02*
X12870182Y-10899222D01*
X12870182Y-10899222D02*
X12879706Y-10889698D01*
X12879706Y-10889698D02*
X12898753Y-10880174D01*
X12898753Y-10880174D02*
X12946372Y-10880174D01*
X12946372Y-10880174D02*
X12965420Y-10889698D01*
X12965420Y-10889698D02*
X12974944Y-10899222D01*
X12974944Y-10899222D02*
X12984467Y-10918270D01*
X12984467Y-10918270D02*
X12984467Y-10965889D01*
X12984467Y-10965889D02*
X12974944Y-10984936D01*
X12974944Y-10984936D02*
X12965420Y-10994460D01*
X12965420Y-10994460D02*
X12946372Y-11003984D01*
X12946372Y-11003984D02*
X12898753Y-11003984D01*
X12898753Y-11003984D02*
X12879706Y-10994460D01*
X12879706Y-10994460D02*
X12870182Y-10984936D01*
X13051134Y-10803984D02*
X13184467Y-10803984D01*
X13184467Y-10803984D02*
X13098753Y-11003984D01*
X13251134Y-10803984D02*
X13251134Y-10842079D01*
X13327325Y-10803984D02*
X13327325Y-10842079D01*
X13622563Y-11080174D02*
X13613039Y-11070650D01*
X13613039Y-11070650D02*
X13593991Y-11042079D01*
X13593991Y-11042079D02*
X13584468Y-11023031D01*
X13584468Y-11023031D02*
X13574944Y-10994460D01*
X13574944Y-10994460D02*
X13565420Y-10946841D01*
X13565420Y-10946841D02*
X13565420Y-10908746D01*
X13565420Y-10908746D02*
X13574944Y-10861127D01*
X13574944Y-10861127D02*
X13584468Y-10832555D01*
X13584468Y-10832555D02*
X13593991Y-10813508D01*
X13593991Y-10813508D02*
X13613039Y-10784936D01*
X13613039Y-10784936D02*
X13622563Y-10775412D01*
X13708277Y-11003984D02*
X13746372Y-11003984D01*
X13746372Y-11003984D02*
X13765420Y-10994460D01*
X13765420Y-10994460D02*
X13774944Y-10984936D01*
X13774944Y-10984936D02*
X13793991Y-10956365D01*
X13793991Y-10956365D02*
X13803515Y-10918270D01*
X13803515Y-10918270D02*
X13803515Y-10842079D01*
X13803515Y-10842079D02*
X13793991Y-10823031D01*
X13793991Y-10823031D02*
X13784468Y-10813508D01*
X13784468Y-10813508D02*
X13765420Y-10803984D01*
X13765420Y-10803984D02*
X13727325Y-10803984D01*
X13727325Y-10803984D02*
X13708277Y-10813508D01*
X13708277Y-10813508D02*
X13698753Y-10823031D01*
X13698753Y-10823031D02*
X13689229Y-10842079D01*
X13689229Y-10842079D02*
X13689229Y-10889698D01*
X13689229Y-10889698D02*
X13698753Y-10908746D01*
X13698753Y-10908746D02*
X13708277Y-10918270D01*
X13708277Y-10918270D02*
X13727325Y-10927793D01*
X13727325Y-10927793D02*
X13765420Y-10927793D01*
X13765420Y-10927793D02*
X13784468Y-10918270D01*
X13784468Y-10918270D02*
X13793991Y-10908746D01*
X13793991Y-10908746D02*
X13803515Y-10889698D01*
X14041610Y-11003984D02*
X14041610Y-10803984D01*
X14127325Y-11003984D02*
X14127325Y-10899222D01*
X14127325Y-10899222D02*
X14117801Y-10880174D01*
X14117801Y-10880174D02*
X14098753Y-10870650D01*
X14098753Y-10870650D02*
X14070182Y-10870650D01*
X14070182Y-10870650D02*
X14051134Y-10880174D01*
X14051134Y-10880174D02*
X14041610Y-10889698D01*
X14251134Y-11003984D02*
X14232087Y-10994460D01*
X14232087Y-10994460D02*
X14222563Y-10984936D01*
X14222563Y-10984936D02*
X14213039Y-10965889D01*
X14213039Y-10965889D02*
X14213039Y-10908746D01*
X14213039Y-10908746D02*
X14222563Y-10889698D01*
X14222563Y-10889698D02*
X14232087Y-10880174D01*
X14232087Y-10880174D02*
X14251134Y-10870650D01*
X14251134Y-10870650D02*
X14279706Y-10870650D01*
X14279706Y-10870650D02*
X14298753Y-10880174D01*
X14298753Y-10880174D02*
X14308277Y-10889698D01*
X14308277Y-10889698D02*
X14317801Y-10908746D01*
X14317801Y-10908746D02*
X14317801Y-10965889D01*
X14317801Y-10965889D02*
X14308277Y-10984936D01*
X14308277Y-10984936D02*
X14298753Y-10994460D01*
X14298753Y-10994460D02*
X14279706Y-11003984D01*
X14279706Y-11003984D02*
X14251134Y-11003984D01*
X14432087Y-11003984D02*
X14413039Y-10994460D01*
X14413039Y-10994460D02*
X14403515Y-10975412D01*
X14403515Y-10975412D02*
X14403515Y-10803984D01*
X14584468Y-10994460D02*
X14565420Y-11003984D01*
X14565420Y-11003984D02*
X14527325Y-11003984D01*
X14527325Y-11003984D02*
X14508277Y-10994460D01*
X14508277Y-10994460D02*
X14498753Y-10975412D01*
X14498753Y-10975412D02*
X14498753Y-10899222D01*
X14498753Y-10899222D02*
X14508277Y-10880174D01*
X14508277Y-10880174D02*
X14527325Y-10870650D01*
X14527325Y-10870650D02*
X14565420Y-10870650D01*
X14565420Y-10870650D02*
X14584468Y-10880174D01*
X14584468Y-10880174D02*
X14593991Y-10899222D01*
X14593991Y-10899222D02*
X14593991Y-10918270D01*
X14593991Y-10918270D02*
X14498753Y-10937317D01*
X14670182Y-10994460D02*
X14689230Y-11003984D01*
X14689230Y-11003984D02*
X14727325Y-11003984D01*
X14727325Y-11003984D02*
X14746372Y-10994460D01*
X14746372Y-10994460D02*
X14755896Y-10975412D01*
X14755896Y-10975412D02*
X14755896Y-10965889D01*
X14755896Y-10965889D02*
X14746372Y-10946841D01*
X14746372Y-10946841D02*
X14727325Y-10937317D01*
X14727325Y-10937317D02*
X14698753Y-10937317D01*
X14698753Y-10937317D02*
X14679706Y-10927793D01*
X14679706Y-10927793D02*
X14670182Y-10908746D01*
X14670182Y-10908746D02*
X14670182Y-10899222D01*
X14670182Y-10899222D02*
X14679706Y-10880174D01*
X14679706Y-10880174D02*
X14698753Y-10870650D01*
X14698753Y-10870650D02*
X14727325Y-10870650D01*
X14727325Y-10870650D02*
X14746372Y-10880174D01*
X14822563Y-11080174D02*
X14832087Y-11070650D01*
X14832087Y-11070650D02*
X14851134Y-11042079D01*
X14851134Y-11042079D02*
X14860658Y-11023031D01*
X14860658Y-11023031D02*
X14870182Y-10994460D01*
X14870182Y-10994460D02*
X14879706Y-10946841D01*
X14879706Y-10946841D02*
X14879706Y-10908746D01*
X14879706Y-10908746D02*
X14870182Y-10861127D01*
X14870182Y-10861127D02*
X14860658Y-10832555D01*
X14860658Y-10832555D02*
X14851134Y-10813508D01*
X14851134Y-10813508D02*
X14832087Y-10784936D01*
X14832087Y-10784936D02*
X14822563Y-10775412D01*
X10047500Y-11176500D02*
G75*
G02*
X9847500Y-11176500I-100000J0D01*
G01*
X9847500Y-11176500D02*
G75*
G02*
X10047500Y-11176500I100000J0D01*
G01*
X10393991Y-11134650D02*
X10393991Y-11267984D01*
X10346372Y-11058460D02*
X10298753Y-11201317D01*
X10298753Y-11201317D02*
X10422563Y-11201317D01*
X10498753Y-11248936D02*
X10508277Y-11258460D01*
X10508277Y-11258460D02*
X10498753Y-11267984D01*
X10498753Y-11267984D02*
X10489229Y-11258460D01*
X10489229Y-11258460D02*
X10498753Y-11248936D01*
X10498753Y-11248936D02*
X10498753Y-11267984D01*
X10574944Y-11067984D02*
X10698753Y-11067984D01*
X10698753Y-11067984D02*
X10632086Y-11144174D01*
X10632086Y-11144174D02*
X10660658Y-11144174D01*
X10660658Y-11144174D02*
X10679705Y-11153698D01*
X10679705Y-11153698D02*
X10689229Y-11163222D01*
X10689229Y-11163222D02*
X10698753Y-11182270D01*
X10698753Y-11182270D02*
X10698753Y-11229888D01*
X10698753Y-11229888D02*
X10689229Y-11248936D01*
X10689229Y-11248936D02*
X10679705Y-11258460D01*
X10679705Y-11258460D02*
X10660658Y-11267984D01*
X10660658Y-11267984D02*
X10603515Y-11267984D01*
X10603515Y-11267984D02*
X10584467Y-11258460D01*
X10584467Y-11258460D02*
X10574944Y-11248936D01*
X10822563Y-11067984D02*
X10841610Y-11067984D01*
X10841610Y-11067984D02*
X10860658Y-11077508D01*
X10860658Y-11077508D02*
X10870182Y-11087031D01*
X10870182Y-11087031D02*
X10879705Y-11106079D01*
X10879705Y-11106079D02*
X10889229Y-11144174D01*
X10889229Y-11144174D02*
X10889229Y-11191793D01*
X10889229Y-11191793D02*
X10879705Y-11229888D01*
X10879705Y-11229888D02*
X10870182Y-11248936D01*
X10870182Y-11248936D02*
X10860658Y-11258460D01*
X10860658Y-11258460D02*
X10841610Y-11267984D01*
X10841610Y-11267984D02*
X10822563Y-11267984D01*
X10822563Y-11267984D02*
X10803515Y-11258460D01*
X10803515Y-11258460D02*
X10793991Y-11248936D01*
X10793991Y-11248936D02*
X10784467Y-11229888D01*
X10784467Y-11229888D02*
X10774944Y-11191793D01*
X10774944Y-11191793D02*
X10774944Y-11144174D01*
X10774944Y-11144174D02*
X10784467Y-11106079D01*
X10784467Y-11106079D02*
X10793991Y-11087031D01*
X10793991Y-11087031D02*
X10803515Y-11077508D01*
X10803515Y-11077508D02*
X10822563Y-11067984D01*
X11013039Y-11067984D02*
X11032086Y-11067984D01*
X11032086Y-11067984D02*
X11051134Y-11077508D01*
X11051134Y-11077508D02*
X11060658Y-11087031D01*
X11060658Y-11087031D02*
X11070182Y-11106079D01*
X11070182Y-11106079D02*
X11079705Y-11144174D01*
X11079705Y-11144174D02*
X11079705Y-11191793D01*
X11079705Y-11191793D02*
X11070182Y-11229888D01*
X11070182Y-11229888D02*
X11060658Y-11248936D01*
X11060658Y-11248936D02*
X11051134Y-11258460D01*
X11051134Y-11258460D02*
X11032086Y-11267984D01*
X11032086Y-11267984D02*
X11013039Y-11267984D01*
X11013039Y-11267984D02*
X10993991Y-11258460D01*
X10993991Y-11258460D02*
X10984467Y-11248936D01*
X10984467Y-11248936D02*
X10974944Y-11229888D01*
X10974944Y-11229888D02*
X10965420Y-11191793D01*
X10965420Y-11191793D02*
X10965420Y-11144174D01*
X10965420Y-11144174D02*
X10974944Y-11106079D01*
X10974944Y-11106079D02*
X10984467Y-11087031D01*
X10984467Y-11087031D02*
X10993991Y-11077508D01*
X10993991Y-11077508D02*
X11013039Y-11067984D01*
X11165420Y-11267984D02*
X11165420Y-11134650D01*
X11165420Y-11153698D02*
X11174944Y-11144174D01*
X11174944Y-11144174D02*
X11193991Y-11134650D01*
X11193991Y-11134650D02*
X11222563Y-11134650D01*
X11222563Y-11134650D02*
X11241610Y-11144174D01*
X11241610Y-11144174D02*
X11251134Y-11163222D01*
X11251134Y-11163222D02*
X11251134Y-11267984D01*
X11251134Y-11163222D02*
X11260658Y-11144174D01*
X11260658Y-11144174D02*
X11279705Y-11134650D01*
X11279705Y-11134650D02*
X11308277Y-11134650D01*
X11308277Y-11134650D02*
X11327324Y-11144174D01*
X11327324Y-11144174D02*
X11336848Y-11163222D01*
X11336848Y-11163222D02*
X11336848Y-11267984D01*
X11432086Y-11267984D02*
X11432086Y-11134650D01*
X11432086Y-11153698D02*
X11441610Y-11144174D01*
X11441610Y-11144174D02*
X11460658Y-11134650D01*
X11460658Y-11134650D02*
X11489229Y-11134650D01*
X11489229Y-11134650D02*
X11508277Y-11144174D01*
X11508277Y-11144174D02*
X11517801Y-11163222D01*
X11517801Y-11163222D02*
X11517801Y-11267984D01*
X11517801Y-11163222D02*
X11527324Y-11144174D01*
X11527324Y-11144174D02*
X11546372Y-11134650D01*
X11546372Y-11134650D02*
X11574943Y-11134650D01*
X11574943Y-11134650D02*
X11593991Y-11144174D01*
X11593991Y-11144174D02*
X11603515Y-11163222D01*
X11603515Y-11163222D02*
X11603515Y-11267984D01*
X11993991Y-11058460D02*
X11822563Y-11315603D01*
X12251134Y-11067984D02*
X12270182Y-11067984D01*
X12270182Y-11067984D02*
X12289229Y-11077508D01*
X12289229Y-11077508D02*
X12298753Y-11087031D01*
X12298753Y-11087031D02*
X12308277Y-11106079D01*
X12308277Y-11106079D02*
X12317801Y-11144174D01*
X12317801Y-11144174D02*
X12317801Y-11191793D01*
X12317801Y-11191793D02*
X12308277Y-11229888D01*
X12308277Y-11229888D02*
X12298753Y-11248936D01*
X12298753Y-11248936D02*
X12289229Y-11258460D01*
X12289229Y-11258460D02*
X12270182Y-11267984D01*
X12270182Y-11267984D02*
X12251134Y-11267984D01*
X12251134Y-11267984D02*
X12232086Y-11258460D01*
X12232086Y-11258460D02*
X12222563Y-11248936D01*
X12222563Y-11248936D02*
X12213039Y-11229888D01*
X12213039Y-11229888D02*
X12203515Y-11191793D01*
X12203515Y-11191793D02*
X12203515Y-11144174D01*
X12203515Y-11144174D02*
X12213039Y-11106079D01*
X12213039Y-11106079D02*
X12222563Y-11087031D01*
X12222563Y-11087031D02*
X12232086Y-11077508D01*
X12232086Y-11077508D02*
X12251134Y-11067984D01*
X12403515Y-11248936D02*
X12413039Y-11258460D01*
X12413039Y-11258460D02*
X12403515Y-11267984D01*
X12403515Y-11267984D02*
X12393991Y-11258460D01*
X12393991Y-11258460D02*
X12403515Y-11248936D01*
X12403515Y-11248936D02*
X12403515Y-11267984D01*
X12603515Y-11267984D02*
X12489229Y-11267984D01*
X12546372Y-11267984D02*
X12546372Y-11067984D01*
X12546372Y-11067984D02*
X12527325Y-11096555D01*
X12527325Y-11096555D02*
X12508277Y-11115603D01*
X12508277Y-11115603D02*
X12489229Y-11125127D01*
X12774944Y-11067984D02*
X12736848Y-11067984D01*
X12736848Y-11067984D02*
X12717801Y-11077508D01*
X12717801Y-11077508D02*
X12708277Y-11087031D01*
X12708277Y-11087031D02*
X12689229Y-11115603D01*
X12689229Y-11115603D02*
X12679706Y-11153698D01*
X12679706Y-11153698D02*
X12679706Y-11229888D01*
X12679706Y-11229888D02*
X12689229Y-11248936D01*
X12689229Y-11248936D02*
X12698753Y-11258460D01*
X12698753Y-11258460D02*
X12717801Y-11267984D01*
X12717801Y-11267984D02*
X12755896Y-11267984D01*
X12755896Y-11267984D02*
X12774944Y-11258460D01*
X12774944Y-11258460D02*
X12784467Y-11248936D01*
X12784467Y-11248936D02*
X12793991Y-11229888D01*
X12793991Y-11229888D02*
X12793991Y-11182270D01*
X12793991Y-11182270D02*
X12784467Y-11163222D01*
X12784467Y-11163222D02*
X12774944Y-11153698D01*
X12774944Y-11153698D02*
X12755896Y-11144174D01*
X12755896Y-11144174D02*
X12717801Y-11144174D01*
X12717801Y-11144174D02*
X12698753Y-11153698D01*
X12698753Y-11153698D02*
X12689229Y-11163222D01*
X12689229Y-11163222D02*
X12679706Y-11182270D01*
X12889229Y-11267984D02*
X12927325Y-11267984D01*
X12927325Y-11267984D02*
X12946372Y-11258460D01*
X12946372Y-11258460D02*
X12955896Y-11248936D01*
X12955896Y-11248936D02*
X12974944Y-11220365D01*
X12974944Y-11220365D02*
X12984467Y-11182270D01*
X12984467Y-11182270D02*
X12984467Y-11106079D01*
X12984467Y-11106079D02*
X12974944Y-11087031D01*
X12974944Y-11087031D02*
X12965420Y-11077508D01*
X12965420Y-11077508D02*
X12946372Y-11067984D01*
X12946372Y-11067984D02*
X12908277Y-11067984D01*
X12908277Y-11067984D02*
X12889229Y-11077508D01*
X12889229Y-11077508D02*
X12879706Y-11087031D01*
X12879706Y-11087031D02*
X12870182Y-11106079D01*
X12870182Y-11106079D02*
X12870182Y-11153698D01*
X12870182Y-11153698D02*
X12879706Y-11172746D01*
X12879706Y-11172746D02*
X12889229Y-11182270D01*
X12889229Y-11182270D02*
X12908277Y-11191793D01*
X12908277Y-11191793D02*
X12946372Y-11191793D01*
X12946372Y-11191793D02*
X12965420Y-11182270D01*
X12965420Y-11182270D02*
X12974944Y-11172746D01*
X12974944Y-11172746D02*
X12984467Y-11153698D01*
X13051134Y-11067984D02*
X13174944Y-11067984D01*
X13174944Y-11067984D02*
X13108277Y-11144174D01*
X13108277Y-11144174D02*
X13136848Y-11144174D01*
X13136848Y-11144174D02*
X13155896Y-11153698D01*
X13155896Y-11153698D02*
X13165420Y-11163222D01*
X13165420Y-11163222D02*
X13174944Y-11182270D01*
X13174944Y-11182270D02*
X13174944Y-11229888D01*
X13174944Y-11229888D02*
X13165420Y-11248936D01*
X13165420Y-11248936D02*
X13155896Y-11258460D01*
X13155896Y-11258460D02*
X13136848Y-11267984D01*
X13136848Y-11267984D02*
X13079706Y-11267984D01*
X13079706Y-11267984D02*
X13060658Y-11258460D01*
X13060658Y-11258460D02*
X13051134Y-11248936D01*
X13251134Y-11067984D02*
X13251134Y-11106079D01*
X13327325Y-11067984D02*
X13327325Y-11106079D01*
X13622563Y-11344174D02*
X13613039Y-11334650D01*
X13613039Y-11334650D02*
X13593991Y-11306079D01*
X13593991Y-11306079D02*
X13584468Y-11287031D01*
X13584468Y-11287031D02*
X13574944Y-11258460D01*
X13574944Y-11258460D02*
X13565420Y-11210841D01*
X13565420Y-11210841D02*
X13565420Y-11172746D01*
X13565420Y-11172746D02*
X13574944Y-11125127D01*
X13574944Y-11125127D02*
X13584468Y-11096555D01*
X13584468Y-11096555D02*
X13593991Y-11077508D01*
X13593991Y-11077508D02*
X13613039Y-11048936D01*
X13613039Y-11048936D02*
X13622563Y-11039412D01*
X13784468Y-11134650D02*
X13784468Y-11267984D01*
X13736848Y-11058460D02*
X13689229Y-11201317D01*
X13689229Y-11201317D02*
X13813039Y-11201317D01*
X14041610Y-11267984D02*
X14041610Y-11067984D01*
X14127325Y-11267984D02*
X14127325Y-11163222D01*
X14127325Y-11163222D02*
X14117801Y-11144174D01*
X14117801Y-11144174D02*
X14098753Y-11134650D01*
X14098753Y-11134650D02*
X14070182Y-11134650D01*
X14070182Y-11134650D02*
X14051134Y-11144174D01*
X14051134Y-11144174D02*
X14041610Y-11153698D01*
X14251134Y-11267984D02*
X14232087Y-11258460D01*
X14232087Y-11258460D02*
X14222563Y-11248936D01*
X14222563Y-11248936D02*
X14213039Y-11229888D01*
X14213039Y-11229888D02*
X14213039Y-11172746D01*
X14213039Y-11172746D02*
X14222563Y-11153698D01*
X14222563Y-11153698D02*
X14232087Y-11144174D01*
X14232087Y-11144174D02*
X14251134Y-11134650D01*
X14251134Y-11134650D02*
X14279706Y-11134650D01*
X14279706Y-11134650D02*
X14298753Y-11144174D01*
X14298753Y-11144174D02*
X14308277Y-11153698D01*
X14308277Y-11153698D02*
X14317801Y-11172746D01*
X14317801Y-11172746D02*
X14317801Y-11229888D01*
X14317801Y-11229888D02*
X14308277Y-11248936D01*
X14308277Y-11248936D02*
X14298753Y-11258460D01*
X14298753Y-11258460D02*
X14279706Y-11267984D01*
X14279706Y-11267984D02*
X14251134Y-11267984D01*
X14432087Y-11267984D02*
X14413039Y-11258460D01*
X14413039Y-11258460D02*
X14403515Y-11239412D01*
X14403515Y-11239412D02*
X14403515Y-11067984D01*
X14584468Y-11258460D02*
X14565420Y-11267984D01*
X14565420Y-11267984D02*
X14527325Y-11267984D01*
X14527325Y-11267984D02*
X14508277Y-11258460D01*
X14508277Y-11258460D02*
X14498753Y-11239412D01*
X14498753Y-11239412D02*
X14498753Y-11163222D01*
X14498753Y-11163222D02*
X14508277Y-11144174D01*
X14508277Y-11144174D02*
X14527325Y-11134650D01*
X14527325Y-11134650D02*
X14565420Y-11134650D01*
X14565420Y-11134650D02*
X14584468Y-11144174D01*
X14584468Y-11144174D02*
X14593991Y-11163222D01*
X14593991Y-11163222D02*
X14593991Y-11182270D01*
X14593991Y-11182270D02*
X14498753Y-11201317D01*
X14670182Y-11258460D02*
X14689230Y-11267984D01*
X14689230Y-11267984D02*
X14727325Y-11267984D01*
X14727325Y-11267984D02*
X14746372Y-11258460D01*
X14746372Y-11258460D02*
X14755896Y-11239412D01*
X14755896Y-11239412D02*
X14755896Y-11229888D01*
X14755896Y-11229888D02*
X14746372Y-11210841D01*
X14746372Y-11210841D02*
X14727325Y-11201317D01*
X14727325Y-11201317D02*
X14698753Y-11201317D01*
X14698753Y-11201317D02*
X14679706Y-11191793D01*
X14679706Y-11191793D02*
X14670182Y-11172746D01*
X14670182Y-11172746D02*
X14670182Y-11163222D01*
X14670182Y-11163222D02*
X14679706Y-11144174D01*
X14679706Y-11144174D02*
X14698753Y-11134650D01*
X14698753Y-11134650D02*
X14727325Y-11134650D01*
X14727325Y-11134650D02*
X14746372Y-11144174D01*
X14822563Y-11344174D02*
X14832087Y-11334650D01*
X14832087Y-11334650D02*
X14851134Y-11306079D01*
X14851134Y-11306079D02*
X14860658Y-11287031D01*
X14860658Y-11287031D02*
X14870182Y-11258460D01*
X14870182Y-11258460D02*
X14879706Y-11210841D01*
X14879706Y-11210841D02*
X14879706Y-11172746D01*
X14879706Y-11172746D02*
X14870182Y-11125127D01*
X14870182Y-11125127D02*
X14860658Y-11096555D01*
X14860658Y-11096555D02*
X14851134Y-11077508D01*
X14851134Y-11077508D02*
X14832087Y-11048936D01*
X14832087Y-11048936D02*
X14822563Y-11039412D01*
M02*
