ISO-10303-21;
HEADER;
/* Generated by software containing ST-Developer
 * from STEP Tools, Inc. (www.steptools.com) 
 */
/* OPTION: using custom renumber hook */

FILE_DESCRIPTION(
/* description */ ('STEP AP242',
'CAx-IF Rec.Pracs.---Representation and Presentation of Product Manufa
cturing Information (PMI)---4.0---2014-10-13',
'CAx-IF Rec.Pracs.---3D Tessellated Geometry---0.4---2014-09-14','2;1'),

/* implementation_level */ '2;1');

FILE_NAME(
/* name */ 'DW-01-09-T-S-450',
/* time_stamp */ '2025-12-01T20:46:50+01:00',
/* author */ ('License CC BY-ND 4.0'),
/* organization */ ('CADENAS'),
/* preprocessor_version */ 'ST-DEVELOPER v20',
/* originating_system */ 'PARTsolutions',
/* authorisation */ '  ');

FILE_SCHEMA (('AP242_MANAGED_MODEL_BASED_3D_ENGINEERING_MIM_LF { 1 0 10303 442 1 1 4 }'));
ENDSEC;

DATA;
#10=DRAUGHTING_PRE_DEFINED_COLOUR('yellow');
#11=CONTEXT_DEPENDENT_SHAPE_REPRESENTATION(#17,#1402);
#12=CONTEXT_DEPENDENT_SHAPE_REPRESENTATION(#18,#1404);
#13=CONTEXT_DEPENDENT_SHAPE_REPRESENTATION(#19,#1406);
#14=NEXT_ASSEMBLY_USAGE_OCCURRENCE('NAUO1','ZW-01-09-G-S-450-110bbody',
'ZW-01-09-G-S-450-110bbody',#1407,#1408,'');
#15=NEXT_ASSEMBLY_USAGE_OCCURRENCE('NAUO2','ZW-01-09-G-S-450-110_pins',
'ZW-01-09-G-S-450-110_pins',#1407,#1409,'');
#16=NEXT_ASSEMBLY_USAGE_OCCURRENCE('NAUO3',
'ZW-01-09-G-S-450-110_top_body','ZW-01-09-G-S-450-110_top_body',#1407,#1410,
'');
#17=(
REPRESENTATION_RELATIONSHIP(' ',' ',#886,#885)
REPRESENTATION_RELATIONSHIP_WITH_TRANSFORMATION(#20)
SHAPE_REPRESENTATION_RELATIONSHIP()
);
#18=(
REPRESENTATION_RELATIONSHIP(' ',' ',#887,#885)
REPRESENTATION_RELATIONSHIP_WITH_TRANSFORMATION(#21)
SHAPE_REPRESENTATION_RELATIONSHIP()
);
#19=(
REPRESENTATION_RELATIONSHIP(' ',' ',#888,#885)
REPRESENTATION_RELATIONSHIP_WITH_TRANSFORMATION(#22)
SHAPE_REPRESENTATION_RELATIONSHIP()
);
#20=ITEM_DEFINED_TRANSFORMATION(' ',' ',#889,#904);
#21=ITEM_DEFINED_TRANSFORMATION(' ',' ',#889,#923);
#22=ITEM_DEFINED_TRANSFORMATION(' ',' ',#889,#938);
#23=SHAPE_REPRESENTATION_RELATIONSHIP('','',#886,#26);
#24=SHAPE_REPRESENTATION_RELATIONSHIP('','',#887,#27);
#25=SHAPE_REPRESENTATION_RELATIONSHIP('','',#888,#28);
#26=ADVANCED_BREP_SHAPE_REPRESENTATION('',(#878),#1387);
#27=ADVANCED_BREP_SHAPE_REPRESENTATION('',(#879),#1388);
#28=ADVANCED_BREP_SHAPE_REPRESENTATION('',(#880),#1389);
#29=ORIENTED_EDGE('',*,*,#253,.F.);
#30=ORIENTED_EDGE('',*,*,#254,.T.);
#31=ORIENTED_EDGE('',*,*,#255,.F.);
#32=ORIENTED_EDGE('',*,*,#256,.F.);
#33=ORIENTED_EDGE('',*,*,#257,.T.);
#34=ORIENTED_EDGE('',*,*,#258,.T.);
#35=ORIENTED_EDGE('',*,*,#253,.T.);
#36=ORIENTED_EDGE('',*,*,#259,.F.);
#37=ORIENTED_EDGE('',*,*,#260,.F.);
#38=ORIENTED_EDGE('',*,*,#261,.T.);
#39=ORIENTED_EDGE('',*,*,#262,.T.);
#40=ORIENTED_EDGE('',*,*,#263,.T.);
#41=ORIENTED_EDGE('',*,*,#256,.T.);
#42=ORIENTED_EDGE('',*,*,#264,.F.);
#43=ORIENTED_EDGE('',*,*,#265,.F.);
#44=ORIENTED_EDGE('',*,*,#259,.T.);
#45=ORIENTED_EDGE('',*,*,#255,.T.);
#46=ORIENTED_EDGE('',*,*,#266,.F.);
#47=ORIENTED_EDGE('',*,*,#267,.F.);
#48=ORIENTED_EDGE('',*,*,#268,.F.);
#49=ORIENTED_EDGE('',*,*,#269,.T.);
#50=ORIENTED_EDGE('',*,*,#270,.F.);
#51=ORIENTED_EDGE('',*,*,#271,.F.);
#52=ORIENTED_EDGE('',*,*,#264,.T.);
#53=ORIENTED_EDGE('',*,*,#272,.F.);
#54=ORIENTED_EDGE('',*,*,#273,.F.);
#55=ORIENTED_EDGE('',*,*,#274,.T.);
#56=ORIENTED_EDGE('',*,*,#275,.T.);
#57=ORIENTED_EDGE('',*,*,#276,.F.);
#58=ORIENTED_EDGE('',*,*,#277,.F.);
#59=ORIENTED_EDGE('',*,*,#278,.T.);
#60=ORIENTED_EDGE('',*,*,#273,.T.);
#61=ORIENTED_EDGE('',*,*,#279,.F.);
#62=ORIENTED_EDGE('',*,*,#280,.F.);
#63=ORIENTED_EDGE('',*,*,#281,.T.);
#64=ORIENTED_EDGE('',*,*,#277,.T.);
#65=ORIENTED_EDGE('',*,*,#282,.F.);
#66=ORIENTED_EDGE('',*,*,#275,.F.);
#67=ORIENTED_EDGE('',*,*,#283,.T.);
#68=ORIENTED_EDGE('',*,*,#280,.T.);
#69=ORIENTED_EDGE('',*,*,#284,.T.);
#70=ORIENTED_EDGE('',*,*,#261,.F.);
#71=ORIENTED_EDGE('',*,*,#285,.F.);
#72=ORIENTED_EDGE('',*,*,#270,.T.);
#73=ORIENTED_EDGE('',*,*,#274,.F.);
#74=ORIENTED_EDGE('',*,*,#278,.F.);
#75=ORIENTED_EDGE('',*,*,#281,.F.);
#76=ORIENTED_EDGE('',*,*,#283,.F.);
#77=ORIENTED_EDGE('',*,*,#260,.T.);
#78=ORIENTED_EDGE('',*,*,#265,.T.);
#79=ORIENTED_EDGE('',*,*,#271,.T.);
#80=ORIENTED_EDGE('',*,*,#285,.T.);
#81=ORIENTED_EDGE('',*,*,#269,.F.);
#82=ORIENTED_EDGE('',*,*,#286,.F.);
#83=ORIENTED_EDGE('',*,*,#262,.F.);
#84=ORIENTED_EDGE('',*,*,#284,.F.);
#85=ORIENTED_EDGE('',*,*,#266,.T.);
#86=ORIENTED_EDGE('',*,*,#254,.F.);
#87=ORIENTED_EDGE('',*,*,#258,.F.);
#88=ORIENTED_EDGE('',*,*,#287,.T.);
#89=ORIENTED_EDGE('',*,*,#268,.T.);
#90=ORIENTED_EDGE('',*,*,#288,.F.);
#91=ORIENTED_EDGE('',*,*,#263,.F.);
#92=ORIENTED_EDGE('',*,*,#286,.T.);
#93=ORIENTED_EDGE('',*,*,#272,.T.);
#94=ORIENTED_EDGE('',*,*,#282,.T.);
#95=ORIENTED_EDGE('',*,*,#279,.T.);
#96=ORIENTED_EDGE('',*,*,#276,.T.);
#97=ORIENTED_EDGE('',*,*,#267,.T.);
#98=ORIENTED_EDGE('',*,*,#287,.F.);
#99=ORIENTED_EDGE('',*,*,#257,.F.);
#100=ORIENTED_EDGE('',*,*,#288,.T.);
#101=ORIENTED_EDGE('',*,*,#289,.F.);
#102=ORIENTED_EDGE('',*,*,#290,.F.);
#103=ORIENTED_EDGE('',*,*,#291,.T.);
#104=ORIENTED_EDGE('',*,*,#292,.T.);
#105=ORIENTED_EDGE('',*,*,#293,.F.);
#106=ORIENTED_EDGE('',*,*,#292,.F.);
#107=ORIENTED_EDGE('',*,*,#294,.F.);
#108=ORIENTED_EDGE('',*,*,#295,.T.);
#109=ORIENTED_EDGE('',*,*,#296,.F.);
#110=ORIENTED_EDGE('',*,*,#295,.F.);
#111=ORIENTED_EDGE('',*,*,#297,.T.);
#112=ORIENTED_EDGE('',*,*,#298,.T.);
#113=ORIENTED_EDGE('',*,*,#299,.F.);
#114=ORIENTED_EDGE('',*,*,#298,.F.);
#115=ORIENTED_EDGE('',*,*,#300,.F.);
#116=ORIENTED_EDGE('',*,*,#301,.T.);
#117=ORIENTED_EDGE('',*,*,#302,.F.);
#118=ORIENTED_EDGE('',*,*,#301,.F.);
#119=ORIENTED_EDGE('',*,*,#303,.T.);
#120=ORIENTED_EDGE('',*,*,#304,.T.);
#121=ORIENTED_EDGE('',*,*,#305,.F.);
#122=ORIENTED_EDGE('',*,*,#304,.F.);
#123=ORIENTED_EDGE('',*,*,#306,.T.);
#124=ORIENTED_EDGE('',*,*,#307,.T.);
#125=ORIENTED_EDGE('',*,*,#308,.F.);
#126=ORIENTED_EDGE('',*,*,#307,.F.);
#127=ORIENTED_EDGE('',*,*,#309,.T.);
#128=ORIENTED_EDGE('',*,*,#310,.T.);
#129=ORIENTED_EDGE('',*,*,#311,.F.);
#130=ORIENTED_EDGE('',*,*,#310,.F.);
#131=ORIENTED_EDGE('',*,*,#312,.T.);
#132=ORIENTED_EDGE('',*,*,#313,.T.);
#133=ORIENTED_EDGE('',*,*,#314,.F.);
#134=ORIENTED_EDGE('',*,*,#313,.F.);
#135=ORIENTED_EDGE('',*,*,#315,.T.);
#136=ORIENTED_EDGE('',*,*,#316,.T.);
#137=ORIENTED_EDGE('',*,*,#317,.F.);
#138=ORIENTED_EDGE('',*,*,#318,.T.);
#139=ORIENTED_EDGE('',*,*,#319,.F.);
#140=ORIENTED_EDGE('',*,*,#316,.F.);
#141=ORIENTED_EDGE('',*,*,#320,.F.);
#142=ORIENTED_EDGE('',*,*,#321,.T.);
#143=ORIENTED_EDGE('',*,*,#322,.T.);
#144=ORIENTED_EDGE('',*,*,#318,.F.);
#145=ORIENTED_EDGE('',*,*,#323,.F.);
#146=ORIENTED_EDGE('',*,*,#290,.T.);
#147=ORIENTED_EDGE('',*,*,#324,.F.);
#148=ORIENTED_EDGE('',*,*,#321,.F.);
#149=ORIENTED_EDGE('',*,*,#291,.F.);
#150=ORIENTED_EDGE('',*,*,#325,.T.);
#151=ORIENTED_EDGE('',*,*,#315,.F.);
#152=ORIENTED_EDGE('',*,*,#312,.F.);
#153=ORIENTED_EDGE('',*,*,#309,.F.);
#154=ORIENTED_EDGE('',*,*,#306,.F.);
#155=ORIENTED_EDGE('',*,*,#303,.F.);
#156=ORIENTED_EDGE('',*,*,#326,.T.);
#157=ORIENTED_EDGE('',*,*,#311,.T.);
#158=ORIENTED_EDGE('',*,*,#314,.T.);
#159=ORIENTED_EDGE('',*,*,#327,.F.);
#160=ORIENTED_EDGE('',*,*,#289,.T.);
#161=ORIENTED_EDGE('',*,*,#328,.F.);
#162=ORIENTED_EDGE('',*,*,#302,.T.);
#163=ORIENTED_EDGE('',*,*,#305,.T.);
#164=ORIENTED_EDGE('',*,*,#308,.T.);
#165=ORIENTED_EDGE('',*,*,#293,.T.);
#166=ORIENTED_EDGE('',*,*,#296,.T.);
#167=ORIENTED_EDGE('',*,*,#299,.T.);
#168=ORIENTED_EDGE('',*,*,#328,.T.);
#169=ORIENTED_EDGE('',*,*,#319,.T.);
#170=ORIENTED_EDGE('',*,*,#322,.F.);
#171=ORIENTED_EDGE('',*,*,#324,.T.);
#172=ORIENTED_EDGE('',*,*,#327,.T.);
#173=ORIENTED_EDGE('',*,*,#294,.T.);
#174=ORIENTED_EDGE('',*,*,#326,.F.);
#175=ORIENTED_EDGE('',*,*,#300,.T.);
#176=ORIENTED_EDGE('',*,*,#297,.F.);
#177=ORIENTED_EDGE('',*,*,#317,.T.);
#178=ORIENTED_EDGE('',*,*,#325,.F.);
#179=ORIENTED_EDGE('',*,*,#323,.T.);
#180=ORIENTED_EDGE('',*,*,#320,.T.);
#181=ORIENTED_EDGE('',*,*,#329,.F.);
#182=ORIENTED_EDGE('',*,*,#330,.T.);
#183=ORIENTED_EDGE('',*,*,#331,.T.);
#184=ORIENTED_EDGE('',*,*,#332,.T.);
#185=ORIENTED_EDGE('',*,*,#333,.T.);
#186=ORIENTED_EDGE('',*,*,#334,.T.);
#187=ORIENTED_EDGE('',*,*,#335,.T.);
#188=ORIENTED_EDGE('',*,*,#336,.F.);
#189=ORIENTED_EDGE('',*,*,#337,.F.);
#190=ORIENTED_EDGE('',*,*,#338,.T.);
#191=ORIENTED_EDGE('',*,*,#339,.T.);
#192=ORIENTED_EDGE('',*,*,#330,.F.);
#193=ORIENTED_EDGE('',*,*,#331,.F.);
#194=ORIENTED_EDGE('',*,*,#339,.F.);
#195=ORIENTED_EDGE('',*,*,#340,.T.);
#196=ORIENTED_EDGE('',*,*,#341,.T.);
#197=ORIENTED_EDGE('',*,*,#342,.F.);
#198=ORIENTED_EDGE('',*,*,#332,.F.);
#199=ORIENTED_EDGE('',*,*,#341,.F.);
#200=ORIENTED_EDGE('',*,*,#343,.T.);
#201=ORIENTED_EDGE('',*,*,#344,.T.);
#202=ORIENTED_EDGE('',*,*,#345,.F.);
#203=ORIENTED_EDGE('',*,*,#346,.F.);
#204=ORIENTED_EDGE('',*,*,#347,.F.);
#205=ORIENTED_EDGE('',*,*,#348,.T.);
#206=ORIENTED_EDGE('',*,*,#349,.T.);
#207=ORIENTED_EDGE('',*,*,#350,.F.);
#208=ORIENTED_EDGE('',*,*,#351,.F.);
#209=ORIENTED_EDGE('',*,*,#352,.T.);
#210=ORIENTED_EDGE('',*,*,#353,.T.);
#211=ORIENTED_EDGE('',*,*,#348,.F.);
#212=ORIENTED_EDGE('',*,*,#354,.F.);
#213=ORIENTED_EDGE('',*,*,#355,.T.);
#214=ORIENTED_EDGE('',*,*,#356,.T.);
#215=ORIENTED_EDGE('',*,*,#352,.F.);
#216=ORIENTED_EDGE('',*,*,#357,.F.);
#217=ORIENTED_EDGE('',*,*,#350,.T.);
#218=ORIENTED_EDGE('',*,*,#358,.T.);
#219=ORIENTED_EDGE('',*,*,#355,.F.);
#220=ORIENTED_EDGE('',*,*,#359,.F.);
#221=ORIENTED_EDGE('',*,*,#360,.F.);
#222=ORIENTED_EDGE('',*,*,#344,.F.);
#223=ORIENTED_EDGE('',*,*,#361,.T.);
#224=ORIENTED_EDGE('',*,*,#337,.T.);
#225=ORIENTED_EDGE('',*,*,#351,.T.);
#226=ORIENTED_EDGE('',*,*,#359,.T.);
#227=ORIENTED_EDGE('',*,*,#357,.T.);
#228=ORIENTED_EDGE('',*,*,#354,.T.);
#229=ORIENTED_EDGE('',*,*,#338,.F.);
#230=ORIENTED_EDGE('',*,*,#361,.F.);
#231=ORIENTED_EDGE('',*,*,#343,.F.);
#232=ORIENTED_EDGE('',*,*,#340,.F.);
#233=ORIENTED_EDGE('',*,*,#362,.T.);
#234=ORIENTED_EDGE('',*,*,#345,.T.);
#235=ORIENTED_EDGE('',*,*,#360,.T.);
#236=ORIENTED_EDGE('',*,*,#336,.T.);
#237=ORIENTED_EDGE('',*,*,#347,.T.);
#238=ORIENTED_EDGE('',*,*,#363,.F.);
#239=ORIENTED_EDGE('',*,*,#334,.F.);
#240=ORIENTED_EDGE('',*,*,#364,.T.);
#241=ORIENTED_EDGE('',*,*,#353,.F.);
#242=ORIENTED_EDGE('',*,*,#356,.F.);
#243=ORIENTED_EDGE('',*,*,#358,.F.);
#244=ORIENTED_EDGE('',*,*,#349,.F.);
#245=ORIENTED_EDGE('',*,*,#342,.T.);
#246=ORIENTED_EDGE('',*,*,#364,.F.);
#247=ORIENTED_EDGE('',*,*,#333,.F.);
#248=ORIENTED_EDGE('',*,*,#329,.T.);
#249=ORIENTED_EDGE('',*,*,#346,.T.);
#250=ORIENTED_EDGE('',*,*,#362,.F.);
#251=ORIENTED_EDGE('',*,*,#335,.F.);
#252=ORIENTED_EDGE('',*,*,#363,.T.);
#253=EDGE_CURVE('',#365,#366,#437,.T.);
#254=EDGE_CURVE('',#365,#367,#438,.T.);
#255=EDGE_CURVE('',#368,#367,#439,.T.);
#256=EDGE_CURVE('',#366,#368,#440,.T.);
#257=EDGE_CURVE('',#369,#370,#441,.T.);
#258=EDGE_CURVE('',#370,#365,#442,.T.);
#259=EDGE_CURVE('',#371,#366,#443,.T.);
#260=EDGE_CURVE('',#372,#371,#444,.T.);
#261=EDGE_CURVE('',#372,#373,#445,.T.);
#262=EDGE_CURVE('',#373,#374,#446,.T.);
#263=EDGE_CURVE('',#374,#369,#447,.T.);
#264=EDGE_CURVE('',#375,#368,#448,.T.);
#265=EDGE_CURVE('',#371,#375,#449,.T.);
#266=EDGE_CURVE('',#376,#367,#450,.T.);
#267=EDGE_CURVE('',#377,#376,#451,.T.);
#268=EDGE_CURVE('',#378,#377,#452,.T.);
#269=EDGE_CURVE('',#378,#379,#453,.T.);
#270=EDGE_CURVE('',#380,#379,#454,.T.);
#271=EDGE_CURVE('',#375,#380,#455,.T.);
#272=EDGE_CURVE('',#381,#382,#456,.T.);
#273=EDGE_CURVE('',#383,#381,#457,.T.);
#274=EDGE_CURVE('',#383,#384,#458,.T.);
#275=EDGE_CURVE('',#384,#382,#459,.T.);
#276=EDGE_CURVE('',#385,#381,#460,.T.);
#277=EDGE_CURVE('',#386,#385,#461,.T.);
#278=EDGE_CURVE('',#386,#383,#462,.T.);
#279=EDGE_CURVE('',#387,#385,#463,.T.);
#280=EDGE_CURVE('',#388,#387,#464,.T.);
#281=EDGE_CURVE('',#388,#386,#465,.T.);
#282=EDGE_CURVE('',#382,#387,#466,.T.);
#283=EDGE_CURVE('',#384,#388,#467,.T.);
#284=EDGE_CURVE('',#379,#373,#468,.T.);
#285=EDGE_CURVE('',#380,#372,#469,.T.);
#286=EDGE_CURVE('',#374,#378,#470,.T.);
#287=EDGE_CURVE('',#370,#376,#471,.T.);
#288=EDGE_CURVE('',#369,#377,#472,.T.);
#289=EDGE_CURVE('',#389,#390,#473,.T.);
#290=EDGE_CURVE('',#391,#389,#474,.T.);
#291=EDGE_CURVE('',#391,#392,#475,.T.);
#292=EDGE_CURVE('',#392,#390,#476,.T.);
#293=EDGE_CURVE('',#390,#393,#477,.T.);
#294=EDGE_CURVE('',#394,#392,#478,.T.);
#295=EDGE_CURVE('',#394,#393,#479,.T.);
#296=EDGE_CURVE('',#393,#395,#480,.T.);
#297=EDGE_CURVE('',#394,#396,#481,.T.);
#298=EDGE_CURVE('',#396,#395,#482,.T.);
#299=EDGE_CURVE('',#395,#397,#483,.T.);
#300=EDGE_CURVE('',#398,#396,#484,.T.);
#301=EDGE_CURVE('',#398,#397,#485,.T.);
#302=EDGE_CURVE('',#397,#399,#486,.T.);
#303=EDGE_CURVE('',#398,#400,#487,.T.);
#304=EDGE_CURVE('',#400,#399,#488,.T.);
#305=EDGE_CURVE('',#399,#401,#489,.T.);
#306=EDGE_CURVE('',#400,#402,#490,.T.);
#307=EDGE_CURVE('',#402,#401,#491,.T.);
#308=EDGE_CURVE('',#401,#403,#492,.T.);
#309=EDGE_CURVE('',#402,#404,#493,.T.);
#310=EDGE_CURVE('',#404,#403,#494,.T.);
#311=EDGE_CURVE('',#403,#405,#495,.T.);
#312=EDGE_CURVE('',#404,#406,#496,.T.);
#313=EDGE_CURVE('',#406,#405,#497,.T.);
#314=EDGE_CURVE('',#405,#407,#498,.T.);
#315=EDGE_CURVE('',#406,#408,#499,.T.);
#316=EDGE_CURVE('',#408,#407,#500,.T.);
#317=EDGE_CURVE('',#409,#408,#501,.T.);
#318=EDGE_CURVE('',#409,#410,#502,.T.);
#319=EDGE_CURVE('',#407,#410,#503,.T.);
#320=EDGE_CURVE('',#411,#409,#504,.T.);
#321=EDGE_CURVE('',#411,#412,#505,.T.);
#322=EDGE_CURVE('',#412,#410,#506,.T.);
#323=EDGE_CURVE('',#391,#411,#507,.T.);
#324=EDGE_CURVE('',#412,#389,#508,.T.);
#325=EDGE_CURVE('',#391,#408,#509,.T.);
#326=EDGE_CURVE('',#398,#392,#510,.T.);
#327=EDGE_CURVE('',#389,#407,#511,.T.);
#328=EDGE_CURVE('',#397,#390,#512,.T.);
#329=EDGE_CURVE('',#413,#414,#513,.T.);
#330=EDGE_CURVE('',#413,#415,#514,.T.);
#331=EDGE_CURVE('',#415,#416,#515,.T.);
#332=EDGE_CURVE('',#416,#414,#516,.T.);
#333=EDGE_CURVE('',#413,#417,#517,.T.);
#334=EDGE_CURVE('',#417,#418,#518,.T.);
#335=EDGE_CURVE('',#418,#419,#519,.T.);
#336=EDGE_CURVE('',#420,#419,#520,.T.);
#337=EDGE_CURVE('',#421,#420,#521,.T.);
#338=EDGE_CURVE('',#421,#422,#522,.T.);
#339=EDGE_CURVE('',#422,#415,#523,.T.);
#340=EDGE_CURVE('',#422,#423,#524,.T.);
#341=EDGE_CURVE('',#423,#416,#525,.T.);
#342=EDGE_CURVE('',#414,#424,#526,.T.);
#343=EDGE_CURVE('',#423,#425,#527,.T.);
#344=EDGE_CURVE('',#425,#426,#528,.T.);
#345=EDGE_CURVE('',#427,#426,#529,.T.);
#346=EDGE_CURVE('',#428,#427,#530,.T.);
#347=EDGE_CURVE('',#424,#428,#531,.T.);
#348=EDGE_CURVE('',#429,#430,#532,.T.);
#349=EDGE_CURVE('',#430,#431,#533,.T.);
#350=EDGE_CURVE('',#432,#431,#534,.T.);
#351=EDGE_CURVE('',#429,#432,#535,.T.);
#352=EDGE_CURVE('',#433,#434,#536,.T.);
#353=EDGE_CURVE('',#434,#430,#537,.T.);
#354=EDGE_CURVE('',#433,#429,#538,.T.);
#355=EDGE_CURVE('',#435,#436,#539,.T.);
#356=EDGE_CURVE('',#436,#434,#540,.T.);
#357=EDGE_CURVE('',#435,#433,#541,.T.);
#358=EDGE_CURVE('',#431,#436,#542,.T.);
#359=EDGE_CURVE('',#432,#435,#543,.T.);
#360=EDGE_CURVE('',#426,#420,#544,.T.);
#361=EDGE_CURVE('',#425,#421,#545,.T.);
#362=EDGE_CURVE('',#419,#427,#546,.T.);
#363=EDGE_CURVE('',#418,#428,#547,.T.);
#364=EDGE_CURVE('',#417,#424,#548,.T.);
#365=VERTEX_POINT('',#1154);
#366=VERTEX_POINT('',#1155);
#367=VERTEX_POINT('',#1157);
#368=VERTEX_POINT('',#1159);
#369=VERTEX_POINT('',#1163);
#370=VERTEX_POINT('',#1164);
#371=VERTEX_POINT('',#1167);
#372=VERTEX_POINT('',#1169);
#373=VERTEX_POINT('',#1171);
#374=VERTEX_POINT('',#1173);
#375=VERTEX_POINT('',#1177);
#376=VERTEX_POINT('',#1181);
#377=VERTEX_POINT('',#1183);
#378=VERTEX_POINT('',#1185);
#379=VERTEX_POINT('',#1187);
#380=VERTEX_POINT('',#1189);
#381=VERTEX_POINT('',#1193);
#382=VERTEX_POINT('',#1194);
#383=VERTEX_POINT('',#1196);
#384=VERTEX_POINT('',#1198);
#385=VERTEX_POINT('',#1202);
#386=VERTEX_POINT('',#1204);
#387=VERTEX_POINT('',#1208);
#388=VERTEX_POINT('',#1210);
#389=VERTEX_POINT('',#1229);
#390=VERTEX_POINT('',#1230);
#391=VERTEX_POINT('',#1232);
#392=VERTEX_POINT('',#1234);
#393=VERTEX_POINT('',#1238);
#394=VERTEX_POINT('',#1240);
#395=VERTEX_POINT('',#1244);
#396=VERTEX_POINT('',#1246);
#397=VERTEX_POINT('',#1250);
#398=VERTEX_POINT('',#1252);
#399=VERTEX_POINT('',#1256);
#400=VERTEX_POINT('',#1258);
#401=VERTEX_POINT('',#1262);
#402=VERTEX_POINT('',#1264);
#403=VERTEX_POINT('',#1268);
#404=VERTEX_POINT('',#1270);
#405=VERTEX_POINT('',#1274);
#406=VERTEX_POINT('',#1276);
#407=VERTEX_POINT('',#1280);
#408=VERTEX_POINT('',#1282);
#409=VERTEX_POINT('',#1286);
#410=VERTEX_POINT('',#1288);
#411=VERTEX_POINT('',#1292);
#412=VERTEX_POINT('',#1294);
#413=VERTEX_POINT('',#1312);
#414=VERTEX_POINT('',#1313);
#415=VERTEX_POINT('',#1315);
#416=VERTEX_POINT('',#1317);
#417=VERTEX_POINT('',#1321);
#418=VERTEX_POINT('',#1323);
#419=VERTEX_POINT('',#1325);
#420=VERTEX_POINT('',#1327);
#421=VERTEX_POINT('',#1329);
#422=VERTEX_POINT('',#1331);
#423=VERTEX_POINT('',#1335);
#424=VERTEX_POINT('',#1339);
#425=VERTEX_POINT('',#1341);
#426=VERTEX_POINT('',#1343);
#427=VERTEX_POINT('',#1345);
#428=VERTEX_POINT('',#1347);
#429=VERTEX_POINT('',#1351);
#430=VERTEX_POINT('',#1352);
#431=VERTEX_POINT('',#1354);
#432=VERTEX_POINT('',#1356);
#433=VERTEX_POINT('',#1360);
#434=VERTEX_POINT('',#1361);
#435=VERTEX_POINT('',#1366);
#436=VERTEX_POINT('',#1367);
#437=LINE('',#1153,#549);
#438=LINE('',#1156,#550);
#439=LINE('',#1158,#551);
#440=LINE('',#1160,#552);
#441=LINE('',#1162,#553);
#442=LINE('',#1165,#554);
#443=LINE('',#1166,#555);
#444=LINE('',#1168,#556);
#445=LINE('',#1170,#557);
#446=LINE('',#1172,#558);
#447=LINE('',#1174,#559);
#448=LINE('',#1176,#560);
#449=LINE('',#1178,#561);
#450=LINE('',#1180,#562);
#451=LINE('',#1182,#563);
#452=LINE('',#1184,#564);
#453=LINE('',#1186,#565);
#454=LINE('',#1188,#566);
#455=LINE('',#1190,#567);
#456=LINE('',#1192,#568);
#457=LINE('',#1195,#569);
#458=LINE('',#1197,#570);
#459=LINE('',#1199,#571);
#460=LINE('',#1201,#572);
#461=LINE('',#1203,#573);
#462=LINE('',#1205,#574);
#463=LINE('',#1207,#575);
#464=LINE('',#1209,#576);
#465=LINE('',#1211,#577);
#466=LINE('',#1213,#578);
#467=LINE('',#1214,#579);
#468=LINE('',#1216,#580);
#469=LINE('',#1217,#581);
#470=LINE('',#1220,#582);
#471=LINE('',#1222,#583);
#472=LINE('',#1224,#584);
#473=LINE('',#1228,#585);
#474=LINE('',#1231,#586);
#475=LINE('',#1233,#587);
#476=LINE('',#1235,#588);
#477=LINE('',#1237,#589);
#478=LINE('',#1239,#590);
#479=LINE('',#1241,#591);
#480=LINE('',#1243,#592);
#481=LINE('',#1245,#593);
#482=LINE('',#1247,#594);
#483=LINE('',#1249,#595);
#484=LINE('',#1251,#596);
#485=LINE('',#1253,#597);
#486=LINE('',#1255,#598);
#487=LINE('',#1257,#599);
#488=LINE('',#1259,#600);
#489=LINE('',#1261,#601);
#490=LINE('',#1263,#602);
#491=LINE('',#1265,#603);
#492=LINE('',#1267,#604);
#493=LINE('',#1269,#605);
#494=LINE('',#1271,#606);
#495=LINE('',#1273,#607);
#496=LINE('',#1275,#608);
#497=LINE('',#1277,#609);
#498=LINE('',#1279,#610);
#499=LINE('',#1281,#611);
#500=LINE('',#1283,#612);
#501=LINE('',#1285,#613);
#502=LINE('',#1287,#614);
#503=LINE('',#1289,#615);
#504=LINE('',#1291,#616);
#505=LINE('',#1293,#617);
#506=LINE('',#1295,#618);
#507=LINE('',#1297,#619);
#508=LINE('',#1298,#620);
#509=LINE('',#1300,#621);
#510=LINE('',#1301,#622);
#511=LINE('',#1303,#623);
#512=LINE('',#1304,#624);
#513=LINE('',#1311,#625);
#514=LINE('',#1314,#626);
#515=LINE('',#1316,#627);
#516=LINE('',#1318,#628);
#517=LINE('',#1320,#629);
#518=LINE('',#1322,#630);
#519=LINE('',#1324,#631);
#520=LINE('',#1326,#632);
#521=LINE('',#1328,#633);
#522=LINE('',#1330,#634);
#523=LINE('',#1332,#635);
#524=LINE('',#1334,#636);
#525=LINE('',#1336,#637);
#526=LINE('',#1338,#638);
#527=LINE('',#1340,#639);
#528=LINE('',#1342,#640);
#529=LINE('',#1344,#641);
#530=LINE('',#1346,#642);
#531=LINE('',#1348,#643);
#532=LINE('',#1350,#644);
#533=LINE('',#1353,#645);
#534=LINE('',#1355,#646);
#535=LINE('',#1357,#647);
#536=LINE('',#1359,#648);
#537=LINE('',#1362,#649);
#538=LINE('',#1363,#650);
#539=LINE('',#1365,#651);
#540=LINE('',#1368,#652);
#541=LINE('',#1369,#653);
#542=LINE('',#1371,#654);
#543=LINE('',#1372,#655);
#544=LINE('',#1374,#656);
#545=LINE('',#1375,#657);
#546=LINE('',#1378,#658);
#547=LINE('',#1380,#659);
#548=LINE('',#1381,#660);
#549=VECTOR('',#943,39.3700787401575);
#550=VECTOR('',#944,39.3700787401575);
#551=VECTOR('',#945,39.3700787401575);
#552=VECTOR('',#946,39.3700787401575);
#553=VECTOR('',#949,39.3700787401575);
#554=VECTOR('',#950,39.3700787401575);
#555=VECTOR('',#951,39.3700787401575);
#556=VECTOR('',#952,39.3700787401575);
#557=VECTOR('',#953,39.3700787401575);
#558=VECTOR('',#954,39.3700787401575);
#559=VECTOR('',#955,39.3700787401575);
#560=VECTOR('',#958,39.3700787401575);
#561=VECTOR('',#959,39.3700787401575);
#562=VECTOR('',#962,39.3700787401575);
#563=VECTOR('',#963,39.3700787401575);
#564=VECTOR('',#964,39.3700787401575);
#565=VECTOR('',#965,39.3700787401575);
#566=VECTOR('',#966,39.3700787401575);
#567=VECTOR('',#967,39.3700787401575);
#568=VECTOR('',#970,39.3700787401575);
#569=VECTOR('',#971,39.3700787401575);
#570=VECTOR('',#972,39.3700787401575);
#571=VECTOR('',#973,39.3700787401575);
#572=VECTOR('',#976,39.3700787401575);
#573=VECTOR('',#977,39.3700787401575);
#574=VECTOR('',#978,39.3700787401575);
#575=VECTOR('',#981,39.3700787401575);
#576=VECTOR('',#982,39.3700787401575);
#577=VECTOR('',#983,39.3700787401575);
#578=VECTOR('',#986,39.3700787401575);
#579=VECTOR('',#987,39.3700787401575);
#580=VECTOR('',#990,39.3700787401575);
#581=VECTOR('',#991,39.3700787401575);
#582=VECTOR('',#996,39.3700787401575);
#583=VECTOR('',#999,39.3700787401575);
#584=VECTOR('',#1002,39.3700787401575);
#585=VECTOR('',#1009,39.3700787401575);
#586=VECTOR('',#1010,39.3700787401575);
#587=VECTOR('',#1011,39.3700787401575);
#588=VECTOR('',#1012,39.3700787401575);
#589=VECTOR('',#1015,39.3700787401575);
#590=VECTOR('',#1016,39.3700787401575);
#591=VECTOR('',#1017,39.3700787401575);
#592=VECTOR('',#1020,39.3700787401575);
#593=VECTOR('',#1021,39.3700787401575);
#594=VECTOR('',#1022,39.3700787401575);
#595=VECTOR('',#1025,39.3700787401575);
#596=VECTOR('',#1026,39.3700787401575);
#597=VECTOR('',#1027,39.3700787401575);
#598=VECTOR('',#1030,39.3700787401575);
#599=VECTOR('',#1031,39.3700787401575);
#600=VECTOR('',#1032,39.3700787401575);
#601=VECTOR('',#1035,39.3700787401575);
#602=VECTOR('',#1036,39.3700787401575);
#603=VECTOR('',#1037,39.3700787401575);
#604=VECTOR('',#1040,39.3700787401575);
#605=VECTOR('',#1041,39.3700787401575);
#606=VECTOR('',#1042,39.3700787401575);
#607=VECTOR('',#1045,39.3700787401575);
#608=VECTOR('',#1046,39.3700787401575);
#609=VECTOR('',#1047,39.3700787401575);
#610=VECTOR('',#1050,39.3700787401575);
#611=VECTOR('',#1051,39.3700787401575);
#612=VECTOR('',#1052,39.3700787401575);
#613=VECTOR('',#1055,39.3700787401575);
#614=VECTOR('',#1056,39.3700787401575);
#615=VECTOR('',#1057,39.3700787401575);
#616=VECTOR('',#1060,39.3700787401575);
#617=VECTOR('',#1061,39.3700787401575);
#618=VECTOR('',#1062,39.3700787401575);
#619=VECTOR('',#1065,39.3700787401575);
#620=VECTOR('',#1066,39.3700787401575);
#621=VECTOR('',#1069,39.3700787401575);
#622=VECTOR('',#1070,39.3700787401575);
#623=VECTOR('',#1073,39.3700787401575);
#624=VECTOR('',#1074,39.3700787401575);
#625=VECTOR('',#1087,39.3700787401575);
#626=VECTOR('',#1088,39.3700787401575);
#627=VECTOR('',#1089,39.3700787401575);
#628=VECTOR('',#1090,39.3700787401575);
#629=VECTOR('',#1093,39.3700787401575);
#630=VECTOR('',#1094,39.3700787401575);
#631=VECTOR('',#1095,39.3700787401575);
#632=VECTOR('',#1096,39.3700787401575);
#633=VECTOR('',#1097,39.3700787401575);
#634=VECTOR('',#1098,39.3700787401575);
#635=VECTOR('',#1099,39.3700787401575);
#636=VECTOR('',#1102,39.3700787401575);
#637=VECTOR('',#1103,39.3700787401575);
#638=VECTOR('',#1106,39.3700787401575);
#639=VECTOR('',#1107,39.3700787401575);
#640=VECTOR('',#1108,39.3700787401575);
#641=VECTOR('',#1109,39.3700787401575);
#642=VECTOR('',#1110,39.3700787401575);
#643=VECTOR('',#1111,39.3700787401575);
#644=VECTOR('',#1114,39.3700787401575);
#645=VECTOR('',#1115,39.3700787401575);
#646=VECTOR('',#1116,39.3700787401575);
#647=VECTOR('',#1117,39.3700787401575);
#648=VECTOR('',#1120,39.3700787401575);
#649=VECTOR('',#1121,39.3700787401575);
#650=VECTOR('',#1122,39.3700787401575);
#651=VECTOR('',#1125,39.3700787401575);
#652=VECTOR('',#1126,39.3700787401575);
#653=VECTOR('',#1127,39.3700787401575);
#654=VECTOR('',#1130,39.3700787401575);
#655=VECTOR('',#1131,39.3700787401575);
#656=VECTOR('',#1134,39.3700787401575);
#657=VECTOR('',#1135,39.3700787401575);
#658=VECTOR('',#1140,39.3700787401575);
#659=VECTOR('',#1143,39.3700787401575);
#660=VECTOR('',#1144,39.3700787401575);
#661=EDGE_LOOP('',(#29,#30,#31,#32));
#662=EDGE_LOOP('',(#33,#34,#35,#36,#37,#38,#39,#40));
#663=EDGE_LOOP('',(#41,#42,#43,#44));
#664=EDGE_LOOP('',(#45,#46,#47,#48,#49,#50,#51,#52));
#665=EDGE_LOOP('',(#53,#54,#55,#56));
#666=EDGE_LOOP('',(#57,#58,#59,#60));
#667=EDGE_LOOP('',(#61,#62,#63,#64));
#668=EDGE_LOOP('',(#65,#66,#67,#68));
#669=EDGE_LOOP('',(#69,#70,#71,#72));
#670=EDGE_LOOP('',(#73,#74,#75,#76));
#671=EDGE_LOOP('',(#77,#78,#79,#80));
#672=EDGE_LOOP('',(#81,#82,#83,#84));
#673=EDGE_LOOP('',(#85,#86,#87,#88));
#674=EDGE_LOOP('',(#89,#90,#91,#92));
#675=EDGE_LOOP('',(#93,#94,#95,#96));
#676=EDGE_LOOP('',(#97,#98,#99,#100));
#677=EDGE_LOOP('',(#101,#102,#103,#104));
#678=EDGE_LOOP('',(#105,#106,#107,#108));
#679=EDGE_LOOP('',(#109,#110,#111,#112));
#680=EDGE_LOOP('',(#113,#114,#115,#116));
#681=EDGE_LOOP('',(#117,#118,#119,#120));
#682=EDGE_LOOP('',(#121,#122,#123,#124));
#683=EDGE_LOOP('',(#125,#126,#127,#128));
#684=EDGE_LOOP('',(#129,#130,#131,#132));
#685=EDGE_LOOP('',(#133,#134,#135,#136));
#686=EDGE_LOOP('',(#137,#138,#139,#140));
#687=EDGE_LOOP('',(#141,#142,#143,#144));
#688=EDGE_LOOP('',(#145,#146,#147,#148));
#689=EDGE_LOOP('',(#149,#150,#151,#152,#153,#154,#155,#156));
#690=EDGE_LOOP('',(#157,#158,#159,#160,#161,#162,#163,#164));
#691=EDGE_LOOP('',(#165,#166,#167,#168));
#692=EDGE_LOOP('',(#169,#170,#171,#172));
#693=EDGE_LOOP('',(#173,#174,#175,#176));
#694=EDGE_LOOP('',(#177,#178,#179,#180));
#695=EDGE_LOOP('',(#181,#182,#183,#184));
#696=EDGE_LOOP('',(#185,#186,#187,#188,#189,#190,#191,#192));
#697=EDGE_LOOP('',(#193,#194,#195,#196));
#698=EDGE_LOOP('',(#197,#198,#199,#200,#201,#202,#203,#204));
#699=EDGE_LOOP('',(#205,#206,#207,#208));
#700=EDGE_LOOP('',(#209,#210,#211,#212));
#701=EDGE_LOOP('',(#213,#214,#215,#216));
#702=EDGE_LOOP('',(#217,#218,#219,#220));
#703=EDGE_LOOP('',(#221,#222,#223,#224));
#704=EDGE_LOOP('',(#225,#226,#227,#228));
#705=EDGE_LOOP('',(#229,#230,#231,#232));
#706=EDGE_LOOP('',(#233,#234,#235,#236));
#707=EDGE_LOOP('',(#237,#238,#239,#240));
#708=EDGE_LOOP('',(#241,#242,#243,#244));
#709=EDGE_LOOP('',(#245,#246,#247,#248));
#710=EDGE_LOOP('',(#249,#250,#251,#252));
#711=FACE_BOUND('',#661,.T.);
#712=FACE_BOUND('',#662,.T.);
#713=FACE_BOUND('',#663,.T.);
#714=FACE_BOUND('',#664,.T.);
#715=FACE_BOUND('',#665,.T.);
#716=FACE_BOUND('',#666,.T.);
#717=FACE_BOUND('',#667,.T.);
#718=FACE_BOUND('',#668,.T.);
#719=FACE_BOUND('',#669,.T.);
#720=FACE_BOUND('',#670,.T.);
#721=FACE_BOUND('',#671,.T.);
#722=FACE_BOUND('',#672,.T.);
#723=FACE_BOUND('',#673,.T.);
#724=FACE_BOUND('',#674,.T.);
#725=FACE_BOUND('',#675,.T.);
#726=FACE_BOUND('',#676,.T.);
#727=FACE_BOUND('',#677,.T.);
#728=FACE_BOUND('',#678,.T.);
#729=FACE_BOUND('',#679,.T.);
#730=FACE_BOUND('',#680,.T.);
#731=FACE_BOUND('',#681,.T.);
#732=FACE_BOUND('',#682,.T.);
#733=FACE_BOUND('',#683,.T.);
#734=FACE_BOUND('',#684,.T.);
#735=FACE_BOUND('',#685,.T.);
#736=FACE_BOUND('',#686,.T.);
#737=FACE_BOUND('',#687,.T.);
#738=FACE_BOUND('',#688,.T.);
#739=FACE_BOUND('',#689,.T.);
#740=FACE_BOUND('',#690,.T.);
#741=FACE_BOUND('',#691,.T.);
#742=FACE_BOUND('',#692,.T.);
#743=FACE_BOUND('',#693,.T.);
#744=FACE_BOUND('',#694,.T.);
#745=FACE_BOUND('',#695,.T.);
#746=FACE_BOUND('',#696,.T.);
#747=FACE_BOUND('',#697,.T.);
#748=FACE_BOUND('',#698,.T.);
#749=FACE_BOUND('',#699,.T.);
#750=FACE_BOUND('',#700,.T.);
#751=FACE_BOUND('',#701,.T.);
#752=FACE_BOUND('',#702,.T.);
#753=FACE_BOUND('',#703,.T.);
#754=FACE_BOUND('',#704,.T.);
#755=FACE_BOUND('',#705,.T.);
#756=FACE_BOUND('',#706,.T.);
#757=FACE_BOUND('',#707,.T.);
#758=FACE_BOUND('',#708,.T.);
#759=FACE_BOUND('',#709,.T.);
#760=FACE_BOUND('',#710,.T.);
#761=PLANE('',#890);
#762=PLANE('',#891);
#763=PLANE('',#892);
#764=PLANE('',#893);
#765=PLANE('',#894);
#766=PLANE('',#895);
#767=PLANE('',#896);
#768=PLANE('',#897);
#769=PLANE('',#898);
#770=PLANE('',#899);
#771=PLANE('',#900);
#772=PLANE('',#901);
#773=PLANE('',#902);
#774=PLANE('',#903);
#775=PLANE('',#905);
#776=PLANE('',#906);
#777=PLANE('',#907);
#778=PLANE('',#908);
#779=PLANE('',#909);
#780=PLANE('',#910);
#781=PLANE('',#911);
#782=PLANE('',#912);
#783=PLANE('',#913);
#784=PLANE('',#914);
#785=PLANE('',#915);
#786=PLANE('',#916);
#787=PLANE('',#917);
#788=PLANE('',#918);
#789=PLANE('',#919);
#790=PLANE('',#920);
#791=PLANE('',#921);
#792=PLANE('',#922);
#793=PLANE('',#924);
#794=PLANE('',#925);
#795=PLANE('',#926);
#796=PLANE('',#927);
#797=PLANE('',#928);
#798=PLANE('',#929);
#799=PLANE('',#930);
#800=PLANE('',#931);
#801=PLANE('',#932);
#802=PLANE('',#933);
#803=PLANE('',#934);
#804=PLANE('',#935);
#805=PLANE('',#936);
#806=PLANE('',#937);
#807=ADVANCED_FACE('',(#711),#761,.F.);
#808=ADVANCED_FACE('',(#712),#762,.F.);
#809=ADVANCED_FACE('',(#713),#763,.F.);
#810=ADVANCED_FACE('',(#714),#764,.F.);
#811=ADVANCED_FACE('',(#715),#765,.T.);
#812=ADVANCED_FACE('',(#716),#766,.T.);
#813=ADVANCED_FACE('',(#717),#767,.T.);
#814=ADVANCED_FACE('',(#718),#768,.T.);
#815=ADVANCED_FACE('',(#719),#769,.F.);
#816=ADVANCED_FACE('',(#720,#721),#770,.T.);
#817=ADVANCED_FACE('',(#722),#771,.F.);
#818=ADVANCED_FACE('',(#723),#772,.F.);
#819=ADVANCED_FACE('',(#724),#773,.F.);
#820=ADVANCED_FACE('',(#725,#726),#774,.F.);
#821=ADVANCED_FACE('',(#727),#775,.T.);
#822=ADVANCED_FACE('',(#728),#776,.T.);
#823=ADVANCED_FACE('',(#729),#777,.T.);
#824=ADVANCED_FACE('',(#730),#778,.T.);
#825=ADVANCED_FACE('',(#731),#779,.T.);
#826=ADVANCED_FACE('',(#732),#780,.T.);
#827=ADVANCED_FACE('',(#733),#781,.T.);
#828=ADVANCED_FACE('',(#734),#782,.T.);
#829=ADVANCED_FACE('',(#735),#783,.T.);
#830=ADVANCED_FACE('',(#736),#784,.T.);
#831=ADVANCED_FACE('',(#737),#785,.T.);
#832=ADVANCED_FACE('',(#738),#786,.T.);
#833=ADVANCED_FACE('',(#739),#787,.F.);
#834=ADVANCED_FACE('',(#740),#788,.T.);
#835=ADVANCED_FACE('',(#741),#789,.F.);
#836=ADVANCED_FACE('',(#742),#790,.F.);
#837=ADVANCED_FACE('',(#743),#791,.F.);
#838=ADVANCED_FACE('',(#744),#792,.F.);
#839=ADVANCED_FACE('',(#745),#793,.T.);
#840=ADVANCED_FACE('',(#746),#794,.T.);
#841=ADVANCED_FACE('',(#747),#795,.T.);
#842=ADVANCED_FACE('',(#748),#796,.T.);
#843=ADVANCED_FACE('',(#749),#797,.F.);
#844=ADVANCED_FACE('',(#750),#798,.F.);
#845=ADVANCED_FACE('',(#751),#799,.F.);
#846=ADVANCED_FACE('',(#752),#800,.F.);
#847=ADVANCED_FACE('',(#753),#801,.T.);
#848=ADVANCED_FACE('',(#754,#755),#802,.F.);
#849=ADVANCED_FACE('',(#756),#803,.T.);
#850=ADVANCED_FACE('',(#757,#758),#804,.F.);
#851=ADVANCED_FACE('',(#759),#805,.F.);
#852=ADVANCED_FACE('',(#760),#806,.F.);
#853=CLOSED_SHELL('',(#807,#808,#809,#810,#811,#812,#813,#814,#815,#816,
#817,#818,#819,#820));
#854=CLOSED_SHELL('',(#821,#822,#823,#824,#825,#826,#827,#828,#829,#830,
#831,#832,#833,#834,#835,#836,#837,#838));
#855=CLOSED_SHELL('',(#839,#840,#841,#842,#843,#844,#845,#846,#847,#848,
#849,#850,#851,#852));
#856=STYLED_ITEM('',(#859),#878);
#857=STYLED_ITEM('',(#860),#879);
#858=STYLED_ITEM('',(#861),#880);
#859=PRESENTATION_STYLE_ASSIGNMENT((#862));
#860=PRESENTATION_STYLE_ASSIGNMENT((#863));
#861=PRESENTATION_STYLE_ASSIGNMENT((#864));
#862=SURFACE_STYLE_USAGE(.BOTH.,#865);
#863=SURFACE_STYLE_USAGE(.BOTH.,#866);
#864=SURFACE_STYLE_USAGE(.BOTH.,#867);
#865=SURFACE_SIDE_STYLE('',(#868));
#866=SURFACE_SIDE_STYLE('',(#869));
#867=SURFACE_SIDE_STYLE('',(#870));
#868=SURFACE_STYLE_FILL_AREA(#871);
#869=SURFACE_STYLE_FILL_AREA(#872);
#870=SURFACE_STYLE_FILL_AREA(#873);
#871=FILL_AREA_STYLE('',(#874));
#872=FILL_AREA_STYLE('',(#875));
#873=FILL_AREA_STYLE('',(#876));
#874=FILL_AREA_STYLE_COLOUR('',#877);
#875=FILL_AREA_STYLE_COLOUR('',#10);
#876=FILL_AREA_STYLE_COLOUR('',#877);
#877=COLOUR_RGB('',0.5,0.5,0.5);
#878=MANIFOLD_SOLID_BREP('ZW-01-09-G-S-450-110bbody',#853);
#879=MANIFOLD_SOLID_BREP('ZW-01-09-G-S-450-110_pins',#854);
#880=MANIFOLD_SOLID_BREP('ZW-01-09-G-S-450-110_top_body',#855);
#881=SHAPE_DEFINITION_REPRESENTATION(#1400,#885);
#882=SHAPE_DEFINITION_REPRESENTATION(#1401,#886);
#883=SHAPE_DEFINITION_REPRESENTATION(#1403,#887);
#884=SHAPE_DEFINITION_REPRESENTATION(#1405,#888);
#885=SHAPE_REPRESENTATION('DW-01-09-T-S-450',(#889,#904,#923,#938),#1386);
#886=SHAPE_REPRESENTATION('ZW-01-09-G-S-450-110bbody',(#889),#1387);
#887=SHAPE_REPRESENTATION('ZW-01-09-G-S-450-110_pins',(#889),#1388);
#888=SHAPE_REPRESENTATION('ZW-01-09-G-S-450-110_top_body',(#889),#1389);
#889=AXIS2_PLACEMENT_3D('',#1151,#939,#940);
#890=AXIS2_PLACEMENT_3D('',#1152,#941,#942);
#891=AXIS2_PLACEMENT_3D('',#1161,#947,#948);
#892=AXIS2_PLACEMENT_3D('',#1175,#956,#957);
#893=AXIS2_PLACEMENT_3D('',#1179,#960,#961);
#894=AXIS2_PLACEMENT_3D('',#1191,#968,#969);
#895=AXIS2_PLACEMENT_3D('',#1200,#974,#975);
#896=AXIS2_PLACEMENT_3D('',#1206,#979,#980);
#897=AXIS2_PLACEMENT_3D('',#1212,#984,#985);
#898=AXIS2_PLACEMENT_3D('',#1215,#988,#989);
#899=AXIS2_PLACEMENT_3D('',#1218,#992,#993);
#900=AXIS2_PLACEMENT_3D('',#1219,#994,#995);
#901=AXIS2_PLACEMENT_3D('',#1221,#997,#998);
#902=AXIS2_PLACEMENT_3D('',#1223,#1000,#1001);
#903=AXIS2_PLACEMENT_3D('',#1225,#1003,#1004);
#904=AXIS2_PLACEMENT_3D('',#1226,#1005,#1006);
#905=AXIS2_PLACEMENT_3D('',#1227,#1007,#1008);
#906=AXIS2_PLACEMENT_3D('',#1236,#1013,#1014);
#907=AXIS2_PLACEMENT_3D('',#1242,#1018,#1019);
#908=AXIS2_PLACEMENT_3D('',#1248,#1023,#1024);
#909=AXIS2_PLACEMENT_3D('',#1254,#1028,#1029);
#910=AXIS2_PLACEMENT_3D('',#1260,#1033,#1034);
#911=AXIS2_PLACEMENT_3D('',#1266,#1038,#1039);
#912=AXIS2_PLACEMENT_3D('',#1272,#1043,#1044);
#913=AXIS2_PLACEMENT_3D('',#1278,#1048,#1049);
#914=AXIS2_PLACEMENT_3D('',#1284,#1053,#1054);
#915=AXIS2_PLACEMENT_3D('',#1290,#1058,#1059);
#916=AXIS2_PLACEMENT_3D('',#1296,#1063,#1064);
#917=AXIS2_PLACEMENT_3D('',#1299,#1067,#1068);
#918=AXIS2_PLACEMENT_3D('',#1302,#1071,#1072);
#919=AXIS2_PLACEMENT_3D('',#1305,#1075,#1076);
#920=AXIS2_PLACEMENT_3D('',#1306,#1077,#1078);
#921=AXIS2_PLACEMENT_3D('',#1307,#1079,#1080);
#922=AXIS2_PLACEMENT_3D('',#1308,#1081,#1082);
#923=AXIS2_PLACEMENT_3D('',#1309,#1083,#1084);
#924=AXIS2_PLACEMENT_3D('',#1310,#1085,#1086);
#925=AXIS2_PLACEMENT_3D('',#1319,#1091,#1092);
#926=AXIS2_PLACEMENT_3D('',#1333,#1100,#1101);
#927=AXIS2_PLACEMENT_3D('',#1337,#1104,#1105);
#928=AXIS2_PLACEMENT_3D('',#1349,#1112,#1113);
#929=AXIS2_PLACEMENT_3D('',#1358,#1118,#1119);
#930=AXIS2_PLACEMENT_3D('',#1364,#1123,#1124);
#931=AXIS2_PLACEMENT_3D('',#1370,#1128,#1129);
#932=AXIS2_PLACEMENT_3D('',#1373,#1132,#1133);
#933=AXIS2_PLACEMENT_3D('',#1376,#1136,#1137);
#934=AXIS2_PLACEMENT_3D('',#1377,#1138,#1139);
#935=AXIS2_PLACEMENT_3D('',#1379,#1141,#1142);
#936=AXIS2_PLACEMENT_3D('',#1382,#1145,#1146);
#937=AXIS2_PLACEMENT_3D('',#1383,#1147,#1148);
#938=AXIS2_PLACEMENT_3D('',#1384,#1149,#1150);
#939=DIRECTION('',(0.,0.,1.));
#940=DIRECTION('',(1.,0.,0.));
#941=DIRECTION('',(0.,1.,0.));
#942=DIRECTION('',(0.,0.,1.));
#943=DIRECTION('',(0.,0.,1.));
#944=DIRECTION('',(1.,0.,0.));
#945=DIRECTION('',(0.,0.,-1.));
#946=DIRECTION('',(1.,0.,0.));
#947=DIRECTION('',(1.,0.,0.));
#948=DIRECTION('',(0.,0.,-1.));
#949=DIRECTION('',(0.,0.,1.));
#950=DIRECTION('',(0.,-1.,0.));
#951=DIRECTION('',(0.,-1.,0.));
#952=DIRECTION('',(0.,0.,1.));
#953=DIRECTION('',(0.,-1.,0.));
#954=DIRECTION('',(0.,0.,1.));
#955=DIRECTION('',(0.,1.,0.));
#956=DIRECTION('',(0.,0.,-1.));
#957=DIRECTION('',(-1.,0.,0.));
#958=DIRECTION('',(0.,-1.,0.));
#959=DIRECTION('',(1.,0.,0.));
#960=DIRECTION('',(-1.,0.,0.));
#961=DIRECTION('',(0.,0.,1.));
#962=DIRECTION('',(0.,-1.,0.));
#963=DIRECTION('',(0.,0.,1.));
#964=DIRECTION('',(0.,1.,0.));
#965=DIRECTION('',(0.,0.,-1.));
#966=DIRECTION('',(0.,-1.,0.));
#967=DIRECTION('',(0.,0.,-1.));
#968=DIRECTION('',(1.,0.,0.));
#969=DIRECTION('',(0.,0.,-1.));
#970=DIRECTION('',(0.,0.,1.));
#971=DIRECTION('',(0.,-1.,0.));
#972=DIRECTION('',(0.,0.,1.));
#973=DIRECTION('',(0.,-1.,0.));
#974=DIRECTION('',(0.,0.,1.));
#975=DIRECTION('',(1.,0.,0.));
#976=DIRECTION('',(-1.,0.,0.));
#977=DIRECTION('',(0.,-1.,0.));
#978=DIRECTION('',(-1.,0.,0.));
#979=DIRECTION('',(-1.,0.,0.));
#980=DIRECTION('',(0.,0.,1.));
#981=DIRECTION('',(0.,0.,-1.));
#982=DIRECTION('',(0.,-1.,0.));
#983=DIRECTION('',(0.,0.,-1.));
#984=DIRECTION('',(0.,0.,-1.));
#985=DIRECTION('',(-1.,0.,0.));
#986=DIRECTION('',(1.,0.,0.));
#987=DIRECTION('',(1.,0.,0.));
#988=DIRECTION('',(0.,0.,1.));
#989=DIRECTION('',(1.,0.,0.));
#990=DIRECTION('',(-1.,0.,0.));
#991=DIRECTION('',(-1.,0.,0.));
#992=DIRECTION('',(0.,1.,0.));
#993=DIRECTION('',(0.,0.,1.));
#994=DIRECTION('',(0.,1.,0.));
#995=DIRECTION('',(0.,0.,1.));
#996=DIRECTION('',(1.,0.,0.));
#997=DIRECTION('',(0.,0.,1.));
#998=DIRECTION('',(1.,0.,0.));
#999=DIRECTION('',(1.,0.,0.));
#1000=DIRECTION('',(0.,0.,-1.));
#1001=DIRECTION('',(-1.,0.,0.));
#1002=DIRECTION('',(1.,0.,0.));
#1003=DIRECTION('',(0.,1.,0.));
#1004=DIRECTION('',(0.,0.,1.));
#1005=DIRECTION('',(0.,0.,1.));
#1006=DIRECTION('',(1.,0.,0.));
#1007=DIRECTION('',(0.,0.,1.));
#1008=DIRECTION('',(1.,0.,0.));
#1009=DIRECTION('',(0.,-1.,0.));
#1010=DIRECTION('',(1.,0.,0.));
#1011=DIRECTION('',(0.,-1.,0.));
#1012=DIRECTION('',(1.,0.,0.));
#1013=DIRECTION('',(0.,-0.707106781186545,0.70710678118655));
#1014=DIRECTION('',(0.,-0.70710678118655,-0.707106781186545));
#1015=DIRECTION('',(-0.577350269189627,-0.577350269189627,-0.577350269189623));
#1016=DIRECTION('',(-0.577350269189624,0.577350269189629,0.577350269189624));
#1017=DIRECTION('',(1.,0.,0.));
#1018=DIRECTION('',(0.,-1.,0.));
#1019=DIRECTION('',(0.,0.,-1.));
#1020=DIRECTION('',(0.,0.,-1.));
#1021=DIRECTION('',(0.,0.,-1.));
#1022=DIRECTION('',(1.,0.,0.));
#1023=DIRECTION('',(0.,-0.707106781186547,-0.707106781186548));
#1024=DIRECTION('',(0.,0.707106781186548,-0.707106781186547));
#1025=DIRECTION('',(0.577350269189626,0.577350269189626,-0.577350269189626));
#1026=DIRECTION('',(0.577350269189623,-0.577350269189627,0.577350269189627));
#1027=DIRECTION('',(1.,0.,0.));
#1028=DIRECTION('',(0.,0.,-1.));
#1029=DIRECTION('',(-1.,0.,0.));
#1030=DIRECTION('',(0.,1.,0.));
#1031=DIRECTION('',(0.,1.,0.));
#1032=DIRECTION('',(1.,0.,0.));
#1033=DIRECTION('',(0.,-1.,3.41480999208033E-16));
#1034=DIRECTION('',(0.,-3.41480999208033E-16,-1.));
#1035=DIRECTION('',(0.,-3.41480999208033E-16,-1.));
#1036=DIRECTION('',(0.,-3.41480999208033E-16,-1.));
#1037=DIRECTION('',(1.,0.,0.));
#1038=DIRECTION('',(0.,0.,-1.));
#1039=DIRECTION('',(-1.,0.,0.));
#1040=DIRECTION('',(0.,1.,0.));
#1041=DIRECTION('',(0.,1.,0.));
#1042=DIRECTION('',(1.,0.,0.));
#1043=DIRECTION('',(0.,1.,-2.39036699445623E-15));
#1044=DIRECTION('',(0.,2.39036699445623E-15,1.));
#1045=DIRECTION('',(0.,2.39036699445623E-15,1.));
#1046=DIRECTION('',(0.,2.39036699445623E-15,1.));
#1047=DIRECTION('',(1.,0.,0.));
#1048=DIRECTION('',(0.,0.,-1.));
#1049=DIRECTION('',(-1.,0.,0.));
#1050=DIRECTION('',(0.,1.,0.));
#1051=DIRECTION('',(0.,1.,0.));
#1052=DIRECTION('',(1.,0.,0.));
#1053=DIRECTION('',(0.,0.707106781186547,-0.707106781186548));
#1054=DIRECTION('',(0.,0.707106781186548,0.707106781186547));
#1055=DIRECTION('',(-0.577350269189626,-0.577350269189626,-0.577350269189626));
#1056=DIRECTION('',(1.,0.,0.));
#1057=DIRECTION('',(-0.577350269189626,0.577350269189626,0.577350269189626));
#1058=DIRECTION('',(0.,1.,0.));
#1059=DIRECTION('',(0.,0.,1.));
#1060=DIRECTION('',(0.,0.,-1.));
#1061=DIRECTION('',(1.,0.,0.));
#1062=DIRECTION('',(0.,0.,-1.));
#1063=DIRECTION('',(0.,0.707106781186547,0.707106781186548));
#1064=DIRECTION('',(0.,-0.707106781186548,0.707106781186547));
#1065=DIRECTION('',(0.577350269189626,0.577350269189626,-0.577350269189626));
#1066=DIRECTION('',(0.577350269189626,-0.577350269189626,0.577350269189626));
#1067=DIRECTION('',(1.,0.,0.));
#1068=DIRECTION('',(0.,0.,-1.));
#1069=DIRECTION('',(0.,0.,-1.));
#1070=DIRECTION('',(0.,0.,1.));
#1071=DIRECTION('',(1.,0.,0.));
#1072=DIRECTION('',(0.,0.,-1.));
#1073=DIRECTION('',(0.,0.,-1.));
#1074=DIRECTION('',(0.,0.,1.));
#1075=DIRECTION('',(-0.707106781186548,0.707106781186547,0.));
#1076=DIRECTION('',(-0.707106781186547,-0.707106781186548,0.));
#1077=DIRECTION('',(-0.707106781186548,-0.707106781186547,0.));
#1078=DIRECTION('',(0.707106781186547,-0.707106781186548,0.));
#1079=DIRECTION('',(0.70710678118655,0.707106781186545,0.));
#1080=DIRECTION('',(-0.707106781186545,0.70710678118655,0.));
#1081=DIRECTION('',(0.707106781186548,-0.707106781186547,0.));
#1082=DIRECTION('',(0.707106781186547,0.707106781186548,0.));
#1083=DIRECTION('',(0.,0.,1.));
#1084=DIRECTION('',(1.,0.,0.));
#1085=DIRECTION('',(0.,1.,0.));
#1086=DIRECTION('',(0.,0.,1.));
#1087=DIRECTION('',(1.,0.,0.));
#1088=DIRECTION('',(0.,0.,1.));
#1089=DIRECTION('',(1.,0.,0.));
#1090=DIRECTION('',(0.,0.,-1.));
#1091=DIRECTION('',(-1.,0.,0.));
#1092=DIRECTION('',(0.,0.,1.));
#1093=DIRECTION('',(0.,-1.,0.));
#1094=DIRECTION('',(0.,0.,-1.));
#1095=DIRECTION('',(0.,1.,0.));
#1096=DIRECTION('',(0.,0.,1.));
#1097=DIRECTION('',(0.,1.,0.));
#1098=DIRECTION('',(0.,0.,1.));
#1099=DIRECTION('',(0.,1.,0.));
#1100=DIRECTION('',(0.,0.,1.));
#1101=DIRECTION('',(1.,0.,0.));
#1102=DIRECTION('',(1.,0.,0.));
#1103=DIRECTION('',(0.,1.,0.));
#1104=DIRECTION('',(1.,0.,0.));
#1105=DIRECTION('',(0.,0.,-1.));
#1106=DIRECTION('',(0.,-1.,0.));
#1107=DIRECTION('',(0.,0.,-1.));
#1108=DIRECTION('',(0.,1.,0.));
#1109=DIRECTION('',(0.,0.,-1.));
#1110=DIRECTION('',(0.,1.,0.));
#1111=DIRECTION('',(0.,0.,-1.));
#1112=DIRECTION('',(-1.,0.,0.));
#1113=DIRECTION('',(0.,0.,1.));
#1114=DIRECTION('',(0.,1.,0.));
#1115=DIRECTION('',(0.,0.,1.));
#1116=DIRECTION('',(0.,1.,0.));
#1117=DIRECTION('',(0.,0.,1.));
#1118=DIRECTION('',(0.,0.,-1.));
#1119=DIRECTION('',(-1.,0.,0.));
#1120=DIRECTION('',(0.,1.,0.));
#1121=DIRECTION('',(-1.,0.,0.));
#1122=DIRECTION('',(-1.,0.,0.));
#1123=DIRECTION('',(1.,0.,0.));
#1124=DIRECTION('',(0.,0.,-1.));
#1125=DIRECTION('',(0.,1.,0.));
#1126=DIRECTION('',(0.,0.,-1.));
#1127=DIRECTION('',(0.,0.,-1.));
#1128=DIRECTION('',(0.,0.,1.));
#1129=DIRECTION('',(1.,0.,0.));
#1130=DIRECTION('',(1.,0.,0.));
#1131=DIRECTION('',(1.,0.,0.));
#1132=DIRECTION('',(0.,0.,-1.));
#1133=DIRECTION('',(-1.,0.,0.));
#1134=DIRECTION('',(-1.,0.,0.));
#1135=DIRECTION('',(-1.,0.,0.));
#1136=DIRECTION('',(0.,1.,0.));
#1137=DIRECTION('',(0.,0.,1.));
#1138=DIRECTION('',(0.,1.,0.));
#1139=DIRECTION('',(0.,0.,1.));
#1140=DIRECTION('',(1.,0.,0.));
#1141=DIRECTION('',(0.,-1.,0.));
#1142=DIRECTION('',(0.,0.,-1.));
#1143=DIRECTION('',(1.,0.,0.));
#1144=DIRECTION('',(1.,0.,0.));
#1145=DIRECTION('',(0.,0.,1.));
#1146=DIRECTION('',(1.,0.,0.));
#1147=DIRECTION('',(0.,0.,-1.));
#1148=DIRECTION('',(-1.,0.,0.));
#1149=DIRECTION('',(0.,0.,1.));
#1150=DIRECTION('',(1.,0.,0.));
#1151=CARTESIAN_POINT('',(0.,0.,0.));
#1152=CARTESIAN_POINT('',(0.,0.,0.));
#1153=CARTESIAN_POINT('',(-0.05,0.,-0.05));
#1154=CARTESIAN_POINT('',(-0.05,0.,0.033));
#1155=CARTESIAN_POINT('',(-0.05,0.,0.05));
#1156=CARTESIAN_POINT('',(-0.05,0.,0.033));
#1157=CARTESIAN_POINT('',(0.05,0.,0.033));
#1158=CARTESIAN_POINT('',(0.05,0.,0.05));
#1159=CARTESIAN_POINT('',(0.05,0.,0.05));
#1160=CARTESIAN_POINT('',(-0.05,0.,0.05));
#1161=CARTESIAN_POINT('',(-0.05,0.1,-0.05));
#1162=CARTESIAN_POINT('',(-0.05,0.02,-0.033));
#1163=CARTESIAN_POINT('',(-0.05,0.02,-0.033));
#1164=CARTESIAN_POINT('',(-0.05,0.02,0.033));
#1165=CARTESIAN_POINT('',(-0.05,0.02,0.033));
#1166=CARTESIAN_POINT('',(-0.05,0.1,0.05));
#1167=CARTESIAN_POINT('',(-0.05,0.1,0.05));
#1168=CARTESIAN_POINT('',(-0.05,0.1,-0.05));
#1169=CARTESIAN_POINT('',(-0.05,0.1,-0.05));
#1170=CARTESIAN_POINT('',(-0.05,0.1,-0.05));
#1171=CARTESIAN_POINT('',(-0.05,0.,-0.05));
#1172=CARTESIAN_POINT('',(-0.05,0.,-0.05));
#1173=CARTESIAN_POINT('',(-0.05,0.,-0.033));
#1174=CARTESIAN_POINT('',(-0.05,0.,-0.033));
#1175=CARTESIAN_POINT('',(-0.05,0.1,0.05));
#1176=CARTESIAN_POINT('',(0.05,0.1,0.05));
#1177=CARTESIAN_POINT('',(0.05,0.1,0.05));
#1178=CARTESIAN_POINT('',(-0.05,0.1,0.05));
#1179=CARTESIAN_POINT('',(0.05,0.1,0.05));
#1180=CARTESIAN_POINT('',(0.05,0.02,0.033));
#1181=CARTESIAN_POINT('',(0.05,0.02,0.033));
#1182=CARTESIAN_POINT('',(0.05,0.02,-0.033));
#1183=CARTESIAN_POINT('',(0.05,0.02,-0.033));
#1184=CARTESIAN_POINT('',(0.05,0.,-0.033));
#1185=CARTESIAN_POINT('',(0.05,0.,-0.033));
#1186=CARTESIAN_POINT('',(0.05,0.,0.05));
#1187=CARTESIAN_POINT('',(0.05,0.,-0.05));
#1188=CARTESIAN_POINT('',(0.05,0.1,-0.05));
#1189=CARTESIAN_POINT('',(0.05,0.1,-0.05));
#1190=CARTESIAN_POINT('',(0.05,0.1,0.05));
#1191=CARTESIAN_POINT('',(-0.0125,0.1,-0.0125));
#1192=CARTESIAN_POINT('',(-0.0125,0.02,-0.0125));
#1193=CARTESIAN_POINT('',(-0.0125,0.02,-0.0125));
#1194=CARTESIAN_POINT('',(-0.0125,0.02,0.0125));
#1195=CARTESIAN_POINT('',(-0.0125,0.1,-0.0125));
#1196=CARTESIAN_POINT('',(-0.0125,0.1,-0.0125));
#1197=CARTESIAN_POINT('',(-0.0125,0.1,-0.0125));
#1198=CARTESIAN_POINT('',(-0.0125,0.1,0.0125));
#1199=CARTESIAN_POINT('',(-0.0125,0.1,0.0125));
#1200=CARTESIAN_POINT('',(0.0125,0.1,-0.0125));
#1201=CARTESIAN_POINT('',(0.0125,0.02,-0.0125));
#1202=CARTESIAN_POINT('',(0.0125,0.02,-0.0125));
#1203=CARTESIAN_POINT('',(0.0125,0.1,-0.0125));
#1204=CARTESIAN_POINT('',(0.0125,0.1,-0.0125));
#1205=CARTESIAN_POINT('',(0.0125,0.1,-0.0125));
#1206=CARTESIAN_POINT('',(0.0125,0.1,0.0125));
#1207=CARTESIAN_POINT('',(0.0125,0.02,0.0125));
#1208=CARTESIAN_POINT('',(0.0125,0.02,0.0125));
#1209=CARTESIAN_POINT('',(0.0125,0.1,0.0125));
#1210=CARTESIAN_POINT('',(0.0125,0.1,0.0125));
#1211=CARTESIAN_POINT('',(0.0125,0.1,0.0125));
#1212=CARTESIAN_POINT('',(-0.0125,0.1,0.0125));
#1213=CARTESIAN_POINT('',(-0.0125,0.02,0.0125));
#1214=CARTESIAN_POINT('',(-0.0125,0.1,0.0125));
#1215=CARTESIAN_POINT('',(0.05,0.1,-0.05));
#1216=CARTESIAN_POINT('',(0.05,0.,-0.05));
#1217=CARTESIAN_POINT('',(0.05,0.1,-0.05));
#1218=CARTESIAN_POINT('',(0.,0.1,0.));
#1219=CARTESIAN_POINT('',(0.,0.,0.));
#1220=CARTESIAN_POINT('',(-0.05,0.,-0.033));
#1221=CARTESIAN_POINT('',(-0.05,0.02,0.033));
#1222=CARTESIAN_POINT('',(-0.05,0.02,0.033));
#1223=CARTESIAN_POINT('',(-0.05,0.,-0.033));
#1224=CARTESIAN_POINT('',(-0.05,0.02,-0.033));
#1225=CARTESIAN_POINT('',(-0.05,0.02,-0.033));
#1226=CARTESIAN_POINT('',(0.,0.,0.));
#1227=CARTESIAN_POINT('',(-0.0125,0.612928932188134,0.0125));
#1228=CARTESIAN_POINT('',(0.0125,0.612928932188134,0.0125));
#1229=CARTESIAN_POINT('',(0.0125,0.612928932188134,0.0125));
#1230=CARTESIAN_POINT('',(0.0125,-0.102928932188135,0.0125000000000001));
#1231=CARTESIAN_POINT('',(-0.0125,0.612928932188134,0.0125));
#1232=CARTESIAN_POINT('',(-0.0125,0.612928932188134,0.0125000000000001));
#1233=CARTESIAN_POINT('',(-0.0125,0.612928932188134,0.0125));
#1234=CARTESIAN_POINT('',(-0.0125,-0.102928932188134,0.0125));
#1235=CARTESIAN_POINT('',(-0.0125,-0.102928932188134,0.0125));
#1236=CARTESIAN_POINT('',(-0.0125,-0.102928932188134,0.0125));
#1237=CARTESIAN_POINT('',(0.00416666666666666,-0.111262265521468,0.00416666666666667));
#1238=CARTESIAN_POINT('',(0.00542893218813453,-0.11,0.00542893218813459));
#1239=CARTESIAN_POINT('',(-0.0125,-0.102928932188134,0.0125));
#1240=CARTESIAN_POINT('',(-0.00542893218813453,-0.11,0.00542893218813459));
#1241=CARTESIAN_POINT('',(-0.0125,-0.11,0.00542893218813453));
#1242=CARTESIAN_POINT('',(-0.0125,-0.11,0.00542893218813453));
#1243=CARTESIAN_POINT('',(0.00542893218813453,-0.11,0.3));
#1244=CARTESIAN_POINT('',(0.00542893218813453,-0.11,-0.00542893218813446));
#1245=CARTESIAN_POINT('',(-0.00542893218813453,-0.11,0.3));
#1246=CARTESIAN_POINT('',(-0.00542893218813452,-0.11,-0.0054289321881345));
#1247=CARTESIAN_POINT('',(-0.0125,-0.11,-0.00542893218813453));
#1248=CARTESIAN_POINT('',(-0.0125,-0.11,-0.00542893218813453));
#1249=CARTESIAN_POINT('',(-0.000547378541243648,-0.115976310729378,0.000547378541243647));
#1250=CARTESIAN_POINT('',(0.0125,-0.102928932188135,-0.0125));
#1251=CARTESIAN_POINT('',(-0.00778595479208966,-0.107642977396045,-0.00778595479208968));
#1252=CARTESIAN_POINT('',(-0.0125,-0.102928932188134,-0.0124999999999998));
#1253=CARTESIAN_POINT('',(-0.0125,-0.102928932188135,-0.0125));
#1254=CARTESIAN_POINT('',(-0.0125,-0.102928932188135,-0.0125));
#1255=CARTESIAN_POINT('',(0.0125,-0.102928932188135,-0.0125));
#1256=CARTESIAN_POINT('',(0.0125,0.025,-0.0125));
#1257=CARTESIAN_POINT('',(-0.0125,-0.102928932188135,-0.0125));
#1258=CARTESIAN_POINT('',(-0.0125,0.025,-0.0125));
#1259=CARTESIAN_POINT('',(-0.0125,0.025,-0.0125));
#1260=CARTESIAN_POINT('',(-0.0125,0.025,-0.0125));
#1261=CARTESIAN_POINT('',(0.0125,0.025,-0.0125));
#1262=CARTESIAN_POINT('',(0.0125,0.025,-0.025));
#1263=CARTESIAN_POINT('',(-0.0125,0.025,-0.0125));
#1264=CARTESIAN_POINT('',(-0.0125,0.025,-0.025));
#1265=CARTESIAN_POINT('',(-0.0125,0.025,-0.025));
#1266=CARTESIAN_POINT('',(-0.0125,0.025,-0.025));
#1267=CARTESIAN_POINT('',(0.0125,0.025,-0.025));
#1268=CARTESIAN_POINT('',(0.0125,0.035,-0.025));
#1269=CARTESIAN_POINT('',(-0.0125,0.025,-0.025));
#1270=CARTESIAN_POINT('',(-0.0125,0.035,-0.025));
#1271=CARTESIAN_POINT('',(-0.0125,0.035,-0.025));
#1272=CARTESIAN_POINT('',(-0.0125,0.035,-0.025));
#1273=CARTESIAN_POINT('',(0.0125,0.035,-0.025));
#1274=CARTESIAN_POINT('',(0.0125,0.035,-0.0125));
#1275=CARTESIAN_POINT('',(-0.0125,0.035,-0.025));
#1276=CARTESIAN_POINT('',(-0.0125,0.035,-0.0125));
#1277=CARTESIAN_POINT('',(-0.0125,0.035,-0.0125));
#1278=CARTESIAN_POINT('',(-0.0125,0.035,-0.0125));
#1279=CARTESIAN_POINT('',(0.0125,0.035,-0.0125));
#1280=CARTESIAN_POINT('',(0.0125,0.612928932188134,-0.0124999999999998));
#1281=CARTESIAN_POINT('',(-0.0125,0.035,-0.0125));
#1282=CARTESIAN_POINT('',(-0.0125,0.612928932188134,-0.0125));
#1283=CARTESIAN_POINT('',(-0.0125,0.612928932188134,-0.0125));
#1284=CARTESIAN_POINT('',(-0.0125,0.612928932188134,-0.0125));
#1285=CARTESIAN_POINT('',(-0.0125,0.612928932188134,-0.0125));
#1286=CARTESIAN_POINT('',(-0.00542893218813453,0.62,-0.00542893218813446));
#1287=CARTESIAN_POINT('',(-0.0125,0.62,-0.00542893218813453));
#1288=CARTESIAN_POINT('',(0.00542893218813453,0.62,-0.00542893218813446));
#1289=CARTESIAN_POINT('',(0.00416666666666667,0.621262265521468,-0.00416666666666667));
#1290=CARTESIAN_POINT('',(-0.0125,0.62,-0.00542893218813453));
#1291=CARTESIAN_POINT('',(-0.00542893218813453,0.62,0.3));
#1292=CARTESIAN_POINT('',(-0.00542893218813453,0.62,0.00542893218813459));
#1293=CARTESIAN_POINT('',(-0.0125,0.62,0.00542893218813453));
#1294=CARTESIAN_POINT('',(0.00542893218813453,0.62,0.00542893218813453));
#1295=CARTESIAN_POINT('',(0.00542893218813453,0.62,0.3));
#1296=CARTESIAN_POINT('',(-0.0125,0.62,0.00542893218813453));
#1297=CARTESIAN_POINT('',(-0.00778595479208968,0.617642977396045,0.00778595479208968));
#1298=CARTESIAN_POINT('',(-0.000547378541243648,0.625976310729378,-0.000547378541243646));
#1299=CARTESIAN_POINT('',(-0.0125,0.,0.));
#1300=CARTESIAN_POINT('',(-0.0125,0.612928932188134,0.));
#1301=CARTESIAN_POINT('',(-0.0125,-0.102928932188134,0.));
#1302=CARTESIAN_POINT('',(0.0125,0.,0.));
#1303=CARTESIAN_POINT('',(0.0125,0.612928932188134,0.));
#1304=CARTESIAN_POINT('',(0.0125,-0.102928932188135,0.));
#1305=CARTESIAN_POINT('',(0.00542893218813453,-0.11,0.3));
#1306=CARTESIAN_POINT('',(0.0125,0.612928932188134,0.3));
#1307=CARTESIAN_POINT('',(-0.0125,-0.102928932188134,0.3));
#1308=CARTESIAN_POINT('',(-0.00542893218813453,0.62,0.3));
#1309=CARTESIAN_POINT('',(0.,0.,0.));
#1310=CARTESIAN_POINT('',(0.,0.45,0.));
#1311=CARTESIAN_POINT('',(-0.05,0.45,0.033));
#1312=CARTESIAN_POINT('',(-0.05,0.45,0.033));
#1313=CARTESIAN_POINT('',(0.05,0.45,0.033));
#1314=CARTESIAN_POINT('',(-0.05,0.45,-0.05));
#1315=CARTESIAN_POINT('',(-0.05,0.45,0.05));
#1316=CARTESIAN_POINT('',(-0.05,0.45,0.05));
#1317=CARTESIAN_POINT('',(0.05,0.45,0.05));
#1318=CARTESIAN_POINT('',(0.05,0.45,0.05));
#1319=CARTESIAN_POINT('',(-0.05,0.35,-0.05));
#1320=CARTESIAN_POINT('',(-0.05,0.45,0.033));
#1321=CARTESIAN_POINT('',(-0.05,0.43,0.033));
#1322=CARTESIAN_POINT('',(-0.05,0.43,0.033));
#1323=CARTESIAN_POINT('',(-0.05,0.43,-0.033));
#1324=CARTESIAN_POINT('',(-0.05,0.43,-0.033));
#1325=CARTESIAN_POINT('',(-0.05,0.45,-0.033));
#1326=CARTESIAN_POINT('',(-0.05,0.45,-0.05));
#1327=CARTESIAN_POINT('',(-0.05,0.45,-0.05));
#1328=CARTESIAN_POINT('',(-0.05,0.35,-0.05));
#1329=CARTESIAN_POINT('',(-0.05,0.35,-0.05));
#1330=CARTESIAN_POINT('',(-0.05,0.35,-0.05));
#1331=CARTESIAN_POINT('',(-0.05,0.35,0.05));
#1332=CARTESIAN_POINT('',(-0.05,0.35,0.05));
#1333=CARTESIAN_POINT('',(-0.05,0.35,0.05));
#1334=CARTESIAN_POINT('',(-0.05,0.35,0.05));
#1335=CARTESIAN_POINT('',(0.05,0.35,0.05));
#1336=CARTESIAN_POINT('',(0.05,0.35,0.05));
#1337=CARTESIAN_POINT('',(0.05,0.35,0.05));
#1338=CARTESIAN_POINT('',(0.05,0.45,0.033));
#1339=CARTESIAN_POINT('',(0.05,0.43,0.033));
#1340=CARTESIAN_POINT('',(0.05,0.35,0.05));
#1341=CARTESIAN_POINT('',(0.05,0.35,-0.05));
#1342=CARTESIAN_POINT('',(0.05,0.35,-0.05));
#1343=CARTESIAN_POINT('',(0.05,0.45,-0.05));
#1344=CARTESIAN_POINT('',(0.05,0.45,0.05));
#1345=CARTESIAN_POINT('',(0.05,0.45,-0.033));
#1346=CARTESIAN_POINT('',(0.05,0.43,-0.033));
#1347=CARTESIAN_POINT('',(0.05,0.43,-0.033));
#1348=CARTESIAN_POINT('',(0.05,0.43,0.033));
#1349=CARTESIAN_POINT('',(-0.0125,0.35,-0.0125));
#1350=CARTESIAN_POINT('',(-0.0125,0.35,-0.0125));
#1351=CARTESIAN_POINT('',(-0.0125,0.35,-0.0125));
#1352=CARTESIAN_POINT('',(-0.0125,0.43,-0.0125));
#1353=CARTESIAN_POINT('',(-0.0125,0.43,-0.0125));
#1354=CARTESIAN_POINT('',(-0.0125,0.43,0.0125));
#1355=CARTESIAN_POINT('',(-0.0125,0.35,0.0125));
#1356=CARTESIAN_POINT('',(-0.0125,0.35,0.0125));
#1357=CARTESIAN_POINT('',(-0.0125,0.35,-0.0125));
#1358=CARTESIAN_POINT('',(0.0125,0.35,-0.0125));
#1359=CARTESIAN_POINT('',(0.0125,0.35,-0.0125));
#1360=CARTESIAN_POINT('',(0.0125,0.35,-0.0125));
#1361=CARTESIAN_POINT('',(0.0125,0.43,-0.0125));
#1362=CARTESIAN_POINT('',(0.0125,0.43,-0.0125));
#1363=CARTESIAN_POINT('',(0.0125,0.35,-0.0125));
#1364=CARTESIAN_POINT('',(0.0125,0.35,0.0125));
#1365=CARTESIAN_POINT('',(0.0125,0.35,0.0125));
#1366=CARTESIAN_POINT('',(0.0125,0.35,0.0125));
#1367=CARTESIAN_POINT('',(0.0125,0.43,0.0125));
#1368=CARTESIAN_POINT('',(0.0125,0.43,0.0125));
#1369=CARTESIAN_POINT('',(0.0125,0.35,0.0125));
#1370=CARTESIAN_POINT('',(-0.0125,0.35,0.0125));
#1371=CARTESIAN_POINT('',(-0.0125,0.43,0.0125));
#1372=CARTESIAN_POINT('',(-0.0125,0.35,0.0125));
#1373=CARTESIAN_POINT('',(0.05,0.35,-0.05));
#1374=CARTESIAN_POINT('',(0.05,0.45,-0.05));
#1375=CARTESIAN_POINT('',(0.05,0.35,-0.05));
#1376=CARTESIAN_POINT('',(0.,0.35,0.));
#1377=CARTESIAN_POINT('',(0.,0.45,0.));
#1378=CARTESIAN_POINT('',(-0.05,0.45,-0.033));
#1379=CARTESIAN_POINT('',(-0.05,0.43,0.033));
#1380=CARTESIAN_POINT('',(-0.05,0.43,-0.033));
#1381=CARTESIAN_POINT('',(-0.05,0.43,0.033));
#1382=CARTESIAN_POINT('',(-0.05,0.45,0.033));
#1383=CARTESIAN_POINT('',(-0.05,0.43,-0.033));
#1384=CARTESIAN_POINT('',(0.,0.,0.));
#1385=MECHANICAL_DESIGN_GEOMETRIC_PRESENTATION_REPRESENTATION('',(#856,
#857,#858),#1386);
#1386=(
GEOMETRIC_REPRESENTATION_CONTEXT(3)
GLOBAL_UNCERTAINTY_ASSIGNED_CONTEXT((#1390))
GLOBAL_UNIT_ASSIGNED_CONTEXT((#1396,#1395,#1394))
REPRESENTATION_CONTEXT('DW-01-09-T-S-450','TOP_LEVEL_ASSEMBLY_PART')
);
#1387=(
GEOMETRIC_REPRESENTATION_CONTEXT(3)
GLOBAL_UNCERTAINTY_ASSIGNED_CONTEXT((#1391))
GLOBAL_UNIT_ASSIGNED_CONTEXT((#1396,#1395,#1394))
REPRESENTATION_CONTEXT('ZW-01-09-G-S-450-110bbody','COMPONENT_PART')
);
#1388=(
GEOMETRIC_REPRESENTATION_CONTEXT(3)
GLOBAL_UNCERTAINTY_ASSIGNED_CONTEXT((#1392))
GLOBAL_UNIT_ASSIGNED_CONTEXT((#1396,#1395,#1394))
REPRESENTATION_CONTEXT('ZW-01-09-G-S-450-110_pins','COMPONENT_PART')
);
#1389=(
GEOMETRIC_REPRESENTATION_CONTEXT(3)
GLOBAL_UNCERTAINTY_ASSIGNED_CONTEXT((#1393))
GLOBAL_UNIT_ASSIGNED_CONTEXT((#1396,#1395,#1394))
REPRESENTATION_CONTEXT('ZW-01-09-G-S-450-110_top_body','COMPONENT_PART')
);
#1390=UNCERTAINTY_MEASURE_WITH_UNIT(LENGTH_MEASURE(3.93700787401575E-7),
#1396,'DISTANCE_ACCURACY_VALUE','Maximum Tolerance applied to model');
#1391=UNCERTAINTY_MEASURE_WITH_UNIT(LENGTH_MEASURE(3.93700787401575E-7),
#1396,'DISTANCE_ACCURACY_VALUE','Maximum Tolerance applied to model');
#1392=UNCERTAINTY_MEASURE_WITH_UNIT(LENGTH_MEASURE(3.93700787401575E-7),
#1396,'DISTANCE_ACCURACY_VALUE','Maximum Tolerance applied to model');
#1393=UNCERTAINTY_MEASURE_WITH_UNIT(LENGTH_MEASURE(3.93700787401575E-7),
#1396,'DISTANCE_ACCURACY_VALUE','Maximum Tolerance applied to model');
#1394=(
NAMED_UNIT(*)
SI_UNIT($,.STERADIAN.)
SOLID_ANGLE_UNIT()
);
#1395=(
NAMED_UNIT(*)
PLANE_ANGLE_UNIT()
SI_UNIT($,.RADIAN.)
);
#1396=(
CONVERSION_BASED_UNIT('INCH',#1398)
LENGTH_UNIT()
NAMED_UNIT(#1397)
);
#1397=DIMENSIONAL_EXPONENTS(1.,0.,0.,0.,0.,0.,0.);
#1398=LENGTH_MEASURE_WITH_UNIT(LENGTH_MEASURE(25.4),#1399);
#1399=(
LENGTH_UNIT()
NAMED_UNIT(*)
SI_UNIT(.MILLI.,.METRE.)
);
#1400=PRODUCT_DEFINITION_SHAPE('','',#1407);
#1401=PRODUCT_DEFINITION_SHAPE('','',#1408);
#1402=PRODUCT_DEFINITION_SHAPE(' ','NAUO PRDDFN',#14);
#1403=PRODUCT_DEFINITION_SHAPE('','',#1409);
#1404=PRODUCT_DEFINITION_SHAPE(' ','NAUO PRDDFN',#15);
#1405=PRODUCT_DEFINITION_SHAPE('','',#1410);
#1406=PRODUCT_DEFINITION_SHAPE(' ','NAUO PRDDFN',#16);
#1407=PRODUCT_DEFINITION('','',#1415,#1411);
#1408=PRODUCT_DEFINITION('','',#1416,#1412);
#1409=PRODUCT_DEFINITION('','',#1417,#1413);
#1410=PRODUCT_DEFINITION('','',#1418,#1414);
#1411=PRODUCT_DEFINITION_CONTEXT('',#1436,'design');
#1412=PRODUCT_DEFINITION_CONTEXT('',#1436,'design');
#1413=PRODUCT_DEFINITION_CONTEXT('',#1436,'design');
#1414=PRODUCT_DEFINITION_CONTEXT('',#1436,'design');
#1415=PRODUCT_DEFINITION_FORMATION_WITH_SPECIFIED_SOURCE('','',#1423,
 .NOT_KNOWN.);
#1416=PRODUCT_DEFINITION_FORMATION_WITH_SPECIFIED_SOURCE('','',#1424,
 .NOT_KNOWN.);
#1417=PRODUCT_DEFINITION_FORMATION_WITH_SPECIFIED_SOURCE('','',#1425,
 .NOT_KNOWN.);
#1418=PRODUCT_DEFINITION_FORMATION_WITH_SPECIFIED_SOURCE('','',#1426,
 .NOT_KNOWN.);
#1419=PRODUCT_RELATED_PRODUCT_CATEGORY('','',(#1423));
#1420=PRODUCT_RELATED_PRODUCT_CATEGORY('','',(#1424));
#1421=PRODUCT_RELATED_PRODUCT_CATEGORY('','',(#1425));
#1422=PRODUCT_RELATED_PRODUCT_CATEGORY('','',(#1426));
#1423=PRODUCT('DW-01-09-T-S-450','DW-01-09-T-S-450','DW-01-09-T-S-450',
(#1431));
#1424=PRODUCT('ZW-01-09-G-S-450-110bbody','ZW-01-09-G-S-450-110bbody',
'ZW-01-09-G-S-450-110bbody',(#1432));
#1425=PRODUCT('ZW-01-09-G-S-450-110_pins','ZW-01-09-G-S-450-110_pins',
'ZW-01-09-G-S-450-110_pins',(#1433));
#1426=PRODUCT('ZW-01-09-G-S-450-110_top_body',
'ZW-01-09-G-S-450-110_top_body','ZW-01-09-G-S-450-110_top_body',(#1434));
#1427=PRODUCT_CATEGORY('','');
#1428=PRODUCT_CATEGORY('','');
#1429=PRODUCT_CATEGORY('','');
#1430=PRODUCT_CATEGORY('','');
#1431=PRODUCT_CONTEXT('',#1436,'mechanical');
#1432=PRODUCT_CONTEXT('',#1436,'mechanical');
#1433=PRODUCT_CONTEXT('',#1436,'mechanical');
#1434=PRODUCT_CONTEXT('',#1436,'mechanical');
#1435=APPLICATION_PROTOCOL_DEFINITION('international standard',
'ap242_managed_model_based_3d_engineering',2011,#1436);
#1436=APPLICATION_CONTEXT('managed model based 3d engineering');
ENDSEC;
END-ISO-10303-21;
