G04 #@! TF.GenerationSoftware,KiCad,Pcbnew,(5.1.9)-1*
G04 #@! TF.CreationDate,2025-04-23T10:34:27-07:00*
G04 #@! TF.ProjectId,mounted_cap_sense,6d6f756e-7465-4645-9f63-61705f73656e,rev?*
G04 #@! TF.SameCoordinates,Original*
G04 #@! TF.FileFunction,Legend,Top*
G04 #@! TF.FilePolarity,Positive*
%FSLAX46Y46*%
G04 Gerber Fmt 4.6, Leading zero omitted, Abs format (unit mm)*
G04 Created by KiCad (PCBNEW (5.1.9)-1) date 2025-04-23 10:34:27*
%MOMM*%
%LPD*%
G01*
G04 APERTURE LIST*
%ADD10C,0.150000*%
G04 APERTURE END LIST*
D10*
X103512952Y-85191904D02*
X103465333Y-85287142D01*
X103417714Y-85334761D01*
X103322476Y-85382380D01*
X103274857Y-85382380D01*
X103179619Y-85334761D01*
X103132000Y-85287142D01*
X103084380Y-85191904D01*
X103084380Y-85001428D01*
X103132000Y-84906190D01*
X103179619Y-84858571D01*
X103274857Y-84810952D01*
X103322476Y-84810952D01*
X103417714Y-84858571D01*
X103465333Y-84906190D01*
X103512952Y-85001428D01*
X103512952Y-85191904D01*
X103560571Y-85287142D01*
X103608190Y-85334761D01*
X103703428Y-85382380D01*
X103893904Y-85382380D01*
X103989142Y-85334761D01*
X104036761Y-85287142D01*
X104084380Y-85191904D01*
X104084380Y-85001428D01*
X104036761Y-84906190D01*
X103989142Y-84858571D01*
X103893904Y-84810952D01*
X103703428Y-84810952D01*
X103608190Y-84858571D01*
X103560571Y-84906190D01*
X103512952Y-85001428D01*
X103179619Y-84429999D02*
X103132000Y-84382380D01*
X103084380Y-84287142D01*
X103084380Y-84049047D01*
X103132000Y-83953809D01*
X103179619Y-83906190D01*
X103274857Y-83858571D01*
X103370095Y-83858571D01*
X103512952Y-83906190D01*
X104084380Y-84477619D01*
X104084380Y-83858571D01*
X104179619Y-83668095D02*
X104179619Y-82906190D01*
X104084380Y-82668095D02*
X103084380Y-82668095D01*
X103798666Y-82334761D01*
X103084380Y-82001428D01*
X104084380Y-82001428D01*
X104084380Y-81525238D02*
X103084380Y-81525238D01*
X103798666Y-81191904D01*
X103084380Y-80858571D01*
X104084380Y-80858571D01*
X103989142Y-79810952D02*
X104036761Y-79858571D01*
X104084380Y-80001428D01*
X104084380Y-80096666D01*
X104036761Y-80239523D01*
X103941523Y-80334761D01*
X103846285Y-80382380D01*
X103655809Y-80430000D01*
X103512952Y-80430000D01*
X103322476Y-80382380D01*
X103227238Y-80334761D01*
X103132000Y-80239523D01*
X103084380Y-80096666D01*
X103084380Y-80001428D01*
X103132000Y-79858571D01*
X103179619Y-79810952D01*
X103084380Y-79477619D02*
X104084380Y-78810952D01*
X103084380Y-78810952D02*
X104084380Y-79477619D01*
X103703428Y-78430000D02*
X103703428Y-77668095D01*
X103084380Y-76715714D02*
X103084380Y-77191904D01*
X103560571Y-77239523D01*
X103512952Y-77191904D01*
X103465333Y-77096666D01*
X103465333Y-76858571D01*
X103512952Y-76763333D01*
X103560571Y-76715714D01*
X103655809Y-76668095D01*
X103893904Y-76668095D01*
X103989142Y-76715714D01*
X104036761Y-76763333D01*
X104084380Y-76858571D01*
X104084380Y-77096666D01*
X104036761Y-77191904D01*
X103989142Y-77239523D01*
X103084380Y-76049047D02*
X103084380Y-75953809D01*
X103132000Y-75858571D01*
X103179619Y-75810952D01*
X103274857Y-75763333D01*
X103465333Y-75715714D01*
X103703428Y-75715714D01*
X103893904Y-75763333D01*
X103989142Y-75810952D01*
X104036761Y-75858571D01*
X104084380Y-75953809D01*
X104084380Y-76049047D01*
X104036761Y-76144285D01*
X103989142Y-76191904D01*
X103893904Y-76239523D01*
X103703428Y-76287142D01*
X103465333Y-76287142D01*
X103274857Y-76239523D01*
X103179619Y-76191904D01*
X103132000Y-76144285D01*
X103084380Y-76049047D01*
X103703428Y-75287142D02*
X103703428Y-74525238D01*
X103084380Y-73858571D02*
X103084380Y-73763333D01*
X103132000Y-73668095D01*
X103179619Y-73620476D01*
X103274857Y-73572857D01*
X103465333Y-73525238D01*
X103703428Y-73525238D01*
X103893904Y-73572857D01*
X103989142Y-73620476D01*
X104036761Y-73668095D01*
X104084380Y-73763333D01*
X104084380Y-73858571D01*
X104036761Y-73953809D01*
X103989142Y-74001428D01*
X103893904Y-74049047D01*
X103703428Y-74096666D01*
X103465333Y-74096666D01*
X103274857Y-74049047D01*
X103179619Y-74001428D01*
X103132000Y-73953809D01*
X103084380Y-73858571D01*
X103703428Y-73096666D02*
X103703428Y-72334761D01*
X103512952Y-71715714D02*
X103465333Y-71810952D01*
X103417714Y-71858571D01*
X103322476Y-71906190D01*
X103274857Y-71906190D01*
X103179619Y-71858571D01*
X103132000Y-71810952D01*
X103084380Y-71715714D01*
X103084380Y-71525238D01*
X103132000Y-71430000D01*
X103179619Y-71382380D01*
X103274857Y-71334761D01*
X103322476Y-71334761D01*
X103417714Y-71382380D01*
X103465333Y-71430000D01*
X103512952Y-71525238D01*
X103512952Y-71715714D01*
X103560571Y-71810952D01*
X103608190Y-71858571D01*
X103703428Y-71906190D01*
X103893904Y-71906190D01*
X103989142Y-71858571D01*
X104036761Y-71810952D01*
X104084380Y-71715714D01*
X104084380Y-71525238D01*
X104036761Y-71430000D01*
X103989142Y-71382380D01*
X103893904Y-71334761D01*
X103703428Y-71334761D01*
X103608190Y-71382380D01*
X103560571Y-71430000D01*
X103512952Y-71525238D01*
X103036761Y-70191904D02*
X104322476Y-71049047D01*
X104084380Y-69334761D02*
X104084380Y-69906190D01*
X104084380Y-69620476D02*
X103084380Y-69620476D01*
X103227238Y-69715714D01*
X103322476Y-69810952D01*
X103370095Y-69906190D01*
X104084380Y-68382380D02*
X104084380Y-68953809D01*
X104084380Y-68668095D02*
X103084380Y-68668095D01*
X103227238Y-68763333D01*
X103322476Y-68858571D01*
X103370095Y-68953809D01*
X104084380Y-67430000D02*
X104084380Y-68001428D01*
X104084380Y-67715714D02*
X103084380Y-67715714D01*
X103227238Y-67810952D01*
X103322476Y-67906190D01*
X103370095Y-68001428D01*
X104179619Y-67239523D02*
X104179619Y-66477619D01*
X103084380Y-66049047D02*
X103084380Y-65858571D01*
X103132000Y-65763333D01*
X103227238Y-65668095D01*
X103417714Y-65620476D01*
X103751047Y-65620476D01*
X103941523Y-65668095D01*
X104036761Y-65763333D01*
X104084380Y-65858571D01*
X104084380Y-66049047D01*
X104036761Y-66144285D01*
X103941523Y-66239523D01*
X103751047Y-66287142D01*
X103417714Y-66287142D01*
X103227238Y-66239523D01*
X103132000Y-66144285D01*
X103084380Y-66049047D01*
X104084380Y-65191904D02*
X103084380Y-65191904D01*
X103798666Y-64858571D01*
X103084380Y-64525238D01*
X104084380Y-64525238D01*
X121571428Y-100782380D02*
X121571428Y-99782380D01*
X121904761Y-100496666D01*
X122238095Y-99782380D01*
X122238095Y-100782380D01*
X122714285Y-100782380D02*
X122714285Y-99782380D01*
X123047619Y-100496666D01*
X123380952Y-99782380D01*
X123380952Y-100782380D01*
X124428571Y-100687142D02*
X124380952Y-100734761D01*
X124238095Y-100782380D01*
X124142857Y-100782380D01*
X124000000Y-100734761D01*
X123904761Y-100639523D01*
X123857142Y-100544285D01*
X123809523Y-100353809D01*
X123809523Y-100210952D01*
X123857142Y-100020476D01*
X123904761Y-99925238D01*
X124000000Y-99830000D01*
X124142857Y-99782380D01*
X124238095Y-99782380D01*
X124380952Y-99830000D01*
X124428571Y-99877619D01*
X124761904Y-99782380D02*
X125428571Y-100782380D01*
X125428571Y-99782380D02*
X124761904Y-100782380D01*
X126476190Y-100115714D02*
X126714285Y-100782380D01*
X126952380Y-100115714D01*
X127761904Y-100115714D02*
X127761904Y-100782380D01*
X127523809Y-99734761D02*
X127285714Y-100449047D01*
X127904761Y-100449047D01*
X129047619Y-100782380D02*
X129047619Y-99782380D01*
X129428571Y-99782380D01*
X129523809Y-99830000D01*
X129571428Y-99877619D01*
X129619047Y-99972857D01*
X129619047Y-100115714D01*
X129571428Y-100210952D01*
X129523809Y-100258571D01*
X129428571Y-100306190D01*
X129047619Y-100306190D01*
X130190476Y-100782380D02*
X130095238Y-100734761D01*
X130047619Y-100639523D01*
X130047619Y-99782380D01*
X131000000Y-100782380D02*
X131000000Y-100258571D01*
X130952380Y-100163333D01*
X130857142Y-100115714D01*
X130666666Y-100115714D01*
X130571428Y-100163333D01*
X131000000Y-100734761D02*
X130904761Y-100782380D01*
X130666666Y-100782380D01*
X130571428Y-100734761D01*
X130523809Y-100639523D01*
X130523809Y-100544285D01*
X130571428Y-100449047D01*
X130666666Y-100401428D01*
X130904761Y-100401428D01*
X131000000Y-100353809D01*
X131333333Y-100115714D02*
X131714285Y-100115714D01*
X131476190Y-99782380D02*
X131476190Y-100639523D01*
X131523809Y-100734761D01*
X131619047Y-100782380D01*
X131714285Y-100782380D01*
X132428571Y-100734761D02*
X132333333Y-100782380D01*
X132142857Y-100782380D01*
X132047619Y-100734761D01*
X132000000Y-100639523D01*
X132000000Y-100258571D01*
X132047619Y-100163333D01*
X132142857Y-100115714D01*
X132333333Y-100115714D01*
X132428571Y-100163333D01*
X132476190Y-100258571D01*
X132476190Y-100353809D01*
X132000000Y-100449047D01*
X104926921Y-84663412D02*
X105200266Y-85323326D01*
X105210941Y-85473531D01*
X105159399Y-85597966D01*
X105045639Y-85696629D01*
X104957650Y-85733075D01*
X105793541Y-85386838D02*
X105969518Y-85313946D01*
X106039284Y-85233506D01*
X106065055Y-85171288D01*
X106098375Y-85002859D01*
X106069477Y-84808659D01*
X105923693Y-84456705D01*
X105843252Y-84386940D01*
X105781035Y-84361168D01*
X105674823Y-84353620D01*
X105498846Y-84426512D01*
X105429081Y-84506953D01*
X105403310Y-84569170D01*
X105395761Y-84675381D01*
X105486876Y-84895353D01*
X105567317Y-84965118D01*
X105629534Y-84990890D01*
X105735746Y-84998438D01*
X105911723Y-84925546D01*
X105981488Y-84845105D01*
X106007259Y-84782888D01*
X106014808Y-84676677D01*
X105407440Y-66576511D02*
X105134095Y-67236425D01*
X105035432Y-67350185D01*
X104910997Y-67401728D01*
X104760791Y-67391053D01*
X104672803Y-67354607D01*
X105815359Y-67209359D02*
X105745593Y-67128919D01*
X105719822Y-67066701D01*
X105712274Y-66960490D01*
X105730497Y-66916496D01*
X105810937Y-66846730D01*
X105873154Y-66820959D01*
X105979366Y-66813411D01*
X106155343Y-66886303D01*
X106225108Y-66966743D01*
X106250880Y-67028960D01*
X106258428Y-67135172D01*
X106240205Y-67179166D01*
X106159765Y-67248932D01*
X106097547Y-67274703D01*
X105991336Y-67282251D01*
X105815359Y-67209359D01*
X105709147Y-67216907D01*
X105646930Y-67242678D01*
X105566489Y-67312444D01*
X105493597Y-67488421D01*
X105501146Y-67594633D01*
X105526917Y-67656850D01*
X105596682Y-67737290D01*
X105772659Y-67810182D01*
X105878871Y-67802634D01*
X105941088Y-67776863D01*
X106021529Y-67707097D01*
X106094421Y-67531120D01*
X106086872Y-67424909D01*
X106061101Y-67362691D01*
X105991336Y-67282251D01*
X118536587Y-54126921D02*
X117876673Y-54400266D01*
X117726468Y-54410941D01*
X117602033Y-54359399D01*
X117503370Y-54245639D01*
X117466924Y-54157650D01*
X118682372Y-54478875D02*
X118937494Y-55094795D01*
X117849607Y-55081530D01*
X135356497Y-54804231D02*
X136016411Y-55077576D01*
X136130171Y-55176239D01*
X136181714Y-55300674D01*
X136171039Y-55450880D01*
X136134593Y-55538868D01*
X135702735Y-53968340D02*
X135629843Y-54144317D01*
X135637391Y-54250528D01*
X135663162Y-54312745D01*
X135758699Y-54455403D01*
X135916453Y-54572289D01*
X136268407Y-54718074D01*
X136374619Y-54710525D01*
X136436836Y-54684754D01*
X136517276Y-54614989D01*
X136590168Y-54439012D01*
X136582620Y-54332800D01*
X136556849Y-54270583D01*
X136487083Y-54190142D01*
X136267112Y-54099027D01*
X136160900Y-54106576D01*
X136098683Y-54132347D01*
X136018243Y-54202112D01*
X135945351Y-54378089D01*
X135952899Y-54484301D01*
X135978670Y-54546518D01*
X136048436Y-54626958D01*
X148038029Y-66979842D02*
X148311374Y-67639756D01*
X148322049Y-67789961D01*
X148270507Y-67914396D01*
X148156747Y-68013059D01*
X148068758Y-68049505D01*
X148917914Y-66615381D02*
X148477972Y-66797611D01*
X148616207Y-67255777D01*
X148641979Y-67193560D01*
X148711744Y-67113119D01*
X148931716Y-67022004D01*
X149037927Y-67029553D01*
X149100144Y-67055324D01*
X149180585Y-67125089D01*
X149271700Y-67345061D01*
X149264152Y-67451272D01*
X149238380Y-67513489D01*
X149168615Y-67593930D01*
X148948644Y-67685045D01*
X148842432Y-67677497D01*
X148780215Y-67651725D01*
X148395768Y-84556497D02*
X148122423Y-85216411D01*
X148023760Y-85330171D01*
X147899325Y-85381714D01*
X147749119Y-85371039D01*
X147661131Y-85334593D01*
X149104098Y-85210695D02*
X148848976Y-85826614D01*
X149029911Y-84767625D02*
X148536594Y-85336424D01*
X149108520Y-85573323D01*
X136220157Y-97238029D02*
X135560243Y-97511374D01*
X135410038Y-97522049D01*
X135285603Y-97470507D01*
X135186940Y-97356747D01*
X135150494Y-97268758D01*
X136365942Y-97589983D02*
X136602841Y-98161908D01*
X136123326Y-97999733D01*
X136177995Y-98131716D01*
X136170446Y-98237927D01*
X136144675Y-98300144D01*
X136074910Y-98380585D01*
X135854938Y-98471700D01*
X135748727Y-98464152D01*
X135686510Y-98438380D01*
X135606069Y-98368615D01*
X135496731Y-98104649D01*
X135504279Y-97998438D01*
X135530051Y-97936220D01*
X123603180Y-60456333D02*
X124317466Y-60456333D01*
X124460323Y-60503952D01*
X124555561Y-60599190D01*
X124603180Y-60742047D01*
X124603180Y-60837285D01*
X124603180Y-59456333D02*
X124603180Y-60027761D01*
X124603180Y-59742047D02*
X123603180Y-59742047D01*
X123746038Y-59837285D01*
X123841276Y-59932523D01*
X123888895Y-60027761D01*
X117376511Y-97792559D02*
X118036425Y-98065904D01*
X118150185Y-98164567D01*
X118201728Y-98289002D01*
X118191053Y-98439208D01*
X118154607Y-98527196D01*
X117628507Y-97433056D02*
X117602736Y-97370839D01*
X117595188Y-97264627D01*
X117686303Y-97044656D01*
X117766743Y-96974891D01*
X117828960Y-96949119D01*
X117935172Y-96941571D01*
X118023160Y-96978017D01*
X118136920Y-97076681D01*
X118446175Y-97823288D01*
X118683074Y-97251363D01*
X102116666Y-93114761D02*
X102259523Y-93162380D01*
X102497619Y-93162380D01*
X102592857Y-93114761D01*
X102640476Y-93067142D01*
X102688095Y-92971904D01*
X102688095Y-92876666D01*
X102640476Y-92781428D01*
X102592857Y-92733809D01*
X102497619Y-92686190D01*
X102307142Y-92638571D01*
X102211904Y-92590952D01*
X102164285Y-92543333D01*
X102116666Y-92448095D01*
X102116666Y-92352857D01*
X102164285Y-92257619D01*
X102211904Y-92210000D01*
X102307142Y-92162380D01*
X102545238Y-92162380D01*
X102688095Y-92210000D01*
X103116666Y-93162380D02*
X103116666Y-92162380D01*
X103450000Y-92876666D01*
X103783333Y-92162380D01*
X103783333Y-93162380D01*
X104116666Y-92162380D02*
X104688095Y-92162380D01*
X104402380Y-93162380D02*
X104402380Y-92162380D01*
X104973809Y-93114761D02*
X105116666Y-93162380D01*
X105354761Y-93162380D01*
X105450000Y-93114761D01*
X105497619Y-93067142D01*
X105545238Y-92971904D01*
X105545238Y-92876666D01*
X105497619Y-92781428D01*
X105450000Y-92733809D01*
X105354761Y-92686190D01*
X105164285Y-92638571D01*
X105069047Y-92590952D01*
X105021428Y-92543333D01*
X104973809Y-92448095D01*
X104973809Y-92352857D01*
X105021428Y-92257619D01*
X105069047Y-92210000D01*
X105164285Y-92162380D01*
X105402380Y-92162380D01*
X105545238Y-92210000D01*
X106164285Y-92162380D02*
X106354761Y-92162380D01*
X106450000Y-92210000D01*
X106545238Y-92305238D01*
X106592857Y-92495714D01*
X106592857Y-92829047D01*
X106545238Y-93019523D01*
X106450000Y-93114761D01*
X106354761Y-93162380D01*
X106164285Y-93162380D01*
X106069047Y-93114761D01*
X105973809Y-93019523D01*
X105926190Y-92829047D01*
X105926190Y-92495714D01*
X105973809Y-92305238D01*
X106069047Y-92210000D01*
X106164285Y-92162380D01*
X107021428Y-92781428D02*
X107783333Y-92781428D01*
X108259523Y-93162380D02*
X108259523Y-92162380D01*
X108592857Y-92876666D01*
X108926190Y-92162380D01*
X108926190Y-93162380D01*
X109307142Y-92162380D02*
X109926190Y-92162380D01*
X109592857Y-92543333D01*
X109735714Y-92543333D01*
X109830952Y-92590952D01*
X109878571Y-92638571D01*
X109926190Y-92733809D01*
X109926190Y-92971904D01*
X109878571Y-93067142D01*
X109830952Y-93114761D01*
X109735714Y-93162380D01*
X109450000Y-93162380D01*
X109354761Y-93114761D01*
X109307142Y-93067142D01*
X110354761Y-92781428D02*
X111116666Y-92781428D01*
X111497619Y-92162380D02*
X112116666Y-92162380D01*
X111783333Y-92543333D01*
X111926190Y-92543333D01*
X112021428Y-92590952D01*
X112069047Y-92638571D01*
X112116666Y-92733809D01*
X112116666Y-92971904D01*
X112069047Y-93067142D01*
X112021428Y-93114761D01*
X111926190Y-93162380D01*
X111640476Y-93162380D01*
X111545238Y-93114761D01*
X111497619Y-93067142D01*
X112545238Y-92638571D02*
X112878571Y-92638571D01*
X113021428Y-93162380D02*
X112545238Y-93162380D01*
X112545238Y-92162380D01*
X113021428Y-92162380D01*
X113307142Y-92162380D02*
X113878571Y-92162380D01*
X113592857Y-93162380D02*
X113592857Y-92162380D01*
M02*
