%TF.GenerationSoftware,KiCad,Pcbnew,9.0.0-9.0.0-2~ubuntu22.04.1*%
%TF.CreationDate,2025-04-23T13:28:03-07:00*%
%TF.ProjectId,mounted_cap_sense,6d6f756e-7465-4645-9f63-61705f73656e,rev?*%
%TF.SameCoordinates,Original*%
%TF.FileFunction,Drillmap*%
%TF.FilePolarity,Positive*%
%FSLAX45Y45*%
G04 Gerber Fmt 4.5, Leading zero omitted, Abs format (unit mm)*
G04 Created by KiCad (PCBNEW 9.0.0-9.0.0-2~ubuntu22.04.1) date 2025-04-23 13:28:03*
%MOMM*%
%LPD*%
G01*
G04 APERTURE LIST*
%ADD10C,0.200000*%
G04 APERTURE END LIST*
D10*
X13900000Y-7620000D02*
G75*
G02*
X11500000Y-7620000I-1200000J0D01*
G01*
X11500000Y-7620000D02*
G75*
G02*
X13900000Y-7620000I1200000J0D01*
G01*
X10057500Y-5430881D02*
G75*
G02*
X10510881Y-4977500I453381J0D01*
G01*
X14889119Y-4977500D02*
X10510881Y-4977500D01*
X14889119Y-4977500D02*
G75*
G02*
X15342500Y-5430881I0J-453381D01*
G01*
X15342500Y-5430881D02*
X15342500Y-9809119D01*
X10510881Y-10262500D02*
G75*
G02*
X10057500Y-9809119I0J453381D01*
G01*
X14889119Y-10262500D02*
X10510881Y-10262500D01*
X10057500Y-5430881D02*
X10057500Y-9809119D01*
X15342500Y-9809119D02*
G75*
G02*
X14889119Y-10262500I-453381J0D01*
G01*
X10308277Y-10583984D02*
X10308277Y-10383984D01*
X10308277Y-10383984D02*
X10355896Y-10383984D01*
X10355896Y-10383984D02*
X10384467Y-10393508D01*
X10384467Y-10393508D02*
X10403515Y-10412555D01*
X10403515Y-10412555D02*
X10413039Y-10431603D01*
X10413039Y-10431603D02*
X10422563Y-10469698D01*
X10422563Y-10469698D02*
X10422563Y-10498270D01*
X10422563Y-10498270D02*
X10413039Y-10536365D01*
X10413039Y-10536365D02*
X10403515Y-10555412D01*
X10403515Y-10555412D02*
X10384467Y-10574460D01*
X10384467Y-10574460D02*
X10355896Y-10583984D01*
X10355896Y-10583984D02*
X10308277Y-10583984D01*
X10508277Y-10583984D02*
X10508277Y-10450650D01*
X10508277Y-10488746D02*
X10517801Y-10469698D01*
X10517801Y-10469698D02*
X10527324Y-10460174D01*
X10527324Y-10460174D02*
X10546372Y-10450650D01*
X10546372Y-10450650D02*
X10565420Y-10450650D01*
X10632086Y-10583984D02*
X10632086Y-10450650D01*
X10632086Y-10383984D02*
X10622563Y-10393508D01*
X10622563Y-10393508D02*
X10632086Y-10403031D01*
X10632086Y-10403031D02*
X10641610Y-10393508D01*
X10641610Y-10393508D02*
X10632086Y-10383984D01*
X10632086Y-10383984D02*
X10632086Y-10403031D01*
X10755896Y-10583984D02*
X10736848Y-10574460D01*
X10736848Y-10574460D02*
X10727324Y-10555412D01*
X10727324Y-10555412D02*
X10727324Y-10383984D01*
X10860658Y-10583984D02*
X10841610Y-10574460D01*
X10841610Y-10574460D02*
X10832086Y-10555412D01*
X10832086Y-10555412D02*
X10832086Y-10383984D01*
X11089229Y-10583984D02*
X11089229Y-10383984D01*
X11089229Y-10383984D02*
X11155896Y-10526841D01*
X11155896Y-10526841D02*
X11222562Y-10383984D01*
X11222562Y-10383984D02*
X11222562Y-10583984D01*
X11403515Y-10583984D02*
X11403515Y-10479222D01*
X11403515Y-10479222D02*
X11393991Y-10460174D01*
X11393991Y-10460174D02*
X11374943Y-10450650D01*
X11374943Y-10450650D02*
X11336848Y-10450650D01*
X11336848Y-10450650D02*
X11317801Y-10460174D01*
X11403515Y-10574460D02*
X11384467Y-10583984D01*
X11384467Y-10583984D02*
X11336848Y-10583984D01*
X11336848Y-10583984D02*
X11317801Y-10574460D01*
X11317801Y-10574460D02*
X11308277Y-10555412D01*
X11308277Y-10555412D02*
X11308277Y-10536365D01*
X11308277Y-10536365D02*
X11317801Y-10517317D01*
X11317801Y-10517317D02*
X11336848Y-10507793D01*
X11336848Y-10507793D02*
X11384467Y-10507793D01*
X11384467Y-10507793D02*
X11403515Y-10498270D01*
X11498753Y-10450650D02*
X11498753Y-10650650D01*
X11498753Y-10460174D02*
X11517801Y-10450650D01*
X11517801Y-10450650D02*
X11555896Y-10450650D01*
X11555896Y-10450650D02*
X11574943Y-10460174D01*
X11574943Y-10460174D02*
X11584467Y-10469698D01*
X11584467Y-10469698D02*
X11593991Y-10488746D01*
X11593991Y-10488746D02*
X11593991Y-10545889D01*
X11593991Y-10545889D02*
X11584467Y-10564936D01*
X11584467Y-10564936D02*
X11574943Y-10574460D01*
X11574943Y-10574460D02*
X11555896Y-10583984D01*
X11555896Y-10583984D02*
X11517801Y-10583984D01*
X11517801Y-10583984D02*
X11498753Y-10574460D01*
X11679705Y-10564936D02*
X11689229Y-10574460D01*
X11689229Y-10574460D02*
X11679705Y-10583984D01*
X11679705Y-10583984D02*
X11670182Y-10574460D01*
X11670182Y-10574460D02*
X11679705Y-10564936D01*
X11679705Y-10564936D02*
X11679705Y-10583984D01*
X11679705Y-10460174D02*
X11689229Y-10469698D01*
X11689229Y-10469698D02*
X11679705Y-10479222D01*
X11679705Y-10479222D02*
X11670182Y-10469698D01*
X11670182Y-10469698D02*
X11679705Y-10460174D01*
X11679705Y-10460174D02*
X11679705Y-10479222D01*
M02*
