G04 #@! TF.GenerationSoftware,KiCad,Pcbnew,9.0.0-9.0.0-2~ubuntu22.04.1*
G04 #@! TF.CreationDate,2025-04-23T13:27:45-07:00*
G04 #@! TF.ProjectId,mounted_cap_sense,6d6f756e-7465-4645-9f63-61705f73656e,rev?*
G04 #@! TF.SameCoordinates,Original*
G04 #@! TF.FileFunction,Legend,Top*
G04 #@! TF.FilePolarity,Positive*
%FSLAX46Y46*%
G04 Gerber Fmt 4.6, Leading zero omitted, Abs format (unit mm)*
G04 Created by KiCad (PCBNEW 9.0.0-9.0.0-2~ubuntu22.04.1) date 2025-04-23 13:27:45*
%MOMM*%
%LPD*%
G01*
G04 APERTURE LIST*
G04 Aperture macros list*
%AMRotRect*
0 Rectangle, with rotation*
0 The origin of the aperture is its center*
0 $1 length*
0 $2 width*
0 $3 Rotation angle, in degrees counterclockwise*
0 Add horizontal line*
21,1,$1,$2,0,0,$3*%
%AMFreePoly0*
4,1,13,4.600000,1.150000,4.100000,1.150000,4.100000,2.100000,0.400000,2.099999,0.400000,-2.100000,4.100000,-2.100000,4.100000,-1.150000,4.600000,-1.150000,4.600000,-2.750000,-0.100000,-2.750000,-0.100000,2.750000,4.600000,2.750001,4.600000,1.150000,4.600000,1.150000,$1*%
G04 Aperture macros list end*
%ADD10C,0.150000*%
%ADD11FreePoly0,22.500000*%
%ADD12RotRect,1.800000X1.000000X22.500000*%
%ADD13FreePoly0,337.500000*%
%ADD14RotRect,1.800000X1.000000X337.500000*%
%ADD15FreePoly0,292.500000*%
%ADD16RotRect,1.800000X1.000000X292.500000*%
%ADD17FreePoly0,247.500000*%
%ADD18RotRect,1.800000X1.000000X247.500000*%
%ADD19FreePoly0,202.500000*%
%ADD20RotRect,1.800000X1.000000X202.500000*%
%ADD21FreePoly0,157.500000*%
%ADD22RotRect,1.800000X1.000000X157.500000*%
%ADD23FreePoly0,112.500000*%
%ADD24RotRect,1.800000X1.000000X112.500000*%
%ADD25FreePoly0,90.000000*%
%ADD26R,1.000000X1.800000*%
%ADD27FreePoly0,67.500000*%
%ADD28RotRect,1.800000X1.000000X67.500000*%
%ADD29C,7.000000*%
G04 APERTURE END LIST*
D10*
X103515390Y-85191904D02*
X103467771Y-85287142D01*
X103467771Y-85287142D02*
X103420152Y-85334761D01*
X103420152Y-85334761D02*
X103324914Y-85382380D01*
X103324914Y-85382380D02*
X103277295Y-85382380D01*
X103277295Y-85382380D02*
X103182057Y-85334761D01*
X103182057Y-85334761D02*
X103134438Y-85287142D01*
X103134438Y-85287142D02*
X103086819Y-85191904D01*
X103086819Y-85191904D02*
X103086819Y-85001428D01*
X103086819Y-85001428D02*
X103134438Y-84906190D01*
X103134438Y-84906190D02*
X103182057Y-84858571D01*
X103182057Y-84858571D02*
X103277295Y-84810952D01*
X103277295Y-84810952D02*
X103324914Y-84810952D01*
X103324914Y-84810952D02*
X103420152Y-84858571D01*
X103420152Y-84858571D02*
X103467771Y-84906190D01*
X103467771Y-84906190D02*
X103515390Y-85001428D01*
X103515390Y-85001428D02*
X103515390Y-85191904D01*
X103515390Y-85191904D02*
X103563009Y-85287142D01*
X103563009Y-85287142D02*
X103610628Y-85334761D01*
X103610628Y-85334761D02*
X103705866Y-85382380D01*
X103705866Y-85382380D02*
X103896342Y-85382380D01*
X103896342Y-85382380D02*
X103991580Y-85334761D01*
X103991580Y-85334761D02*
X104039200Y-85287142D01*
X104039200Y-85287142D02*
X104086819Y-85191904D01*
X104086819Y-85191904D02*
X104086819Y-85001428D01*
X104086819Y-85001428D02*
X104039200Y-84906190D01*
X104039200Y-84906190D02*
X103991580Y-84858571D01*
X103991580Y-84858571D02*
X103896342Y-84810952D01*
X103896342Y-84810952D02*
X103705866Y-84810952D01*
X103705866Y-84810952D02*
X103610628Y-84858571D01*
X103610628Y-84858571D02*
X103563009Y-84906190D01*
X103563009Y-84906190D02*
X103515390Y-85001428D01*
X103182057Y-84429999D02*
X103134438Y-84382380D01*
X103134438Y-84382380D02*
X103086819Y-84287142D01*
X103086819Y-84287142D02*
X103086819Y-84049047D01*
X103086819Y-84049047D02*
X103134438Y-83953809D01*
X103134438Y-83953809D02*
X103182057Y-83906190D01*
X103182057Y-83906190D02*
X103277295Y-83858571D01*
X103277295Y-83858571D02*
X103372533Y-83858571D01*
X103372533Y-83858571D02*
X103515390Y-83906190D01*
X103515390Y-83906190D02*
X104086819Y-84477618D01*
X104086819Y-84477618D02*
X104086819Y-83858571D01*
X104182057Y-83668095D02*
X104182057Y-82906190D01*
X104086819Y-82668094D02*
X103086819Y-82668094D01*
X103086819Y-82668094D02*
X103801104Y-82334761D01*
X103801104Y-82334761D02*
X103086819Y-82001428D01*
X103086819Y-82001428D02*
X104086819Y-82001428D01*
X104086819Y-81525237D02*
X103086819Y-81525237D01*
X103086819Y-81525237D02*
X103801104Y-81191904D01*
X103801104Y-81191904D02*
X103086819Y-80858571D01*
X103086819Y-80858571D02*
X104086819Y-80858571D01*
X103991580Y-79810952D02*
X104039200Y-79858571D01*
X104039200Y-79858571D02*
X104086819Y-80001428D01*
X104086819Y-80001428D02*
X104086819Y-80096666D01*
X104086819Y-80096666D02*
X104039200Y-80239523D01*
X104039200Y-80239523D02*
X103943961Y-80334761D01*
X103943961Y-80334761D02*
X103848723Y-80382380D01*
X103848723Y-80382380D02*
X103658247Y-80429999D01*
X103658247Y-80429999D02*
X103515390Y-80429999D01*
X103515390Y-80429999D02*
X103324914Y-80382380D01*
X103324914Y-80382380D02*
X103229676Y-80334761D01*
X103229676Y-80334761D02*
X103134438Y-80239523D01*
X103134438Y-80239523D02*
X103086819Y-80096666D01*
X103086819Y-80096666D02*
X103086819Y-80001428D01*
X103086819Y-80001428D02*
X103134438Y-79858571D01*
X103134438Y-79858571D02*
X103182057Y-79810952D01*
X103086819Y-79477618D02*
X104086819Y-78810952D01*
X103086819Y-78810952D02*
X104086819Y-79477618D01*
X103705866Y-78429999D02*
X103705866Y-77668095D01*
X103086819Y-76715714D02*
X103086819Y-77191904D01*
X103086819Y-77191904D02*
X103563009Y-77239523D01*
X103563009Y-77239523D02*
X103515390Y-77191904D01*
X103515390Y-77191904D02*
X103467771Y-77096666D01*
X103467771Y-77096666D02*
X103467771Y-76858571D01*
X103467771Y-76858571D02*
X103515390Y-76763333D01*
X103515390Y-76763333D02*
X103563009Y-76715714D01*
X103563009Y-76715714D02*
X103658247Y-76668095D01*
X103658247Y-76668095D02*
X103896342Y-76668095D01*
X103896342Y-76668095D02*
X103991580Y-76715714D01*
X103991580Y-76715714D02*
X104039200Y-76763333D01*
X104039200Y-76763333D02*
X104086819Y-76858571D01*
X104086819Y-76858571D02*
X104086819Y-77096666D01*
X104086819Y-77096666D02*
X104039200Y-77191904D01*
X104039200Y-77191904D02*
X103991580Y-77239523D01*
X103086819Y-76049047D02*
X103086819Y-75953809D01*
X103086819Y-75953809D02*
X103134438Y-75858571D01*
X103134438Y-75858571D02*
X103182057Y-75810952D01*
X103182057Y-75810952D02*
X103277295Y-75763333D01*
X103277295Y-75763333D02*
X103467771Y-75715714D01*
X103467771Y-75715714D02*
X103705866Y-75715714D01*
X103705866Y-75715714D02*
X103896342Y-75763333D01*
X103896342Y-75763333D02*
X103991580Y-75810952D01*
X103991580Y-75810952D02*
X104039200Y-75858571D01*
X104039200Y-75858571D02*
X104086819Y-75953809D01*
X104086819Y-75953809D02*
X104086819Y-76049047D01*
X104086819Y-76049047D02*
X104039200Y-76144285D01*
X104039200Y-76144285D02*
X103991580Y-76191904D01*
X103991580Y-76191904D02*
X103896342Y-76239523D01*
X103896342Y-76239523D02*
X103705866Y-76287142D01*
X103705866Y-76287142D02*
X103467771Y-76287142D01*
X103467771Y-76287142D02*
X103277295Y-76239523D01*
X103277295Y-76239523D02*
X103182057Y-76191904D01*
X103182057Y-76191904D02*
X103134438Y-76144285D01*
X103134438Y-76144285D02*
X103086819Y-76049047D01*
X103705866Y-75287142D02*
X103705866Y-74525238D01*
X103086819Y-73858571D02*
X103086819Y-73763333D01*
X103086819Y-73763333D02*
X103134438Y-73668095D01*
X103134438Y-73668095D02*
X103182057Y-73620476D01*
X103182057Y-73620476D02*
X103277295Y-73572857D01*
X103277295Y-73572857D02*
X103467771Y-73525238D01*
X103467771Y-73525238D02*
X103705866Y-73525238D01*
X103705866Y-73525238D02*
X103896342Y-73572857D01*
X103896342Y-73572857D02*
X103991580Y-73620476D01*
X103991580Y-73620476D02*
X104039200Y-73668095D01*
X104039200Y-73668095D02*
X104086819Y-73763333D01*
X104086819Y-73763333D02*
X104086819Y-73858571D01*
X104086819Y-73858571D02*
X104039200Y-73953809D01*
X104039200Y-73953809D02*
X103991580Y-74001428D01*
X103991580Y-74001428D02*
X103896342Y-74049047D01*
X103896342Y-74049047D02*
X103705866Y-74096666D01*
X103705866Y-74096666D02*
X103467771Y-74096666D01*
X103467771Y-74096666D02*
X103277295Y-74049047D01*
X103277295Y-74049047D02*
X103182057Y-74001428D01*
X103182057Y-74001428D02*
X103134438Y-73953809D01*
X103134438Y-73953809D02*
X103086819Y-73858571D01*
X103705866Y-73096666D02*
X103705866Y-72334762D01*
X103515390Y-71715714D02*
X103467771Y-71810952D01*
X103467771Y-71810952D02*
X103420152Y-71858571D01*
X103420152Y-71858571D02*
X103324914Y-71906190D01*
X103324914Y-71906190D02*
X103277295Y-71906190D01*
X103277295Y-71906190D02*
X103182057Y-71858571D01*
X103182057Y-71858571D02*
X103134438Y-71810952D01*
X103134438Y-71810952D02*
X103086819Y-71715714D01*
X103086819Y-71715714D02*
X103086819Y-71525238D01*
X103086819Y-71525238D02*
X103134438Y-71430000D01*
X103134438Y-71430000D02*
X103182057Y-71382381D01*
X103182057Y-71382381D02*
X103277295Y-71334762D01*
X103277295Y-71334762D02*
X103324914Y-71334762D01*
X103324914Y-71334762D02*
X103420152Y-71382381D01*
X103420152Y-71382381D02*
X103467771Y-71430000D01*
X103467771Y-71430000D02*
X103515390Y-71525238D01*
X103515390Y-71525238D02*
X103515390Y-71715714D01*
X103515390Y-71715714D02*
X103563009Y-71810952D01*
X103563009Y-71810952D02*
X103610628Y-71858571D01*
X103610628Y-71858571D02*
X103705866Y-71906190D01*
X103705866Y-71906190D02*
X103896342Y-71906190D01*
X103896342Y-71906190D02*
X103991580Y-71858571D01*
X103991580Y-71858571D02*
X104039200Y-71810952D01*
X104039200Y-71810952D02*
X104086819Y-71715714D01*
X104086819Y-71715714D02*
X104086819Y-71525238D01*
X104086819Y-71525238D02*
X104039200Y-71430000D01*
X104039200Y-71430000D02*
X103991580Y-71382381D01*
X103991580Y-71382381D02*
X103896342Y-71334762D01*
X103896342Y-71334762D02*
X103705866Y-71334762D01*
X103705866Y-71334762D02*
X103610628Y-71382381D01*
X103610628Y-71382381D02*
X103563009Y-71430000D01*
X103563009Y-71430000D02*
X103515390Y-71525238D01*
X103039200Y-70191905D02*
X104324914Y-71049047D01*
X104086819Y-69334762D02*
X104086819Y-69906190D01*
X104086819Y-69620476D02*
X103086819Y-69620476D01*
X103086819Y-69620476D02*
X103229676Y-69715714D01*
X103229676Y-69715714D02*
X103324914Y-69810952D01*
X103324914Y-69810952D02*
X103372533Y-69906190D01*
X104086819Y-68382381D02*
X104086819Y-68953809D01*
X104086819Y-68668095D02*
X103086819Y-68668095D01*
X103086819Y-68668095D02*
X103229676Y-68763333D01*
X103229676Y-68763333D02*
X103324914Y-68858571D01*
X103324914Y-68858571D02*
X103372533Y-68953809D01*
X104086819Y-67430000D02*
X104086819Y-68001428D01*
X104086819Y-67715714D02*
X103086819Y-67715714D01*
X103086819Y-67715714D02*
X103229676Y-67810952D01*
X103229676Y-67810952D02*
X103324914Y-67906190D01*
X103324914Y-67906190D02*
X103372533Y-68001428D01*
X104182057Y-67239524D02*
X104182057Y-66477619D01*
X103086819Y-66049047D02*
X103086819Y-65858571D01*
X103086819Y-65858571D02*
X103134438Y-65763333D01*
X103134438Y-65763333D02*
X103229676Y-65668095D01*
X103229676Y-65668095D02*
X103420152Y-65620476D01*
X103420152Y-65620476D02*
X103753485Y-65620476D01*
X103753485Y-65620476D02*
X103943961Y-65668095D01*
X103943961Y-65668095D02*
X104039200Y-65763333D01*
X104039200Y-65763333D02*
X104086819Y-65858571D01*
X104086819Y-65858571D02*
X104086819Y-66049047D01*
X104086819Y-66049047D02*
X104039200Y-66144285D01*
X104039200Y-66144285D02*
X103943961Y-66239523D01*
X103943961Y-66239523D02*
X103753485Y-66287142D01*
X103753485Y-66287142D02*
X103420152Y-66287142D01*
X103420152Y-66287142D02*
X103229676Y-66239523D01*
X103229676Y-66239523D02*
X103134438Y-66144285D01*
X103134438Y-66144285D02*
X103086819Y-66049047D01*
X104086819Y-65191904D02*
X103086819Y-65191904D01*
X103086819Y-65191904D02*
X103801104Y-64858571D01*
X103801104Y-64858571D02*
X103086819Y-64525238D01*
X103086819Y-64525238D02*
X104086819Y-64525238D01*
X121571428Y-100784819D02*
X121571428Y-99784819D01*
X121571428Y-99784819D02*
X121904761Y-100499104D01*
X121904761Y-100499104D02*
X122238094Y-99784819D01*
X122238094Y-99784819D02*
X122238094Y-100784819D01*
X122714285Y-100784819D02*
X122714285Y-99784819D01*
X122714285Y-99784819D02*
X123047618Y-100499104D01*
X123047618Y-100499104D02*
X123380951Y-99784819D01*
X123380951Y-99784819D02*
X123380951Y-100784819D01*
X124428570Y-100689580D02*
X124380951Y-100737200D01*
X124380951Y-100737200D02*
X124238094Y-100784819D01*
X124238094Y-100784819D02*
X124142856Y-100784819D01*
X124142856Y-100784819D02*
X123999999Y-100737200D01*
X123999999Y-100737200D02*
X123904761Y-100641961D01*
X123904761Y-100641961D02*
X123857142Y-100546723D01*
X123857142Y-100546723D02*
X123809523Y-100356247D01*
X123809523Y-100356247D02*
X123809523Y-100213390D01*
X123809523Y-100213390D02*
X123857142Y-100022914D01*
X123857142Y-100022914D02*
X123904761Y-99927676D01*
X123904761Y-99927676D02*
X123999999Y-99832438D01*
X123999999Y-99832438D02*
X124142856Y-99784819D01*
X124142856Y-99784819D02*
X124238094Y-99784819D01*
X124238094Y-99784819D02*
X124380951Y-99832438D01*
X124380951Y-99832438D02*
X124428570Y-99880057D01*
X124761904Y-99784819D02*
X125428570Y-100784819D01*
X125428570Y-99784819D02*
X124761904Y-100784819D01*
X126476190Y-100118152D02*
X126714285Y-100784819D01*
X126714285Y-100784819D02*
X126952380Y-100118152D01*
X127761904Y-100118152D02*
X127761904Y-100784819D01*
X127523809Y-99737200D02*
X127285714Y-100451485D01*
X127285714Y-100451485D02*
X127904761Y-100451485D01*
X129047619Y-100784819D02*
X129047619Y-99784819D01*
X129047619Y-99784819D02*
X129428571Y-99784819D01*
X129428571Y-99784819D02*
X129523809Y-99832438D01*
X129523809Y-99832438D02*
X129571428Y-99880057D01*
X129571428Y-99880057D02*
X129619047Y-99975295D01*
X129619047Y-99975295D02*
X129619047Y-100118152D01*
X129619047Y-100118152D02*
X129571428Y-100213390D01*
X129571428Y-100213390D02*
X129523809Y-100261009D01*
X129523809Y-100261009D02*
X129428571Y-100308628D01*
X129428571Y-100308628D02*
X129047619Y-100308628D01*
X130190476Y-100784819D02*
X130095238Y-100737200D01*
X130095238Y-100737200D02*
X130047619Y-100641961D01*
X130047619Y-100641961D02*
X130047619Y-99784819D01*
X131000000Y-100784819D02*
X131000000Y-100261009D01*
X131000000Y-100261009D02*
X130952381Y-100165771D01*
X130952381Y-100165771D02*
X130857143Y-100118152D01*
X130857143Y-100118152D02*
X130666667Y-100118152D01*
X130666667Y-100118152D02*
X130571429Y-100165771D01*
X131000000Y-100737200D02*
X130904762Y-100784819D01*
X130904762Y-100784819D02*
X130666667Y-100784819D01*
X130666667Y-100784819D02*
X130571429Y-100737200D01*
X130571429Y-100737200D02*
X130523810Y-100641961D01*
X130523810Y-100641961D02*
X130523810Y-100546723D01*
X130523810Y-100546723D02*
X130571429Y-100451485D01*
X130571429Y-100451485D02*
X130666667Y-100403866D01*
X130666667Y-100403866D02*
X130904762Y-100403866D01*
X130904762Y-100403866D02*
X131000000Y-100356247D01*
X131333334Y-100118152D02*
X131714286Y-100118152D01*
X131476191Y-99784819D02*
X131476191Y-100641961D01*
X131476191Y-100641961D02*
X131523810Y-100737200D01*
X131523810Y-100737200D02*
X131619048Y-100784819D01*
X131619048Y-100784819D02*
X131714286Y-100784819D01*
X132428572Y-100737200D02*
X132333334Y-100784819D01*
X132333334Y-100784819D02*
X132142858Y-100784819D01*
X132142858Y-100784819D02*
X132047620Y-100737200D01*
X132047620Y-100737200D02*
X132000001Y-100641961D01*
X132000001Y-100641961D02*
X132000001Y-100261009D01*
X132000001Y-100261009D02*
X132047620Y-100165771D01*
X132047620Y-100165771D02*
X132142858Y-100118152D01*
X132142858Y-100118152D02*
X132333334Y-100118152D01*
X132333334Y-100118152D02*
X132428572Y-100165771D01*
X132428572Y-100165771D02*
X132476191Y-100261009D01*
X132476191Y-100261009D02*
X132476191Y-100356247D01*
X132476191Y-100356247D02*
X132000001Y-100451485D01*
X104927854Y-84665664D02*
X105201199Y-85325578D01*
X105201199Y-85325578D02*
X105211874Y-85475784D01*
X105211874Y-85475784D02*
X105160331Y-85600219D01*
X105160331Y-85600219D02*
X105046572Y-85698882D01*
X105046572Y-85698882D02*
X104958583Y-85735328D01*
X105794474Y-85389090D02*
X105970451Y-85316198D01*
X105970451Y-85316198D02*
X106040217Y-85235758D01*
X106040217Y-85235758D02*
X106065988Y-85173541D01*
X106065988Y-85173541D02*
X106099308Y-85005112D01*
X106099308Y-85005112D02*
X106070410Y-84810912D01*
X106070410Y-84810912D02*
X105924626Y-84458958D01*
X105924626Y-84458958D02*
X105844185Y-84389192D01*
X105844185Y-84389192D02*
X105781968Y-84363421D01*
X105781968Y-84363421D02*
X105675757Y-84355873D01*
X105675757Y-84355873D02*
X105499779Y-84428765D01*
X105499779Y-84428765D02*
X105430014Y-84509205D01*
X105430014Y-84509205D02*
X105404243Y-84571422D01*
X105404243Y-84571422D02*
X105396694Y-84677634D01*
X105396694Y-84677634D02*
X105487810Y-84897605D01*
X105487810Y-84897605D02*
X105568250Y-84967371D01*
X105568250Y-84967371D02*
X105630467Y-84993142D01*
X105630467Y-84993142D02*
X105736679Y-85000690D01*
X105736679Y-85000690D02*
X105912656Y-84927798D01*
X105912656Y-84927798D02*
X105982421Y-84847358D01*
X105982421Y-84847358D02*
X106008193Y-84785141D01*
X106008193Y-84785141D02*
X106015741Y-84678929D01*
X105406507Y-66578764D02*
X105133162Y-67238678D01*
X105133162Y-67238678D02*
X105034499Y-67352437D01*
X105034499Y-67352437D02*
X104910064Y-67403980D01*
X104910064Y-67403980D02*
X104759858Y-67393305D01*
X104759858Y-67393305D02*
X104671870Y-67356859D01*
X105814426Y-67211612D02*
X105744660Y-67131171D01*
X105744660Y-67131171D02*
X105718889Y-67068954D01*
X105718889Y-67068954D02*
X105711341Y-66962742D01*
X105711341Y-66962742D02*
X105729564Y-66918748D01*
X105729564Y-66918748D02*
X105810004Y-66848983D01*
X105810004Y-66848983D02*
X105872221Y-66823211D01*
X105872221Y-66823211D02*
X105978433Y-66815663D01*
X105978433Y-66815663D02*
X106154410Y-66888555D01*
X106154410Y-66888555D02*
X106224175Y-66968996D01*
X106224175Y-66968996D02*
X106249947Y-67031213D01*
X106249947Y-67031213D02*
X106257495Y-67137424D01*
X106257495Y-67137424D02*
X106239272Y-67181419D01*
X106239272Y-67181419D02*
X106158832Y-67251184D01*
X106158832Y-67251184D02*
X106096614Y-67276955D01*
X106096614Y-67276955D02*
X105990403Y-67284504D01*
X105990403Y-67284504D02*
X105814426Y-67211612D01*
X105814426Y-67211612D02*
X105708214Y-67219160D01*
X105708214Y-67219160D02*
X105645997Y-67244931D01*
X105645997Y-67244931D02*
X105565557Y-67314696D01*
X105565557Y-67314696D02*
X105492664Y-67490674D01*
X105492664Y-67490674D02*
X105500213Y-67596885D01*
X105500213Y-67596885D02*
X105525984Y-67659102D01*
X105525984Y-67659102D02*
X105595749Y-67739543D01*
X105595749Y-67739543D02*
X105771727Y-67812435D01*
X105771727Y-67812435D02*
X105877938Y-67804887D01*
X105877938Y-67804887D02*
X105940155Y-67779115D01*
X105940155Y-67779115D02*
X106020596Y-67709350D01*
X106020596Y-67709350D02*
X106093488Y-67533373D01*
X106093488Y-67533373D02*
X106085940Y-67427161D01*
X106085940Y-67427161D02*
X106060168Y-67364944D01*
X106060168Y-67364944D02*
X105990403Y-67284504D01*
X118534335Y-54127854D02*
X117874421Y-54401199D01*
X117874421Y-54401199D02*
X117724215Y-54411874D01*
X117724215Y-54411874D02*
X117599780Y-54360331D01*
X117599780Y-54360331D02*
X117501117Y-54246572D01*
X117501117Y-54246572D02*
X117464671Y-54158583D01*
X118680119Y-54479808D02*
X118935241Y-55095728D01*
X118935241Y-55095728D02*
X117847355Y-55082463D01*
X135358750Y-54805164D02*
X136018664Y-55078509D01*
X136018664Y-55078509D02*
X136132423Y-55177172D01*
X136132423Y-55177172D02*
X136183966Y-55301607D01*
X136183966Y-55301607D02*
X136173291Y-55451813D01*
X136173291Y-55451813D02*
X136136845Y-55539801D01*
X135704987Y-53969273D02*
X135632095Y-54145250D01*
X135632095Y-54145250D02*
X135639643Y-54251461D01*
X135639643Y-54251461D02*
X135665415Y-54313678D01*
X135665415Y-54313678D02*
X135760951Y-54456336D01*
X135760951Y-54456336D02*
X135918705Y-54573222D01*
X135918705Y-54573222D02*
X136270660Y-54719007D01*
X136270660Y-54719007D02*
X136376871Y-54711458D01*
X136376871Y-54711458D02*
X136439088Y-54685687D01*
X136439088Y-54685687D02*
X136519529Y-54615922D01*
X136519529Y-54615922D02*
X136592421Y-54439944D01*
X136592421Y-54439944D02*
X136584873Y-54333733D01*
X136584873Y-54333733D02*
X136559101Y-54271516D01*
X136559101Y-54271516D02*
X136489336Y-54191075D01*
X136489336Y-54191075D02*
X136269364Y-54099960D01*
X136269364Y-54099960D02*
X136163153Y-54107508D01*
X136163153Y-54107508D02*
X136100936Y-54133280D01*
X136100936Y-54133280D02*
X136020495Y-54203045D01*
X136020495Y-54203045D02*
X135947603Y-54379022D01*
X135947603Y-54379022D02*
X135955151Y-54485234D01*
X135955151Y-54485234D02*
X135980923Y-54547451D01*
X135980923Y-54547451D02*
X136050688Y-54627891D01*
X148038962Y-66982094D02*
X148312307Y-67642008D01*
X148312307Y-67642008D02*
X148322982Y-67792214D01*
X148322982Y-67792214D02*
X148271439Y-67916649D01*
X148271439Y-67916649D02*
X148157680Y-68015312D01*
X148157680Y-68015312D02*
X148069691Y-68051758D01*
X148918847Y-66617634D02*
X148478905Y-66799864D01*
X148478905Y-66799864D02*
X148617141Y-67258030D01*
X148617141Y-67258030D02*
X148642912Y-67195812D01*
X148642912Y-67195812D02*
X148712677Y-67115372D01*
X148712677Y-67115372D02*
X148932649Y-67024257D01*
X148932649Y-67024257D02*
X149038860Y-67031805D01*
X149038860Y-67031805D02*
X149101078Y-67057576D01*
X149101078Y-67057576D02*
X149181518Y-67127342D01*
X149181518Y-67127342D02*
X149272633Y-67347313D01*
X149272633Y-67347313D02*
X149265085Y-67453525D01*
X149265085Y-67453525D02*
X149239313Y-67515742D01*
X149239313Y-67515742D02*
X149169548Y-67596182D01*
X149169548Y-67596182D02*
X148949577Y-67687297D01*
X148949577Y-67687297D02*
X148843365Y-67679749D01*
X148843365Y-67679749D02*
X148781148Y-67653978D01*
X148394835Y-84558750D02*
X148121490Y-85218664D01*
X148121490Y-85218664D02*
X148022827Y-85332423D01*
X148022827Y-85332423D02*
X147898392Y-85383966D01*
X147898392Y-85383966D02*
X147748186Y-85373291D01*
X147748186Y-85373291D02*
X147660198Y-85336845D01*
X149103165Y-85212947D02*
X148848043Y-85828867D01*
X149028978Y-84769878D02*
X148535662Y-85338677D01*
X148535662Y-85338677D02*
X149107587Y-85575576D01*
X136217905Y-97238962D02*
X135557991Y-97512307D01*
X135557991Y-97512307D02*
X135407785Y-97522982D01*
X135407785Y-97522982D02*
X135283350Y-97471439D01*
X135283350Y-97471439D02*
X135184687Y-97357680D01*
X135184687Y-97357680D02*
X135148241Y-97269691D01*
X136363689Y-97590916D02*
X136600588Y-98162842D01*
X136600588Y-98162842D02*
X136121073Y-98000666D01*
X136121073Y-98000666D02*
X136175742Y-98132649D01*
X136175742Y-98132649D02*
X136168194Y-98238860D01*
X136168194Y-98238860D02*
X136142423Y-98301078D01*
X136142423Y-98301078D02*
X136072657Y-98381518D01*
X136072657Y-98381518D02*
X135852686Y-98472633D01*
X135852686Y-98472633D02*
X135746474Y-98465085D01*
X135746474Y-98465085D02*
X135684257Y-98439313D01*
X135684257Y-98439313D02*
X135603817Y-98369548D01*
X135603817Y-98369548D02*
X135494479Y-98105582D01*
X135494479Y-98105582D02*
X135502027Y-97999371D01*
X135502027Y-97999371D02*
X135527798Y-97937154D01*
X123605619Y-60456333D02*
X124319904Y-60456333D01*
X124319904Y-60456333D02*
X124462761Y-60503952D01*
X124462761Y-60503952D02*
X124558000Y-60599190D01*
X124558000Y-60599190D02*
X124605619Y-60742047D01*
X124605619Y-60742047D02*
X124605619Y-60837285D01*
X124605619Y-59456333D02*
X124605619Y-60027761D01*
X124605619Y-59742047D02*
X123605619Y-59742047D01*
X123605619Y-59742047D02*
X123748476Y-59837285D01*
X123748476Y-59837285D02*
X123843714Y-59932523D01*
X123843714Y-59932523D02*
X123891333Y-60027761D01*
X117378764Y-97793492D02*
X118038678Y-98066837D01*
X118038678Y-98066837D02*
X118152437Y-98165500D01*
X118152437Y-98165500D02*
X118203980Y-98289935D01*
X118203980Y-98289935D02*
X118193305Y-98440141D01*
X118193305Y-98440141D02*
X118156859Y-98528129D01*
X117630760Y-97433989D02*
X117604988Y-97371772D01*
X117604988Y-97371772D02*
X117597440Y-97265560D01*
X117597440Y-97265560D02*
X117688555Y-97045589D01*
X117688555Y-97045589D02*
X117768996Y-96975824D01*
X117768996Y-96975824D02*
X117831213Y-96950052D01*
X117831213Y-96950052D02*
X117937424Y-96942504D01*
X117937424Y-96942504D02*
X118025413Y-96978950D01*
X118025413Y-96978950D02*
X118139173Y-97077613D01*
X118139173Y-97077613D02*
X118448428Y-97824221D01*
X118448428Y-97824221D02*
X118685327Y-97252295D01*
X102116667Y-93117200D02*
X102259524Y-93164819D01*
X102259524Y-93164819D02*
X102497619Y-93164819D01*
X102497619Y-93164819D02*
X102592857Y-93117200D01*
X102592857Y-93117200D02*
X102640476Y-93069580D01*
X102640476Y-93069580D02*
X102688095Y-92974342D01*
X102688095Y-92974342D02*
X102688095Y-92879104D01*
X102688095Y-92879104D02*
X102640476Y-92783866D01*
X102640476Y-92783866D02*
X102592857Y-92736247D01*
X102592857Y-92736247D02*
X102497619Y-92688628D01*
X102497619Y-92688628D02*
X102307143Y-92641009D01*
X102307143Y-92641009D02*
X102211905Y-92593390D01*
X102211905Y-92593390D02*
X102164286Y-92545771D01*
X102164286Y-92545771D02*
X102116667Y-92450533D01*
X102116667Y-92450533D02*
X102116667Y-92355295D01*
X102116667Y-92355295D02*
X102164286Y-92260057D01*
X102164286Y-92260057D02*
X102211905Y-92212438D01*
X102211905Y-92212438D02*
X102307143Y-92164819D01*
X102307143Y-92164819D02*
X102545238Y-92164819D01*
X102545238Y-92164819D02*
X102688095Y-92212438D01*
X103116667Y-93164819D02*
X103116667Y-92164819D01*
X103116667Y-92164819D02*
X103450000Y-92879104D01*
X103450000Y-92879104D02*
X103783333Y-92164819D01*
X103783333Y-92164819D02*
X103783333Y-93164819D01*
X104116667Y-92164819D02*
X104688095Y-92164819D01*
X104402381Y-93164819D02*
X104402381Y-92164819D01*
X104973810Y-93117200D02*
X105116667Y-93164819D01*
X105116667Y-93164819D02*
X105354762Y-93164819D01*
X105354762Y-93164819D02*
X105450000Y-93117200D01*
X105450000Y-93117200D02*
X105497619Y-93069580D01*
X105497619Y-93069580D02*
X105545238Y-92974342D01*
X105545238Y-92974342D02*
X105545238Y-92879104D01*
X105545238Y-92879104D02*
X105497619Y-92783866D01*
X105497619Y-92783866D02*
X105450000Y-92736247D01*
X105450000Y-92736247D02*
X105354762Y-92688628D01*
X105354762Y-92688628D02*
X105164286Y-92641009D01*
X105164286Y-92641009D02*
X105069048Y-92593390D01*
X105069048Y-92593390D02*
X105021429Y-92545771D01*
X105021429Y-92545771D02*
X104973810Y-92450533D01*
X104973810Y-92450533D02*
X104973810Y-92355295D01*
X104973810Y-92355295D02*
X105021429Y-92260057D01*
X105021429Y-92260057D02*
X105069048Y-92212438D01*
X105069048Y-92212438D02*
X105164286Y-92164819D01*
X105164286Y-92164819D02*
X105402381Y-92164819D01*
X105402381Y-92164819D02*
X105545238Y-92212438D01*
X106164286Y-92164819D02*
X106354762Y-92164819D01*
X106354762Y-92164819D02*
X106450000Y-92212438D01*
X106450000Y-92212438D02*
X106545238Y-92307676D01*
X106545238Y-92307676D02*
X106592857Y-92498152D01*
X106592857Y-92498152D02*
X106592857Y-92831485D01*
X106592857Y-92831485D02*
X106545238Y-93021961D01*
X106545238Y-93021961D02*
X106450000Y-93117200D01*
X106450000Y-93117200D02*
X106354762Y-93164819D01*
X106354762Y-93164819D02*
X106164286Y-93164819D01*
X106164286Y-93164819D02*
X106069048Y-93117200D01*
X106069048Y-93117200D02*
X105973810Y-93021961D01*
X105973810Y-93021961D02*
X105926191Y-92831485D01*
X105926191Y-92831485D02*
X105926191Y-92498152D01*
X105926191Y-92498152D02*
X105973810Y-92307676D01*
X105973810Y-92307676D02*
X106069048Y-92212438D01*
X106069048Y-92212438D02*
X106164286Y-92164819D01*
X107021429Y-92783866D02*
X107783334Y-92783866D01*
X108259524Y-93164819D02*
X108259524Y-92164819D01*
X108259524Y-92164819D02*
X108592857Y-92879104D01*
X108592857Y-92879104D02*
X108926190Y-92164819D01*
X108926190Y-92164819D02*
X108926190Y-93164819D01*
X109307143Y-92164819D02*
X109926190Y-92164819D01*
X109926190Y-92164819D02*
X109592857Y-92545771D01*
X109592857Y-92545771D02*
X109735714Y-92545771D01*
X109735714Y-92545771D02*
X109830952Y-92593390D01*
X109830952Y-92593390D02*
X109878571Y-92641009D01*
X109878571Y-92641009D02*
X109926190Y-92736247D01*
X109926190Y-92736247D02*
X109926190Y-92974342D01*
X109926190Y-92974342D02*
X109878571Y-93069580D01*
X109878571Y-93069580D02*
X109830952Y-93117200D01*
X109830952Y-93117200D02*
X109735714Y-93164819D01*
X109735714Y-93164819D02*
X109450000Y-93164819D01*
X109450000Y-93164819D02*
X109354762Y-93117200D01*
X109354762Y-93117200D02*
X109307143Y-93069580D01*
X110354762Y-92783866D02*
X111116667Y-92783866D01*
X111497619Y-92164819D02*
X112116666Y-92164819D01*
X112116666Y-92164819D02*
X111783333Y-92545771D01*
X111783333Y-92545771D02*
X111926190Y-92545771D01*
X111926190Y-92545771D02*
X112021428Y-92593390D01*
X112021428Y-92593390D02*
X112069047Y-92641009D01*
X112069047Y-92641009D02*
X112116666Y-92736247D01*
X112116666Y-92736247D02*
X112116666Y-92974342D01*
X112116666Y-92974342D02*
X112069047Y-93069580D01*
X112069047Y-93069580D02*
X112021428Y-93117200D01*
X112021428Y-93117200D02*
X111926190Y-93164819D01*
X111926190Y-93164819D02*
X111640476Y-93164819D01*
X111640476Y-93164819D02*
X111545238Y-93117200D01*
X111545238Y-93117200D02*
X111497619Y-93069580D01*
X112545238Y-92641009D02*
X112878571Y-92641009D01*
X113021428Y-93164819D02*
X112545238Y-93164819D01*
X112545238Y-93164819D02*
X112545238Y-92164819D01*
X112545238Y-92164819D02*
X113021428Y-92164819D01*
X113307143Y-92164819D02*
X113878571Y-92164819D01*
X113592857Y-93164819D02*
X113592857Y-92164819D01*
%LPC*%
D11*
X107153222Y-84457248D03*
D12*
X111957396Y-82467294D03*
D13*
X107127453Y-68004965D03*
D14*
X111931627Y-69994919D03*
D15*
X118742752Y-56353222D03*
D16*
X120732706Y-61157396D03*
D17*
X135195035Y-56327453D03*
D18*
X133205081Y-61131627D03*
D19*
X146846778Y-67942752D03*
D20*
X142042604Y-69932706D03*
D21*
X146872547Y-84395035D03*
D22*
X142068373Y-82405081D03*
D23*
X135257248Y-96046778D03*
D24*
X133267294Y-91242604D03*
D25*
X127050800Y-57023000D03*
D26*
X127050800Y-51823000D03*
D27*
X118804965Y-96072547D03*
D28*
X120794919Y-91268373D03*
D29*
X148844000Y-98044000D03*
X105156000Y-98044000D03*
X148844000Y-54356000D03*
X105156000Y-54356000D03*
%LPD*%
M02*
